<svg xmlns="http://www.w3.org/2000/svg" xmlns:xlink="http://www.w3.org/1999/xlink" width="3710" height="3710" viewBox="0 0 3710 3710">
  <defs>
    <style>
      .cls-1 {
        fill: none;
      }

      .cls-2 {
        fill: url(#linear-gradient);
      }

      .cls-3 {
        isolation: isolate;
      }

      .cls-4, .cls-9 {
        opacity: 0.3;
      }

      .cls-4 {
        fill: url(#linear-gradient-2);
      }

      .cls-5 {
        fill: url(#linear-gradient-3);
      }

      .cls-16, .cls-28, .cls-6 {
        fill: #fff;
      }

      .cls-6 {
        opacity: 0.43;
      }

      .cls-7 {
        fill: url(#linear-gradient-4);
      }

      .cls-8 {
        opacity: 0.78;
      }

      .cls-10 {
        fill: url(#linear-gradient-5);
      }

      .cls-11 {
        fill: url(#linear-gradient-6);
      }

      .cls-12 {
        fill: url(#linear-gradient-7);
      }

      .cls-13 {
        fill: url(#linear-gradient-8);
      }

      .cls-14 {
        fill: url(#linear-gradient-9);
      }

      .cls-15 {
        fill: url(#linear-gradient-10);
      }

      .cls-16 {
        opacity: 0.56;
      }

      .cls-17 {
        fill: url(#linear-gradient-11);
      }

      .cls-18 {
        fill: url(#linear-gradient-12);
      }

      .cls-19 {
        fill: url(#linear-gradient-13);
      }

      .cls-20 {
        fill: url(#linear-gradient-14);
      }

      .cls-21 {
        fill: url(#linear-gradient-15);
      }

      .cls-22 {
        fill: url(#linear-gradient-16);
      }

      .cls-23 {
        fill: url(#New_Gradient_Swatch_15);
      }

      .cls-24 {
        fill: url(#New_Gradient_Swatch_15-2);
      }

      .cls-25 {
        fill: url(#New_Gradient_Swatch_15-3);
      }

      .cls-26 {
        opacity: 0.26;
        fill: url(#New_Gradient_Swatch_15-4);
      }

      .cls-27 {
        opacity: 0.68;
      }

      .cls-28 {
        mix-blend-mode: soft-light;
      }

      .cls-29 {
        fill: url(#linear-gradient-17);
      }

      .cls-30 {
        fill: url(#linear-gradient-18);
      }

      .cls-31 {
        fill: url(#linear-gradient-19);
      }

      .cls-32 {
        fill: url(#linear-gradient-20);
      }

      .cls-33 {
        fill: url(#linear-gradient-21);
      }

      .cls-34 {
        fill: #666694;
      }

      .cls-35 {
        fill: url(#linear-gradient-22);
      }

      .cls-36 {
        fill: url(#linear-gradient-23);
      }

      .cls-37 {
        fill: url(#linear-gradient-24);
      }

      .cls-38 {
        fill: url(#linear-gradient-25);
      }

      .cls-39 {
        fill: url(#linear-gradient-26);
      }

      .cls-40 {
        fill: url(#linear-gradient-27);
      }

      .cls-41 {
        fill: url(#linear-gradient-28);
      }

      .cls-42 {
        fill: url(#linear-gradient-29);
      }

      .cls-43 {
        fill: url(#linear-gradient-30);
      }

      .cls-44 {
        fill: url(#linear-gradient-31);
      }

      .cls-45 {
        clip-path: url(#clip-path);
      }

      .cls-46 {
        fill: url(#linear-gradient-32);
      }

      .cls-47 {
        fill: url(#linear-gradient-33);
      }

      .cls-48 {
        fill: url(#linear-gradient-34);
      }

      .cls-49 {
        fill: url(#linear-gradient-35);
      }

      .cls-50 {
        fill: url(#linear-gradient-36);
      }

      .cls-51 {
        fill: url(#linear-gradient-37);
      }

      .cls-52 {
        fill: url(#linear-gradient-38);
      }

      .cls-53 {
        fill: url(#linear-gradient-39);
      }

      .cls-54 {
        fill: url(#linear-gradient-40);
      }

      .cls-55 {
        fill: url(#linear-gradient-41);
      }

      .cls-56 {
        fill: url(#linear-gradient-42);
      }

      .cls-57 {
        fill: url(#linear-gradient-43);
      }

      .cls-58 {
        fill: url(#linear-gradient-44);
      }

      .cls-59 {
        clip-path: url(#clip-path-2);
      }

      .cls-60 {
        fill: url(#_27);
      }

      .cls-61 {
        fill: url(#linear-gradient-46);
      }
    </style>
    <linearGradient id="linear-gradient" x1="2725.62" y1="1591.38" x2="1300.87" y2="86.36" gradientUnits="userSpaceOnUse">
      <stop offset="0" stop-color="#fdf53f"/>
      <stop offset="1" stop-color="#d93c65"/>
    </linearGradient>
    <linearGradient id="linear-gradient-2" x1="3495.92" y1="3677.59" x2="1539.95" y2="1595.43" gradientUnits="userSpaceOnUse">
      <stop offset="0" stop-color="#b37cff"/>
      <stop offset="1" stop-color="#f895e7"/>
    </linearGradient>
    <linearGradient id="linear-gradient-3" x1="356.15" y1="1218.76" x2="1253.56" y2="2077.43" gradientUnits="userSpaceOnUse">
      <stop offset="0" stop-color="#53d8ff"/>
      <stop offset="1" stop-color="#3840f7"/>
    </linearGradient>
    <linearGradient id="linear-gradient-4" x1="752.34" y1="458.24" x2="1062.24" y2="1626.82" xlink:href="#linear-gradient-3"/>
    <linearGradient id="linear-gradient-5" x1="988.9" y1="221.78" x2="1463.08" y2="221.78" gradientTransform="translate(1764.75 44.07) rotate(19.8)" xlink:href="#linear-gradient-2"/>
    <linearGradient id="linear-gradient-6" x1="326.7" y1="142.81" x2="353.35" y2="142.81" gradientTransform="matrix(-0.96, -0.28, -0.28, 0.96, 2988.04, 440.67)" xlink:href="#linear-gradient-2"/>
    <linearGradient id="linear-gradient-7" x1="465.05" y1="346.47" x2="483.34" y2="346.47" gradientTransform="matrix(-0.96, -0.28, -0.28, 0.96, 2988.04, 440.67)" xlink:href="#linear-gradient-2"/>
    <linearGradient id="linear-gradient-8" x1="824.13" y1="533.06" x2="1311.25" y2="533.06" gradientTransform="translate(1764.75 44.07) rotate(19.8)" xlink:href="#linear-gradient-2"/>
    <linearGradient id="linear-gradient-9" x1="-29.68" y1="653.6" x2="-3.36" y2="653.6" gradientTransform="matrix(-0.96, -0.28, -0.28, 0.96, 2988.04, 440.67)" xlink:href="#linear-gradient-2"/>
    <linearGradient id="linear-gradient-10" x1="382.3" y1="-654.96" x2="2131.43" y2="1698.18" gradientTransform="translate(1764.75 44.07) rotate(19.8)" xlink:href="#linear-gradient-2"/>
    <linearGradient id="linear-gradient-11" x1="-423.31" y1="643.12" x2="-410.31" y2="643.12" gradientTransform="matrix(-0.96, -0.28, -0.28, 0.96, 2988.04, 440.67)" xlink:href="#linear-gradient-2"/>
    <linearGradient id="linear-gradient-12" x1="1483" y1="434.26" x2="1750.9" y2="434.26" gradientTransform="translate(1764.75 44.07) rotate(19.8)" xlink:href="#linear-gradient-2"/>
    <linearGradient id="linear-gradient-13" x1="1352.42" y1="691.25" x2="1648.69" y2="691.25" gradientTransform="translate(1764.75 44.07) rotate(19.8)" xlink:href="#linear-gradient-2"/>
    <linearGradient id="linear-gradient-14" x1="-346.79" y1="759.58" x2="-326.89" y2="759.58" gradientTransform="matrix(-0.96, -0.28, -0.28, 0.96, 2988.04, 440.67)" xlink:href="#linear-gradient-2"/>
    <linearGradient id="linear-gradient-15" x1="557.52" y1="-785.21" x2="2306.65" y2="1567.94" gradientTransform="translate(1764.75 44.07) rotate(19.8)" xlink:href="#linear-gradient-2"/>
    <linearGradient id="linear-gradient-16" x1="1736.72" y1="462.75" x2="2188.27" y2="3151.98" gradientTransform="translate(3641.46 -260.1) rotate(87.49)" gradientUnits="userSpaceOnUse">
      <stop offset="0" stop-color="#ce1567"/>
      <stop offset="1" stop-color="#7a1dbc"/>
    </linearGradient>
    <linearGradient id="New_Gradient_Swatch_15" data-name="New Gradient Swatch 15" x1="1932.3" y1="2670.16" x2="1199.93" y2="823.86" xlink:href="#linear-gradient-2"/>
    <linearGradient id="New_Gradient_Swatch_15-2" data-name="New Gradient Swatch 15" x1="2603.92" y1="2395.26" x2="1878.01" y2="565.24" xlink:href="#linear-gradient-2"/>
    <linearGradient id="New_Gradient_Swatch_15-3" data-name="New Gradient Swatch 15" x1="3045.66" y1="2228.53" x2="2313.29" y2="382.23" xlink:href="#linear-gradient-2"/>
    <linearGradient id="New_Gradient_Swatch_15-4" data-name="New Gradient Swatch 15" x1="879.52" y1="1686.53" x2="2894.72" y2="1686.53" xlink:href="#linear-gradient-2"/>
    <linearGradient id="linear-gradient-17" x1="585.74" y1="3195.26" x2="680.81" y2="3195.26" gradientUnits="userSpaceOnUse">
      <stop offset="0" stop-color="#2b3582"/>
      <stop offset="1" stop-color="#150e42"/>
    </linearGradient>
    <linearGradient id="linear-gradient-18" x1="595.39" y1="3151.08" x2="633.94" y2="3151.08" gradientUnits="userSpaceOnUse">
      <stop offset="0" stop-color="#f9b776"/>
      <stop offset="1" stop-color="#f47960"/>
    </linearGradient>
    <linearGradient id="linear-gradient-19" x1="787.92" y1="3193.74" x2="937.08" y2="3193.74" xlink:href="#linear-gradient-17"/>
    <linearGradient id="linear-gradient-20" x1="790.18" y1="3133.96" x2="828.53" y2="3133.96" xlink:href="#linear-gradient-18"/>
    <linearGradient id="linear-gradient-21" x1="571.43" y1="2793.84" x2="832.84" y2="2793.84" xlink:href="#linear-gradient-17"/>
    <linearGradient id="linear-gradient-22" x1="1151.71" y1="1558.69" x2="760.42" y2="2255.98" xlink:href="#linear-gradient"/>
    <linearGradient id="linear-gradient-23" x1="713.62" y1="1989.44" x2="856.13" y2="1989.44" gradientTransform="matrix(0.98, -0.18, 0.18, 0.98, -101.12, 105.21)" xlink:href="#linear-gradient-18"/>
    <linearGradient id="linear-gradient-24" x1="689.9" y1="1789" x2="391.68" y2="2336.94" gradientTransform="matrix(0.98, -0.18, 0.18, 0.98, -101.12, 105.21)" xlink:href="#linear-gradient-18"/>
    <linearGradient id="linear-gradient-25" x1="226.87" y1="4221.17" x2="95.07" y2="4395.52" gradientTransform="matrix(0.7, -0.71, 0.71, 0.7, -2347.96, -936.87)" xlink:href="#linear-gradient-18"/>
    <linearGradient id="linear-gradient-26" x1="126.21" y1="4263.23" x2="283.65" y2="4263.23" gradientTransform="matrix(0.7, -0.71, 0.71, 0.7, -2347.96, -936.87)" xlink:href="#linear-gradient-17"/>
    <linearGradient id="linear-gradient-27" x1="33.84" y1="4359.24" x2="139.55" y2="4250.79" gradientTransform="matrix(0.7, -0.71, 0.71, 0.7, -2347.96, -936.87)" xlink:href="#linear-gradient-18"/>
    <linearGradient id="linear-gradient-28" x1="568.45" y1="2084.34" x2="490.44" y2="2823.11" gradientTransform="matrix(0.98, -0.18, 0.18, 0.98, -101.12, 105.21)" xlink:href="#linear-gradient"/>
    <linearGradient id="linear-gradient-29" x1="1210.93" y1="1210.49" x2="1018.37" y2="1770.68" gradientTransform="matrix(0.98, -0.18, 0.18, 0.98, -101.12, 105.21)" xlink:href="#linear-gradient-18"/>
    <linearGradient id="linear-gradient-30" x1="1316.64" y1="1246.84" x2="1124.07" y2="1807.02" gradientTransform="matrix(0.98, -0.18, 0.18, 0.98, -101.12, 105.21)" xlink:href="#linear-gradient-18"/>
    <linearGradient id="linear-gradient-31" x1="1643.36" y1="1126.32" x2="158.27" y2="4477.82" xlink:href="#linear-gradient"/>
    <clipPath id="clip-path">
      <path class="cls-1" d="M1762.93,1746.5c-24.18,23.08-63.94,45.7-124.54,39.58-115.2-11.64-127.53-118.58-115-174.49,10.6-47.18,109.25-118.87,195.68-74.65,18.34,9.37,39-6.68,35.41-27.83L1711,1255.47l-278.43,55.93c-24.23,4.87-44.81-19.05-38-44.39a307.2,307.2,0,0,0,8.85-108.32c-9.35-101.23-98.58-131-178.25-108.78-68.63,19.14-136,145.83-41.22,247.32,18.54,19.85,8.49,54.16-17.17,59.32l-234.27,47.16L984,1703.77c56.13-107.07,166.7-102.88,224.52-16.57,58,86.63,38.56,178.9-54.72,203.82-47.72,12.75-83.25-.11-106.49-15.54-12.16-8.08-27,2.66-24.45,17.75l41.58,242.19L1296,2097c25.68-4.26,46.42,25.19,34.11,49.43-10.68,21-17.67,46.42-14.12,75,10.26,82.59,81.1,151.7,159.6,148.19,79.07-3.55,147.64-94.94,122.33-172-12-36.51-32.19-69.75-50.1-94.58-14.93-20.7-4.17-50.14,19.77-54.11l277.92-46.18L1804,1761.55C1800.57,1741.32,1777.3,1732.79,1762.93,1746.5Z"/>
    </clipPath>
    <linearGradient id="linear-gradient-32" x1="1514.81" y1="1813.91" x2="130.05" y2="3961.29" xlink:href="#linear-gradient"/>
    <linearGradient id="linear-gradient-33" x1="2675.55" y1="1701.36" x2="2563.28" y2="2045.49" xlink:href="#linear-gradient-18"/>
    <linearGradient id="linear-gradient-34" x1="2619.76" y1="819.15" x2="673.08" y2="5645.72" xlink:href="#linear-gradient-3"/>
    <linearGradient id="linear-gradient-35" x1="2651.79" y1="2924.24" x2="2888.34" y2="2924.24" xlink:href="#linear-gradient-18"/>
    <linearGradient id="linear-gradient-36" x1="2976.94" y1="2395.22" x2="2859.79" y2="3156.7" xlink:href="#linear-gradient-3"/>
    <linearGradient id="linear-gradient-37" x1="2729.06" y1="2357.09" x2="2611.91" y2="3118.57" xlink:href="#linear-gradient-3"/>
    <linearGradient id="linear-gradient-38" x1="2508.24" y1="2941.83" x2="2645.23" y2="2941.83" xlink:href="#linear-gradient-18"/>
    <linearGradient id="linear-gradient-39" x1="2586.71" y1="1385.25" x2="2286.34" y2="2003.32" xlink:href="#linear-gradient-18"/>
    <linearGradient id="linear-gradient-40" x1="2507.02" y1="2059.85" x2="3009.8" y2="3055.63" xlink:href="#linear-gradient"/>
    <linearGradient id="linear-gradient-41" x1="2789.03" y1="2298.83" x2="3712.2" y2="1104.73" xlink:href="#linear-gradient-17"/>
    <linearGradient id="linear-gradient-42" x1="2549.77" y1="2045.73" x2="2633.6" y2="2045.73" xlink:href="#linear-gradient-18"/>
    <linearGradient id="linear-gradient-43" x1="2683" y1="1937.4" x2="3293.16" y2="1978.89" xlink:href="#linear-gradient-18"/>
    <linearGradient id="linear-gradient-44" x1="2808.91" y1="1920.79" x2="2087.95" y2="2765.07" xlink:href="#linear-gradient-17"/>
    <clipPath id="clip-path-2">
      <path class="cls-2" d="M2834.9,1424.25c-20.09,12.38-44.69,24-72.85,30.67-155.86,36.62-146.49-163.44-70.2-248.94,39-43.73,88.85-33.87,128.46-13.56,29.12,14.94,63.65-7.72,61.68-41L2865.8,877.9l-255.44,22.37c-28.6,2.5-44.55,35.08-29.92,60,16.86,28.72,33.07,68.12,35.9,116.06,6.27,105.83-130.62,141.52-174.73,148.25-39.86,6.08-202.89-56.74-115.3-241,12.73-26.77-6.89-57.22-35.29-54.74l-282.37,24.72,16,270.88c1.34,22.59-22.23,37-40.36,25-85.41-56.42-197.16,7.18-213.77,55.39-19.69,57.12-19.26,170.63,100.1,196.27,62.79,13.49,107.1-5.57,135.14-26.94,16.66-12.69,40-1,41.32,20.58l15.24,257.57,291.32-15.66c28.92-1.55,44-36.14,26-59.84-25.72-33.9-54.56-75.06-62.86-99.23-15.9-46.24,4.62-144.45,113.64-166.87,110-22.63,195,48.39,196.49,149.11a325.21,325.21,0,0,1-17.66,111.1c-8.73,25.16,11.06,51.41,37.18,50l267-14.34-14.72-248.75C2896.79,1425.67,2862,1407.53,2834.9,1424.25Z"/>
    </clipPath>
    <linearGradient id="_27" data-name="  27" x1="1701.28" y1="1090.68" x2="1922.02" y2="-33.07" gradientUnits="userSpaceOnUse">
      <stop offset="0" stop-color="#fdf53f"/>
      <stop offset="0.13" stop-color="#fcf040"/>
      <stop offset="0.28" stop-color="#f9e343"/>
      <stop offset="0.43" stop-color="#f5cc47"/>
      <stop offset="0.6" stop-color="#efac4e"/>
      <stop offset="0.77" stop-color="#e78357"/>
      <stop offset="0.94" stop-color="#dd5161"/>
      <stop offset="1" stop-color="#d93c65"/>
    </linearGradient>
    <linearGradient id="linear-gradient-46" x1="2995.3" y1="1569.59" x2="2172.56" y2="2780.29" xlink:href="#linear-gradient"/>
  </defs>
  <title>ambiental</title>
  <g class="cls-3">
    <g id="Background">
      <rect class="cls-1" width="3710" height="3710"/>
    </g>
    <g id="Illustration">
      <g>
        <path class="cls-4" d="M2908.64,2842.24c-72.2,74.43-136.81,118.18-186.28,151.21C2239.93,3315.57,1688.46,3222.73,1518,3191c-275.08-51.2-507.29-87.31-706.8-267.56-453.34-409.58-431.29-1264-84.88-1793.26,41.07-62.76,387-575.47,939.63-647.71,13.51-1.77,23.6-2.78,32.43-3.71,85.5-9.05,615.3-56.83,1047.3,305.1,61.84,51.81,161.36,145.26,253.64,287.79C3336.71,1592.77,3337.78,2399.9,2908.64,2842.24Z"/>
        <g>
          <g>
            <path class="cls-5" d="M592.21,742.21c4.26-14.22,24.8-13.28,27.68,1.29,27.8,140.84,112.27,507.87,270.7,711.58,258,331.7,406.27,849,204.9,1095C1095.49,2550.09,128.13,2292.14,592.21,742.21Z"/>
            <path class="cls-6" d="M603.91,941c0,4.53.35,8.27.55,12.31l.87,11.89,2,23.75c1.44,15.81,3.11,31.59,4.79,47.38q5.22,47.34,11.49,94.55c8.42,62.93,18.55,125.63,29.61,188.17s23.71,124.81,37.75,186.76S720,1629.48,737,1690.72c33.75,122.52,74.21,243.32,123,360.78,25,58.46,51.59,116.29,81.46,172.46,30.26,55.94,62.91,110.61,99.4,162.67a2.51,2.51,0,0,0,4.16-2.79l0,0a1845.19,1845.19,0,0,1-94.35-164.62c-28.79-56.34-54.28-114.29-78.23-172.82s-45.47-118.08-65.67-178-37.86-120.77-55.2-181.64c-34.17-121.93-61.82-245.63-86-370q-18-93.3-32.32-187.28-7.29-47-13.61-94.06l-5.9-47.15L611,964.65l-1.23-11.8c-.33-3.87-.76-8-.92-11.43l0-.56a2.48,2.48,0,0,0-5,.11Z"/>
          </g>
          <g>
            <path class="cls-7" d="M1094.36,466.88c7.78-11.88,26.37-5.42,25,8.73C1106.46,612.35,1083.8,972,1173.52,1202c146.08,374.56,141,889.4-110.82,1060.08C1062.7,2262.1,246,1761.64,1094.36,466.88Z"/>
            <path class="cls-6" d="M1050.82,652.33c-1.24,4.16-1.94,7.68-2.85,11.44l-2.45,11.15-4.66,22.31c-3,14.9-5.77,29.83-8.54,44.76q-8.14,44.84-15.28,89.84c-9.45,60-17.28,120.28-24.2,180.64S980.52,1133.4,976.49,1194s-7.09,121.38-8.21,182.18c-2.47,121.57,1.69,243.39,14.43,364.43,7,60.43,15.6,120.72,27.68,180.38,12.5,59.55,27.54,118.6,46.83,176.29a2.44,2.44,0,0,0,4.65-1.45v0a1770.36,1770.36,0,0,1-41.56-176.7c-11-59.52-18.58-119.62-24.56-179.83s-9.48-120.68-11.65-181.17-1.77-121.08-1.07-181.63c1.92-121.13,10.32-242.1,22-362.73q9-90.46,21.42-180.56,6.12-45,13.16-90l7.44-44.85L1051,676l2.1-11.15c.74-3.64,1.48-7.58,2.26-10.73l.14-.53a2.42,2.42,0,0,0-4.67-1.27Z"/>
          </g>
        </g>
        <g class="cls-8">
          <g>
            <g class="cls-9">
              <path class="cls-10" d="M3000.46,905.67a8,8,0,0,1-4.39-10.43c3.23-8,6.17-16.16,8.73-24.4a8,8,0,0,1,9.87-5.31l.15,0a8,8,0,0,1,5.26,10c-2.69,8.67-5.78,17.32-9.19,25.69a8,8,0,0,1-9.63,4.67A8.46,8.46,0,0,1,3000.46,905.67Zm14.05-75.8c1.41-8.51,2.47-17.16,3.16-25.72a8,8,0,1,1,15.95,1.27c-.72,9-1.84,18.11-3.32,27.06a8,8,0,0,1-9.2,6.59,9,9,0,0,1-.93-.21A8,8,0,0,1,3014.51,829.87Zm3.57-67.81c-.52-8.58-1.41-17.25-2.67-25.77a8,8,0,0,1,15.84-2.33c1.31,9,2.26,18.1,2.8,27.14a8,8,0,0,1-7.51,8.47,7.79,7.79,0,0,1-2.7-.3A8,8,0,0,1,3018.08,762.06Zm-11.69-66.89c-2.42-8.27-5.24-16.52-8.36-24.54a8,8,0,0,1,14.91-5.81c3.29,8.45,6.25,17.14,8.81,25.84a8,8,0,0,1-15.36,4.51Zm-26.3-62.63c-4.19-7.5-8.76-14.93-13.59-22.08a8,8,0,1,1,13.26-9c5.08,7.52,9.89,15.33,14.3,23.23a8,8,0,0,1-14,7.8Zm-39.5-55.25c-5.75-6.4-11.85-12.63-18.13-18.52a8,8,0,0,1,10.95-11.67c6.6,6.2,13,12.76,19.08,19.49a8,8,0,0,1-8.18,13A7.91,7.91,0,0,1,2940.59,577.29ZM2662.31,473.17a8,8,0,0,1,6.77-9.07c9-1.3,18.1-2.23,27.15-2.76a8,8,0,0,1,.94,16c-8.61.5-17.28,1.38-25.79,2.62a8,8,0,0,1-9.07-6.77Zm227.55,59c-7-5-14.36-9.66-21.79-14a8,8,0,1,1,8.07-13.82c7.82,4.57,15.54,9.53,22.94,14.75a8,8,0,0,1-6.84,14.22A7.81,7.81,0,0,1,2889.86,532.2Zm-157.93-63a8,8,0,0,1,8.63-7.32c9,.74,18.13,1.87,27.07,3.37A8,8,0,0,1,2765,481c-8.5-1.43-17.16-2.51-25.73-3.21a8.27,8.27,0,0,1-1.59-.29A8,8,0,0,1,2731.93,469.18Zm98.4,30.41c-8-3.25-16.16-6.21-24.38-8.78a8,8,0,0,1,4.61-15.32l.17.05c8.65,2.7,17.29,5.81,25.66,9.24a8,8,0,0,1-5.25,15.09C2830.87,499.79,2830.6,499.7,2830.33,499.59Z"/>
              <path class="cls-11" d="M2613.37,492.79a7.94,7.94,0,0,0,4.77-.11c3.91-1.32,7.91-2.58,11.9-3.75a8,8,0,1,0-4.5-15.35c-4.19,1.23-8.4,2.55-12.51,3.94a8,8,0,0,0,.34,15.27Z"/>
            </g>
            <g class="cls-9">
              <path class="cls-12" d="M2431.05,654.86a8,8,0,0,0,9.46-4.27c1.76-3.73,3.63-7.49,5.55-11.16a8,8,0,0,0-14.18-7.43c-2,3.88-4,7.83-5.84,11.76a8,8,0,0,0,3.82,10.65A7.83,7.83,0,0,0,2431.05,654.86Z"/>
              <path class="cls-13" d="M2610.69,1082.55a8,8,0,1,1,5.2-15.13c8,2.74,16.15,5.17,24.45,7.28a8,8,0,1,1-3.93,15.51q-5.4-1.37-10.7-2.9C2620.66,1085.85,2615.61,1084.25,2610.69,1082.55Zm61.56,6.64a8,8,0,0,1,8.85-7c8.43.95,17,1.56,25.45,1.81a8,8,0,1,1-.46,16c-8.9-.26-17.92-.9-26.79-1.9a9.49,9.49,0,0,1-1.33-.27A8,8,0,0,1,2672.25,1089.19Zm-101.73-23.6c-7.94-4-15.82-8.43-23.42-13.12a8,8,0,0,1,8.4-13.62c7.22,4.45,14.7,8.64,22.24,12.46a8,8,0,0,1-5.83,14.82A7.67,7.67,0,0,1,2570.52,1065.59Zm170.33,25.54a8,8,0,0,1,7.08-8.82c8.42-.92,16.91-2.21,25.21-3.83a8,8,0,0,1,3.08,15.7c-8.75,1.71-17.69,3.07-26.55,4a8,8,0,0,1-8.82-7.08Zm-229.17-64c-6.86-5.66-13.57-11.7-20-17.94a8,8,0,1,1,11.19-11.44c6.06,5.93,12.44,11.66,19,17a8,8,0,0,1-10.19,12.34Zm-49-50.46c-5.47-7-10.71-14.4-15.57-21.87a8,8,0,0,1,13.41-8.73c4.62,7.1,9.6,14.09,14.79,20.78a8,8,0,0,1-8.55,12.59A7.91,7.91,0,0,1,2462.71,976.64Zm-36.82-59.94c-3.81-8.07-7.32-16.4-10.43-24.73a8,8,0,1,1,15-5.6c3,7.92,6.29,15.83,9.91,23.5a8,8,0,1,1-14.47,6.83ZM2403,850.16c-2-8.71-3.56-17.6-4.76-26.43a8,8,0,0,1,15.85-2.17c1.15,8.38,2.67,16.83,4.52,25.1a8,8,0,0,1-6,9.55,7.82,7.82,0,0,1-4-.12A8,8,0,0,1,2403,850.16Zm-7.69-70c0-8.9.41-17.92,1.18-26.81a8,8,0,0,1,15.94,1.38c-.72,8.44-1.1,17-1.12,25.46a8,8,0,0,1-8,8,7.79,7.79,0,0,1-2.22-.32A8,8,0,0,1,2395.34,780.18Zm7.86-69.88c1.44-6.4,3.09-12.83,4.92-19.12.66-2.28,1.34-4.54,2.05-6.8a7.9,7.9,0,0,1,10-5.23,8,8,0,0,1,5.25,10c-.68,2.14-1.33,4.3-2,6.46-1.74,6-3.31,12.1-4.68,18.18a8,8,0,0,1-9.56,6.05l-.48-.12A8,8,0,0,1,2403.2,710.3Z"/>
              <path class="cls-14" d="M2813.72,1082.94a8,8,0,0,0,4.82-.12c4.09-1.4,8.24-2.92,12.32-4.51a8,8,0,1,0-5.82-14.91c-3.87,1.51-7.81,2.95-11.7,4.29a8,8,0,0,0,.38,15.25Z"/>
            </g>
            <g>
              <path class="cls-15" d="M2874.11,959.78a3.72,3.72,0,0,0,1.48-4.08l-12.23-43.84a198.6,198.6,0,0,0,34.89-53.93l45-6.84a3.74,3.74,0,0,0,3.12-3l9.84-53.7a3.73,3.73,0,0,0-1.84-3.93L2914.7,768.1a198.26,198.26,0,0,0-13.51-62.8l27-36.65a3.74,3.74,0,0,0,.07-4.34l-31-44.93a3.73,3.73,0,0,0-4.08-1.48l-43.84,12.24a198.13,198.13,0,0,0-53.93-34.89l-6.84-45a3.74,3.74,0,0,0-3-3.12l-53.7-9.84a3.77,3.77,0,0,0-3.94,1.85l-22.33,39.62a198.26,198.26,0,0,0-62.8,13.51l-36.65-27a3.74,3.74,0,0,0-4.34-.07l-44.93,31a3.75,3.75,0,0,0-1.48,4.08l12.24,43.84a198.13,198.13,0,0,0-34.89,53.93l-45,6.84a3.75,3.75,0,0,0-3.12,3l-9.84,53.71a3.76,3.76,0,0,0,1.85,3.93L2516.23,788a198.2,198.2,0,0,0,13.51,62.8l-27,36.65a3.76,3.76,0,0,0-.07,4.35l31,44.92a3.73,3.73,0,0,0,4.08,1.48l43.84-12.23a198.6,198.6,0,0,0,53.93,34.89l6.84,45a3.75,3.75,0,0,0,3,3.11l53.71,9.84a3.74,3.74,0,0,0,3.93-1.84l22.33-39.63a198.26,198.26,0,0,0,62.8-13.51l36.65,27a3.74,3.74,0,0,0,4.35.07Z"/>
              <path class="cls-16" d="M2692.67,827.94a54.8,54.8,0,1,1,7.55,2.81A54.25,54.25,0,0,1,2692.67,827.94Zm8.09-89.34a42.08,42.08,0,1,0,32.19,1.15,44.38,44.38,0,0,0-5.85-2.17A41.85,41.85,0,0,0,2700.76,738.6Z"/>
              <path class="cls-16" d="M2677.08,906.56a137.15,137.15,0,0,0,13.49,3.19h0c1.45.26,2.89.5,4.34.72a135.6,135.6,0,0,0,21.56,1.5h.29l.84,0,1.62,0a3.19,3.19,0,0,0,3-2.3,3,3,0,0,0,.13-1,3.22,3.22,0,0,0-3.3-3.1,128.64,128.64,0,0,1-123.24-80.26,127.76,127.76,0,0,1-7.32-71.39,131.08,131.08,0,0,1,3-12.88,128.55,128.55,0,0,1,249.83,59.2,129.69,129.69,0,0,1-3,12.71,128.17,128.17,0,0,1-26.81,48.93,3.06,3.06,0,0,0-.67,1.22,3.2,3.2,0,0,0,5.48,3,135.1,135.1,0,0,0,31.29-64.71c13.41-73.19-35.25-143.63-108.41-157a135,135,0,0,0-153.85,94.9,138.22,138.22,0,0,0-3.19,13.51,134.95,134.95,0,0,0,94.92,153.86Z"/>
            </g>
          </g>
          <g>
            <g class="cls-9">
              <path class="cls-17" d="M3204.81,1184.48a4.93,4.93,0,0,0,5.54-2.09c2.25-3.54,4.43-7.19,6.47-10.86a4.94,4.94,0,0,0-8.63-4.81c-2,3.5-4,7-6.18,10.36a4.93,4.93,0,0,0,2.8,7.4Z"/>
              <path class="cls-18" d="M3221.74,1150.52a4.93,4.93,0,0,1-2.73-6.43c2.57-6.39,4.85-13,6.77-19.6.41-1.39.8-2.8,1.17-4.21a5,5,0,0,1,6.05-3.5,5.13,5.13,0,0,1,3.5,6.06c-.39,1.47-.8,2.94-1.23,4.4a215.83,215.83,0,0,1-7.1,20.55,5,5,0,0,1-6,2.9Zm10.2-54.84a205.54,205.54,0,0,0,2-25,4.94,4.94,0,0,1,9.88.16,213.41,213.41,0,0,1-2.05,26.22,4.94,4.94,0,0,1-5.58,4.21,3.84,3.84,0,0,1-.69-.15A4.94,4.94,0,0,1,3231.94,1095.68Zm.8-50.08a203.68,203.68,0,0,0-4.26-24.74,4.94,4.94,0,0,1,9.62-2.27,211.12,211.12,0,0,1,4.46,25.94,4.94,4.94,0,0,1-4.37,5.45,5.25,5.25,0,0,1-1.91-.17A4.93,4.93,0,0,1,3232.74,1045.6Zm-11.54-48.75A204.33,204.33,0,0,0,3211,973.91a4.94,4.94,0,0,1,8.77-4.56,213.4,213.4,0,0,1,10.67,24,4.94,4.94,0,0,1-9.26,3.45Zm-23.09-44.46a206.66,206.66,0,0,0-15.44-19.78,4.94,4.94,0,1,1,7.4-6.54,216.3,216.3,0,0,1,16.19,20.72,4.94,4.94,0,0,1-5.45,7.54A4.87,4.87,0,0,1,3198.11,952.39Zm-33.18-37.51a202.32,202.32,0,0,0-19.78-15.39,4.94,4.94,0,1,1,5.57-8.16,212.36,212.36,0,0,1,20.75,16.14,4.94,4.94,0,0,1-4.65,8.45A4.77,4.77,0,0,1,3164.93,914.88Zm-41.33-28.24a203.66,203.66,0,0,0-23-10.07,4.95,4.95,0,0,1,3.41-9.29,215.4,215.4,0,0,1,24.09,10.57,4.95,4.95,0,0,1-3.63,9.15A5.19,5.19,0,0,1,3123.6,886.64Zm-76.16-26.88a4.93,4.93,0,0,1,5.43-4.38,212.44,212.44,0,0,1,22.57,3.64c1.13.24,2.26.49,3.38.75a4.89,4.89,0,0,1,3.68,5.94,4.94,4.94,0,0,1-5.94,3.69c-1-.25-2.11-.49-3.19-.72a207.6,207.6,0,0,0-21.54-3.48,4.68,4.68,0,0,1-.86-.17A4.93,4.93,0,0,1,3047.44,859.76Z"/>
            </g>
            <g class="cls-9">
              <path class="cls-19" d="M2968.05,1271.79a216.31,216.31,0,0,1-24.25-9,4.94,4.94,0,0,1,4-9,204.9,204.9,0,0,0,23.13,8.59,4.94,4.94,0,0,1-2.81,9.48Zm21.17.29a4.94,4.94,0,0,1,5.73-4,208.4,208.4,0,0,0,24.53,2.84,4.94,4.94,0,0,1-.55,9.87,217.69,217.69,0,0,1-25.7-3,4.37,4.37,0,0,1-.52-.12A4.94,4.94,0,0,1,2989.22,1272.08Zm-68.41-21.19a214.15,214.15,0,0,1-21.36-14.61,4.94,4.94,0,1,1,6.06-7.81,204.62,204.62,0,0,0,20.37,13.94,4.94,4.94,0,0,1-3.91,9A4.73,4.73,0,0,1,2920.81,1250.89ZM3039.56,1276a4.94,4.94,0,0,1,4.6-5.26,203.34,203.34,0,0,0,24.48-3.17,4.94,4.94,0,1,1,1.87,9.7,211.21,211.21,0,0,1-25.68,3.33,5.11,5.11,0,0,1-1.71-.18A5,5,0,0,1,3039.56,1276ZM2880,1219.2a216,216,0,0,1-17.22-19.31,4.94,4.94,0,1,1,7.76-6.12,203.51,203.51,0,0,0,16.43,18.41,4.95,4.95,0,0,1-4.87,8.26A5,5,0,0,1,2880,1219.2Zm-32-40.55a215.57,215.57,0,0,1-12.11-22.88,4.94,4.94,0,1,1,9-4.08,205.87,205.87,0,0,0,11.55,21.82,4.94,4.94,0,0,1-5.6,7.31A4.85,4.85,0,0,1,2848,1178.65Zm-21.37-47.05a212.43,212.43,0,0,1-6.26-25.12,4.94,4.94,0,1,1,9.71-1.81,204.61,204.61,0,0,0,6,24,4.94,4.94,0,0,1-9.43,3Z"/>
              <path class="cls-20" d="M3092.92,1270.85a4.92,4.92,0,0,0,2.89,0c4-1.3,8-2.73,11.9-4.24a4.94,4.94,0,1,0-3.59-9.21c-3.69,1.44-7.51,2.8-11.35,4.05a4.94,4.94,0,0,0,.15,9.45Z"/>
            </g>
            <g>
              <path class="cls-21" d="M3136.81,1187.63a2.49,2.49,0,0,0,1-2.73l-8.19-29.34a132.44,132.44,0,0,0,23.35-36.08l30.09-4.58a2.48,2.48,0,0,0,2.08-2l6.59-35.94a2.52,2.52,0,0,0-1.23-2.63L3164,1059.37a132.73,132.73,0,0,0-9-42L3173,992.82a2.51,2.51,0,0,0,.05-2.91l-20.76-30.06a2.49,2.49,0,0,0-2.73-1l-29.33,8.19a132.64,132.64,0,0,0-36.09-23.35l-4.58-30.09a2.51,2.51,0,0,0-2-2.09l-35.94-6.58a2.52,2.52,0,0,0-2.63,1.23L3024,932.69a132.73,132.73,0,0,0-42,9l-24.53-18.05a2.49,2.49,0,0,0-2.91,0l-30.06,20.76a2.5,2.5,0,0,0-1,2.73l8.19,29.33a132.88,132.88,0,0,0-23.35,36.09l-30.09,4.58a2.5,2.5,0,0,0-2.08,2l-6.59,35.94a2.51,2.51,0,0,0,1.24,2.63l26.51,14.94a132.73,132.73,0,0,0,9,42l-18,24.53a2.51,2.51,0,0,0-.05,2.91l20.76,30.06a2.5,2.5,0,0,0,2.73,1l29.33-8.19a132.88,132.88,0,0,0,36.09,23.35l4.58,30.09a2.5,2.5,0,0,0,2,2.08l35.94,6.59a2.51,2.51,0,0,0,2.63-1.24l14.94-26.51a132.73,132.73,0,0,0,42-9l24.53,18a2.51,2.51,0,0,0,2.91.05Z"/>
              <path class="cls-16" d="M3015.12,1100a37.24,37.24,0,1,1,5.2,1.93A38.8,38.8,0,0,1,3015.12,1100Zm-9.48-45.43a27.5,27.5,0,0,0,13.59,36.44h0a27.5,27.5,0,1,0-13.59-36.44Z"/>
              <path class="cls-16" d="M3004.28,1154.73a94.15,94.15,0,0,0,28.12,3.69l.85,0a4.94,4.94,0,0,0-.31-9.88,83.72,83.72,0,0,1-17.66-1.34h0l-.95-.18a82.44,82.44,0,0,1-36.89-17.33,83.58,83.58,0,0,1-15.21-16.44l-.11-.16c-.11-.15-.22-.3-.32-.46a83.21,83.21,0,1,1,150.32-32.28c-.51,2.78-1.16,5.53-1.94,8.23a83,83,0,0,1-17.35,31.67,4.77,4.77,0,0,0-1,1.89,4.94,4.94,0,0,0,8.46,4.63,93.1,93.1,0,1,0-159.35-87.51,95.72,95.72,0,0,0-2.2,9.32A93.23,93.23,0,0,0,3004.28,1154.73Z"/>
            </g>
          </g>
        </g>
        <g>
          <ellipse class="cls-22" cx="1956.62" cy="1772.36" rx="1189.62" ry="1284.08" transform="translate(100.14 3649.36) rotate(-87.49)"/>
          <path class="cls-23" d="M987.93,984.22c-28.18,45.25-49.91,96.19-45.83,149.34,4.72,61.54,35.87,119.18,37.47,180.88,2.71,104.65-78.08,192.25-103.28,293.86-28.16,113.56,78,243,120.35,306.35s24.13-51.43,49.79-96.2,81,188.39,167.4,239.57c46.37,27.45,100.76,45.73,134.11,88.06,48.64,61.74,35.16,149.58,27.86,227.84s3.64,173.62,74.11,208.4c41.5,20.49,94.24,13.55,131.69,40.74,65.76,47.75,34.35,151.85,60.41,228.83,28.34,83.71,84.53,84.81,171.46,102.56s-11-173.25,29.78-240c21.41-35.09,54.09-63,71-100.48,23.41-52,16.82-121.41,62.24-155.84,34-25.82,81.43-18.83,124.15-19.21s94.69-18.92,99.54-61.37c4.3-37.67-33.41-67.7-70.3-76.43s-76.2-4.56-112.44-15.72c-103.63-31.91-152-176.93-260.19-183.72-92.51-5.8-170,98-260.9,79.9-50.67-10.11-85.36-55-123-90.42-48.32-45.51-108.29-79.67-146.66-133.84s-44.89-140.77,9.69-178.55c40.54-28.07,98.14-16.68,138.19,12.09s67.34,71.44,96.75,111c9.08,12.22,19.37,24.89,33.9,29.44,39.11,12.24,67.65-42.79,58.29-82.69s-37.54-75-38.87-116c-2.33-72.19,75.41-118,143.61-141.78s148.58-52.15,168.63-121.54c7.08-24.51,5.22-51.48,16-74.59,35.82-76.59,224.84-114.82,179.66-159.23S1844,1181.48,1816.06,1092c-10-32-20.29-74.35-53.7-77.44-54.4-5.05-85.44,62.29-131.08,73.85-21.66,5.49-23.75,42.29-22.9,87.54a59.49,59.49,0,0,1-119,2.25,91.85,91.85,0,0,1,6.92-36.81c8.78-21.53,25.47-38.75,42.29-54.82,70.19-67,279.63-140.65,235.77-169.18s-254.35-107.25-285.75-63.8,20.54,6.65,33.2,58.18-155.71,44.62-233.56,66.93c-12.86,3.68-27.12,7.27-39.15,1.44C1235.69,973.67,1230,958,1222.72,945c-39.1-69.86-169.15-24.51-169.15-24.51S1013.12,943.79,987.93,984.22Z"/>
          <path class="cls-24" d="M1576.17,667.21c-18.91,35.24,37.31,34.67,42.9,74.27,50.61,5.51,71.39-74.27,121.44-83.59,28.24-5.25,55.63,15,71,39.27S1834,750,1847,775.58c29.15,57.39,89.33,97.78,153.49,103,14,1.14,29.34.24,39.85-9,30.5-26.88-13.14-77.38-1.8-116.42,12.95-44.61,77.28-37.84,120.76-54.2,12-4.52,104.23-29.13,105.72-41.86,2.63-22.56-40.16-36.92-88-49.23-81.11-20.86-223.81-20-293.56-13.68-92.8,8.4-247.41,1.61-307.26,73Z"/>
          <path class="cls-25" d="M3123.75,2182.76a1169.64,1169.64,0,0,0-5.15-397.92c-6.52-35-21.77-76.64-57-81.67-40.71-5.82-90.56,40.95-116,8.67-11.25-14.25-6.76-35-.39-52a344.58,344.58,0,0,1,76.7-120.22c20.86-21.21,44.73-40,60.79-65,34.35-53.55,10.24-131.81-38.38-172.84s-111.35,32.55-162.46,3.34-52.7-100.07-62.31-158.15c-7.11-43-38.81-159.58-73.83-102.82s46.71,282.73,138.69,391.05c11.09,13.06,23.34,27.7,22.4,44.81-2.23,40.87-61.79,39-101.85,47.42-49.6,10.36-125.61-16.2-83.66,70.22,22.12,45.57,127.8,108,99.41,138.46S2705,1854.91,2664,1926.36s-60.81,160.43-29.92,236.77,123.77,129.07,199.59,96.91c35.48-15.06,74.16-46.35,107.15-26.41,29.87,18.06,25.46,61.41,24,96.29s18.63,81.17,52.56,73c11.17-2.7,19.95-11.16,27.49-19.83C3092.61,2328.21,3112.28,2254.57,3123.75,2182.76Z"/>
          <ellipse class="cls-26" cx="1887.12" cy="1686.53" rx="1007.6" ry="951.86"/>
          <g class="cls-27">
            <path class="cls-28" d="M2315,1792.78c-.3,209.75-14.64,419.92-51.44,626.69-9.32,51.65-20.13,103.06-33,154s-27.85,101.34-46.14,150.66c-9.17,24.64-19.18,49-30.46,72.79a564.88,564.88,0,0,1-38.38,69.13c-14.61,22-31.19,43-51.61,60.3a147.05,147.05,0,0,1-33.72,21.76,100.82,100.82,0,0,1-39.29,9.29,99,99,0,0,1-39.72-7.33,137.74,137.74,0,0,1-34.49-20.57c-20.91-16.74-37.85-37.54-52.72-59.34s-27.52-45.09-39-68.79-21.59-48-30.85-72.64c-18.51-49.23-33.59-99.64-46.63-150.5s-23.93-102.26-33.33-153.89c-18.75-103.29-31.52-207.58-40.11-312.15s-12.77-209.52-13.23-314.45c-.22-52.46,1.1-104.92,2.93-157.34s4.74-104.81,8.55-157.13c7.65-104.62,19.14-209,36.27-312.56,8.59-51.76,18.62-103.3,30.69-154.38s26.17-101.72,43.64-151.28c8.78-24.76,18.38-49.25,29.33-73.16s23.18-47.29,37.56-69.39,31-43,51.61-59.79c10.31-8.33,21.66-15.57,34.1-20.48a96,96,0,0,1,39.18-7,103.72,103.72,0,0,1,38.72,9.1,151.33,151.33,0,0,1,33.68,21.07c20.58,16.76,37.62,37.25,52.74,58.78a561.36,561.36,0,0,1,40.07,68c11.89,23.45,22.49,47.53,32.27,71.9,19.47,48.81,35.55,98.88,49.54,149.46s25.75,101.79,35.95,153.26C2298.05,1372.81,2314.43,1583,2315,1792.78Zm-12.66,0q.24-156.87-12.59-313.41c-8.64-104.22-21.73-208.12-41.15-310.88-9.71-51.37-21-102.45-34.45-153s-29-100.45-48-149.14c-9.5-24.31-19.81-48.32-31.4-71.7a558,558,0,0,0-39.09-67.64c-14.74-21.4-31.36-41.73-51.33-58.28A147.44,147.44,0,0,0,2011.79,648c-11.72-5.26-24.36-8.7-37.2-9a91.42,91.42,0,0,0-37.54,7c-11.92,4.82-22.86,11.92-32.82,20.12-19.94,16.53-36.08,37.31-50.11,59.15s-25.92,45.2-36.55,69-20,48.22-28.48,72.91c-16.93,49.41-30.49,100-42.09,150.92s-21.1,102.42-29.2,154.07c-16.15,103.34-26.68,207.53-33.38,311.91s-9.22,209-9,313.62q-.32,156.88,11.21,313.48c7.91,104.28,20,208.29,38,311.28,9,51.48,19.59,102.7,32.22,153.4s27.33,100.89,45.39,149.84c9,24.47,19,48.61,30.11,72.14s23.56,46.47,38,68,30.89,41.86,50.86,58a131.26,131.26,0,0,0,32.61,19.75,90.41,90.41,0,0,0,37,7,93.8,93.8,0,0,0,36.58-8.91,140,140,0,0,0,31.94-20.94c19.53-16.74,35.63-37.37,49.82-59,28.21-43.65,49.13-91.8,67.09-140.71s32.34-99.29,44.87-150,22.91-102,31.86-153.47c17.9-103,29.83-207,37.75-311.31S2302.35,1897.39,2302.32,1792.78Z"/>
            <path class="cls-28" d="M2844.07,1792.78a1556.68,1556.68,0,0,1-13.53,201.93A1475.29,1475.29,0,0,1,2790,2193c-36.56,129.91-91.79,255-166.95,367.21-37.59,56.06-80.19,108.83-127.81,156.69S2395,2807.63,2337.8,2843.62s-118.87,64.75-183.53,84.32a693.09,693.09,0,0,1-399.48.15c-64.69-19.54-126.45-48.33-183.65-84.22s-109.94-78.81-157.59-126.66-90.36-100.6-128-156.66c-75.29-112.27-130.61-237.36-167.31-367.32a1464,1464,0,0,1-40.76-198.37,1522.41,1522.41,0,0,1,.1-404.14,1464.54,1464.54,0,0,1,40.87-198.32c36.77-129.93,92.18-255,167.5-367.12,37.67-56,80.34-108.73,128-156.52s100.37-90.61,157.56-126.48,118.93-64.43,183.53-84a689.23,689.23,0,0,1,399,.14c64.57,19.56,126.28,48.24,183.41,84.08s109.79,78.75,157.38,126.55a1053.55,1053.55,0,0,1,127.83,156.55c75.2,112.16,130.51,237.13,167.14,367a1475.79,1475.79,0,0,1,40.65,198.22A1556.36,1556.36,0,0,1,2844.07,1792.78Zm-14.51,0a1542.44,1542.44,0,0,0-12.77-200.1,1461.33,1461.33,0,0,0-39.53-196.56c-35.45-128.9-89-253.32-162.62-365.16a1044.78,1044.78,0,0,0-125.45-156.32c-46.83-47.76-98.62-90.85-155.13-126.77s-117.58-64.65-181.62-84.2a675.25,675.25,0,0,0-395.73.14c-64,19.59-125,48.5-181.5,84.32S1467,827.19,1420.25,875A1044.23,1044.23,0,0,0,1295,1031.32c-73.53,111.83-127,236.2-162.26,365s-52.23,262.75-52.2,396.41,17.16,267.4,52.42,396.36c35.38,128.8,88.87,253.11,162.44,364.84a1043.79,1043.79,0,0,0,125.26,156.21c46.77,47.72,98.47,90.8,154.92,126.65S1693,2901.33,1757,2920.91a671.14,671.14,0,0,0,395.21.14c64-19.53,125-48.24,181.51-84s108.26-78.88,155.09-126.58a1044.47,1044.47,0,0,0,125.46-156.18c73.7-111.75,127.28-236.1,162.81-365a1463.42,1463.42,0,0,0,39.64-196.51A1542.16,1542.16,0,0,0,2829.56,1792.78Z"/>
            <path class="cls-28" d="M914.63,1331.85l267.63-1.76,267.63-1,535.26-.81,535.25.89,267.63,1.09,267.63,1.9a.65.65,0,0,1,0,1.29l-267.63,1.9-267.63,1.09-535.25.89-535.26-.81-267.63-1-267.63-1.75a1,1,0,0,1,0-1.91Z"/>
            <path class="cls-28" d="M1225.12,883.59l190-1.76,190-1c63.34-.42,126.67-.37,190-.51l190-.29,380,.89,190,1.09,190,1.9a.62.62,0,0,1,.63.64.64.64,0,0,1-.63.64l-190,1.9-190,1.09-380,.89-190-.3c-63.34-.13-126.67-.08-190-.51l-190-1-190-1.77a1,1,0,0,1-.95-1A1,1,0,0,1,1225.12,883.59Z"/>
            <path class="cls-28" d="M821.63,1780.1l290.88-1.75,290.88-1,581.76-.8,581.76.89,290.88,1.09,290.88,1.9a.64.64,0,0,1,0,1.28l-290.88,1.9-290.88,1.09-581.76.89-581.76-.81-290.88-1L821.63,1782a1,1,0,0,1-1-1A1,1,0,0,1,821.63,1780.1Z"/>
            <path class="cls-28" d="M914.63,2228.36l267.63-1.76,267.63-1,535.26-.81,535.25.89,267.63,1.09,267.63,1.9a.65.65,0,0,1,.64.65.64.64,0,0,1-.64.63L2788,2231.86,2520.4,2233l-535.25.88-535.26-.8-267.63-1-267.63-1.75a1,1,0,0,1-.94-1A.94.94,0,0,1,914.63,2228.36Z"/>
            <path class="cls-28" d="M2783.48,2680.91H1263.41a3.35,3.35,0,0,1,0-6.69H2783.48a3.35,3.35,0,0,1,0,6.69Z"/>
          </g>
        </g>
        <g>
          <path class="cls-29" d="M599,3161.76s-10.57,16.65-13.22,63.27a7.59,7.59,0,0,0,7.54,8h82.62a4.87,4.87,0,0,0,4.63-6.41c-4.84-14.33-19.48-49.27-52.14-69.23Z"/>
          <path class="cls-30" d="M595.39,3130.17l4.67,39.18a7.37,7.37,0,0,0,6.43,6.48,65.09,65.09,0,0,0,17.48-.17,12.09,12.09,0,0,0,10-12v-37.84Z"/>
          <path class="cls-31" d="M803.4,3157.44s-15.81,24.58-15.48,58.32A14.6,14.6,0,0,0,802.6,3230H930.93a6.15,6.15,0,0,0,3.53-11.18c-24.29-17.05-72-48.9-106.53-61.42Z"/>
          <path class="cls-32" d="M790.18,3115.12l10,48.4a10,10,0,0,0,11.8,7.84,36.2,36.2,0,0,0,11.29-4.71,11.46,11.46,0,0,0,5.11-11.7L818,3096.33Z"/>
          <path class="cls-33" d="M613.7,2442.28s-34.66,30.56-41.18,67.32S591,3143.86,591,3143.86s34.65,5.76,52.52-5.06c0,0,21.19-387.77,37.29-477.38,0,0,84.47,401.68,107.87,474.26,0,0,33.39,4.06,44.16-2.29,0,0-14.85-582.54-42.66-675.11Z"/>
          <path class="cls-34" d="M679.8,2648.82a3.77,3.77,0,0,1-3.64-2.81L661.81,2591l-30.56-19.61a3.76,3.76,0,1,1,4.06-6.33l31.81,20.4a3.73,3.73,0,0,1,1.6,2.22l14.72,56.47a3.76,3.76,0,0,1-2.69,4.59A3.87,3.87,0,0,1,679.8,2648.82Z"/>
          <path class="cls-35" d="M883.49,2035.24C737.78,2049.48,705.68,2086,705.68,2086l88.82,96.32s140.53-28.49,227.39-124.79c-22.62-16.93-39.86-37-51.48-53A193.23,193.23,0,0,1,883.49,2035.24Z"/>
          <path class="cls-36" d="M1069.86,1783.59a4.47,4.47,0,0,0-8.69-.16L1050,1825.85a41.42,41.42,0,0,0,1.17,24.82l10.57,21.58a39.92,39.92,0,0,1-2.32,32.71c-13,24.1-41.83,69.06-89,99.56,11.62,16,28.86,36.1,51.48,53,31.87-35.34,56.53-79.8,64.36-135.34a19.52,19.52,0,0,0,10.07-21.56Z"/>
          <path class="cls-37" d="M781.92,1923.55,758,2036.43s55.7,25.21,94.89,14.7l4.27-98.35Z"/>
          <g>
            <path class="cls-38" d="M841.57,1838.7c1.24,1.21,51.25,104.65,51.25,104.65l-59.67,27.29-62-91S820.81,1818.32,841.57,1838.7Z"/>
            <path class="cls-39" d="M797.49,1890.4l28.87,50.45a7.9,7.9,0,0,0,1.34,1.75c3.26,3.2,15.25,13.39,24.93.48,8.78-11.71,17-22.27,25.71-25.51a8.1,8.1,0,0,1,10.13,4.07c4.54,9.4,14.38,30.77,20.1,50.64a8.1,8.1,0,0,1-4.91,9.77c-11.8,4.55-36.95,13.44-58.85,15.86a8.12,8.12,0,0,1-7.58-3.41c-8.33-11.94-33.8-48.13-42.46-57.12-8.12-8.43-23.7-5.32-30.15-3.54a8,8,0,0,1-6.23-.85c-6.65-4-19.91-14.83-7.35-33a8.14,8.14,0,0,0-2.29-11.48c-7.72-5-16.77-14.7-8.27-30.34,8.63-15.9,23.77-16.38,33.4-14.73a8.11,8.11,0,0,0,9-5.3c.79-2.11,2.49-3.91,6-4.24a8,8,0,0,0,6.92-9.59c-1.78-8.85-.64-20.65,13.89-28.25,25.77-13.49,47.63,9.81,52.91,29.2S839,1857.7,821.06,1859.6c-13.66,1.45-21.24,16.64-24.09,23.83A8.09,8.09,0,0,0,797.49,1890.4Z"/>
            <path class="cls-40" d="M805.47,1955.65s-10.65-33.4-25.19-32.48-26.25,15.13-8.6,31.75C793.63,1975.59,805.47,1955.65,805.47,1955.65Z"/>
          </g>
          <path class="cls-41" d="M942.24,2089.76c-60.45-45.24-161.18-52.3-218.75-52.25a52,52,0,0,0-51.22,42.83c-12.79,72-49,259.78-56.76,292.33-6.33,26.71-13.26,52.92-17.7,69.33a18.43,18.43,0,0,0,12.86,22.62c51,14.05,140,24.24,176,28a11.92,11.92,0,0,0,12.95-14,37.29,37.29,0,0,1,1.79-19.82l90.19-239.45c97.05,74.8,169.24,70.1,220,40.61a415.81,415.81,0,0,1-33.43-81.55C995.45,2179.24,942.24,2089.76,942.24,2089.76Z"/>
          <path class="cls-42" d="M1208.07,2139.17l-18-16.66c-41,40.73-78.8,55.51-111.88,55.86a415.81,415.81,0,0,0,33.43,81.55C1178.47,2221.07,1208.07,2139.17,1208.07,2139.17Z"/>
          <path class="cls-43" d="M1197.92,2141.38l82.16-11.68,67.47-55.64c-12-4.79-70.47,20.13-70.47,20.13s-65.49,2-82.74,5.1c-14.33,2.59-8.53,22.82-6.15,29.6.48,1.38.82,2.21.82,2.21Z"/>
          <path class="cls-44" d="M1762.93,1743.7c-24.18,23.09-63.94,45.71-124.54,39.59-115.2-11.64-127.53-118.58-115-174.49,10.6-47.18,109.25-118.87,195.68-74.66,18.34,9.38,39-6.67,35.41-27.82L1711,1252.67l-278.43,55.94c-24.23,4.87-44.81-19-38-44.39a307.2,307.2,0,0,0,8.85-108.32c-9.35-101.23-98.58-131-178.25-108.78-68.63,19.14-136,145.83-41.22,247.31,18.54,19.86,8.49,54.16-17.17,59.33l-234.27,47.15L984,1701c56.13-107.06,166.7-102.87,224.52-16.57,58,86.64,38.56,178.91-54.72,203.83-47.72,12.75-83.25-.11-106.49-15.55-12.16-8.07-27,2.67-24.45,17.76l41.58,242.19L1296,2094.2c25.68-4.27,46.42,25.19,34.11,49.43-10.68,21-17.67,46.41-14.12,75,10.26,82.59,81.1,151.7,159.6,148.18,79.07-3.54,147.64-94.94,122.33-172-12-36.51-32.19-69.75-50.1-94.58-14.93-20.71-4.17-50.14,19.77-54.12l277.92-46.17L1804,1758.76C1800.57,1738.52,1777.3,1730,1762.93,1743.7Z"/>
          <g class="cls-45">
            <path class="cls-46" d="M991.28,981c-28.19,45.25-49.92,96.19-45.84,149.34,4.73,61.55,35.88,119.18,37.47,180.89,2.71,104.65-78.07,192.25-103.27,293.85-28.17,113.57,78,243,120.34,306.36s24.13-51.43,49.79-96.21,81,188.4,167.4,239.57c46.37,27.46,100.77,45.74,134.11,88.06,48.64,61.74,35.17,149.59,27.86,227.84s3.64,173.62,74.11,208.41c41.5,20.48,94.25,13.55,131.69,40.74,65.77,47.75,34.35,151.85,60.41,228.82,28.34,83.72,84.53,84.82,171.47,102.57s-11-173.26,29.77-240c21.41-35.08,54.09-63,71-100.48,23.42-52,16.82-121.4,62.24-155.84,34-25.81,81.43-18.83,124.16-19.21s94.69-18.91,99.53-61.36c4.3-37.67-33.4-67.71-70.3-76.43s-76.2-4.57-112.43-15.73c-103.64-31.91-152-176.93-260.2-183.72-92.51-5.8-170,98-260.89,79.91-50.68-10.11-85.36-55-123-90.42-48.32-45.52-108.29-79.68-146.65-133.85s-44.9-140.76,9.68-178.55c40.54-28.07,98.15-16.67,138.2,12.09s67.33,71.44,96.74,111c9.09,12.22,19.37,24.89,33.9,29.44,39.12,12.24,67.65-42.78,58.3-82.68s-37.55-75-38.87-116c-2.34-72.19,75.4-118,143.6-141.79s148.58-52.14,168.63-121.53c7.08-24.51,5.23-51.48,16-74.59,35.82-76.59,224.84-114.83,179.65-159.24s-188.58-54.06-216.51-143.5c-10-32-20.29-74.34-53.69-77.44-54.41-5-85.45,62.3-131.08,73.86-21.67,5.49-23.75,42.28-22.91,87.53a59.49,59.49,0,0,1-119,2.25,91.82,91.82,0,0,1,6.91-36.8c8.79-21.54,25.47-38.76,42.3-54.82,70.18-67,279.62-140.65,235.77-169.18S1523.4,807,1492,850.42s20.53,6.66,33.2,58.19-155.71,44.61-233.57,66.92c-12.85,3.69-27.11,7.27-39.15,1.45-13.45-6.52-19.11-22.17-26.41-35.22-39.11-69.85-169.16-24.51-169.16-24.51S1016.46,940.58,991.28,981Z"/>
          </g>
        </g>
        <g>
          <path class="cls-47" d="M2566.24,1726.81s-156.18,200,22,403.35l67-6.24s-129-207.07-71.52-372.14l94.9,6.93,52.47-34.21Z"/>
          <path class="cls-48" d="M2834.9,1426.51c-20.09,12.39-44.69,24.06-72.85,30.67-155.86,36.63-146.49-163.43-70.2-248.93,39-43.74,88.85-33.88,128.46-13.56,29.12,14.94,63.65-7.72,61.68-41L2865.8,880.17l-255.44,22.36c-28.6,2.51-44.55,35.08-29.92,60,16.86,28.73,33.07,68.13,35.9,116.07,6.27,105.83-130.62,141.52-174.73,148.25-39.86,6.08-202.89-56.74-115.3-241,12.73-26.77-6.89-57.23-35.29-54.74l-282.37,24.71,16,270.89c1.34,22.59-22.23,37-40.36,25-85.41-56.43-197.16,7.18-213.77,55.38-19.69,57.13-19.26,170.64,100.1,196.28,62.79,13.49,107.1-5.57,135.14-26.94,16.66-12.69,40-1,41.32,20.58l15.24,257.56,291.32-15.65c28.92-1.55,44-36.14,26-59.84-25.72-33.9-54.56-75.07-62.86-99.23-15.9-46.24,4.62-144.45,113.64-166.87,110-22.63,195,48.39,196.49,149.1a325.17,325.17,0,0,1-17.66,111.1c-8.73,25.17,11.06,51.41,37.18,50l267-14.35-14.72-248.75C2896.79,1427.93,2862,1409.8,2834.9,1426.51Z"/>
          <g>
            <path class="cls-49" d="M2651.79,2705.86s126.54,275.81,192.93,390c0,0,13.19,71.89,0,94.49l-11.23,5,52.44-1.56s4.66-96.68,1-102.09-10.91-5-10.91-5-22.49-178.18-87.62-216.2l-63.12-217.4Z"/>
            <path class="cls-50" d="M2811.09,3208.92c-.08,1.27,40.95.69,63.24.28a17.72,17.72,0,0,0,17-14l16.83-88.44a15.9,15.9,0,0,0-12.07-18.47l-9.4-2.15s-13.4,18.39-9.18,35.7,8,62.15-2.69,67.38-41.33,6.13-41.33,6.13S2811.79,3197.54,2811.09,3208.92Z"/>
            <path class="cls-51" d="M2531.84,3210.53a4.63,4.63,0,0,0,2.34,8.65c37.3-.37,120.89-1.55,128.31-4.64,9.59-4-3.49-38.45-17.26-50.11l-76,24.82Z"/>
            <path class="cls-52" d="M2508.24,2688.27S2590,3083.87,2613.15,3161l-54.72,34.34s27.42-4.66,47.76-6.13,39-24.82,39-24.82l-6.56-10.45s-20.5-393.45-15.51-438.13Z"/>
            <path class="cls-53" d="M2305.25,1765.52s-11.28,205.79,176.08,310.95l-45.11,102.87S2266.63,2076.77,2272.86,1797a32.66,32.66,0,0,0-8-22l-36.05-41.83a64.69,64.69,0,0,1-13.76-58l4.74-19a9.83,9.83,0,0,1,14.48-6.12l3.77,2.19a66.19,66.19,0,0,1,27.18,30.2l17.7,39.58c4.3,9.6,5.69,12.9,10.56,13.64,6.54,1,12.65-3.59,14.15-10l1.25-5.39C2324.78,1733.8,2324.08,1748.82,2305.25,1765.52Z"/>
            <path class="cls-54" d="M2474.8,2061.05c31.35,8.69,137.54,36.62,203.83,35.48l-40.7,229.7,3.24,37.46-132.71-.6s-37.36-86.76-66.83-130c-8.51-12.5-2.18-27.4,2.65-41.72l-6.63-4.42a18.06,18.06,0,0,1-7.16-20.63l32.32-98.87A9.86,9.86,0,0,1,2474.8,2061.05Z"/>
            <path class="cls-55" d="M2497.83,2343.49l2.61,22.7s-37.5,112.31,18.75,374.63c0,0,121.84,34.52,222-48.07,0,0-28.24-247.6-36-259.13-38.43-57.44-64-69.93-64-69.93l-1.15-24.8S2532.91,2358.26,2497.83,2343.49Z"/>
            <path class="cls-56" d="M2549.78,2079.56c-.47-.62,27.7-85.06,27.7-85.06l40.36,3.67L2633.6,2094S2570.36,2106.72,2549.78,2079.56Z"/>
            <path class="cls-57" d="M2608.17,1861.34c-2.69,1.68-86.22,36.2-68.28,122.93a16.29,16.29,0,0,0,9.26,11.6c12.26,5.47,38.65,14.83,70.22,11.62,43.76-4.44,72.44-80.81,71.22-103S2634.84,1844.74,2608.17,1861.34Z"/>
            <path class="cls-58" d="M2633.6,1827.63c-2.2.28-48.28,16.33-25.43,49.72s31.43,53.05,20.62,67.71c-9.85,13.36-31.66,5.75-29.76,33.54a15.59,15.59,0,0,1-6.64,14.09c-20.55,13.91-70.7,56.74-21,117.82a15.55,15.55,0,0,1,1.76,17.4c-14.56,26.11-45.12,102.57,65.54,145,109.36,41.91,148.84-29.57,159.87-58.15a15.27,15.27,0,0,1,15.09-9.65c12,.57,29-1.43,28.26-17.49-.47-9.75-6.56-18.49-13.75-25.5s-5.71-19.08,2.93-24c6.53-3.71,12.3-9.5,14.74-18.53,6.63-24.56-6.6-98-77-110.43-5.88-1-12-6.55-12.88-12.45,0-.08,0-.17,0-.26a15.23,15.23,0,0,1,5.65-15c11.24-8.25,25.65-24.84,14-51.46-10.39-23.61-30.3-31.57-45.09-34.11a15.33,15.33,0,0,1-12.56-18.32C2722.85,1854.11,2718.5,1816.5,2633.6,1827.63Z"/>
          </g>
          <g>
            <path class="cls-2" d="M2834.9,1424.25c-20.09,12.38-44.69,24-72.85,30.67-155.86,36.62-146.49-163.44-70.2-248.94,39-43.73,88.85-33.87,128.46-13.56,29.12,14.94,63.65-7.72,61.68-41L2865.8,877.9l-255.44,22.37c-28.6,2.5-44.55,35.08-29.92,60,16.86,28.72,33.07,68.12,35.9,116.06,6.27,105.83-130.62,141.52-174.73,148.25-39.86,6.08-202.89-56.74-115.3-241,12.73-26.77-6.89-57.22-35.29-54.74l-282.37,24.72,16,270.88c1.34,22.59-22.23,37-40.36,25-85.41-56.42-197.16,7.18-213.77,55.39-19.69,57.12-19.26,170.63,100.1,196.27,62.79,13.49,107.1-5.57,135.14-26.94,16.66-12.69,40-1,41.32,20.58l15.24,257.57,291.32-15.66c28.92-1.55,44-36.14,26-59.84-25.72-33.9-54.56-75.06-62.86-99.23-15.9-46.24,4.62-144.45,113.64-166.87,110-22.63,195,48.39,196.49,149.11a325.21,325.21,0,0,1-17.66,111.1c-8.73,25.16,11.06,51.41,37.18,50l267-14.34-14.72-248.75C2896.79,1425.67,2862,1407.53,2834.9,1424.25Z"/>
            <g class="cls-59">
              <path class="cls-60" d="M991.28,981c-28.19,45.25-49.92,96.19-45.84,149.34,4.73,61.55,35.88,119.18,37.47,180.89,2.71,104.65-78.07,192.25-103.27,293.85-28.17,113.57,78,243,120.34,306.36s24.13-51.43,49.79-96.21,81,188.4,167.4,239.57c46.37,27.46,100.77,45.74,134.11,88.06,48.64,61.74,35.17,149.59,27.86,227.84s3.64,173.62,74.11,208.41c41.5,20.48,94.25,13.55,131.69,40.74,65.77,47.75,34.35,151.85,60.41,228.82,28.34,83.72,84.53,84.82,171.47,102.57s-11-173.26,29.77-240c21.41-35.08,54.09-63,71-100.48,23.42-52,16.82-121.4,62.24-155.84,34-25.81,81.43-18.83,124.16-19.21s94.69-18.91,99.53-61.36c4.3-37.67-33.4-67.71-70.3-76.43s-76.2-4.57-112.43-15.73c-103.64-31.91-152-176.93-260.2-183.72-92.51-5.8-170,98-260.89,79.91-50.68-10.11-85.36-55-123-90.42-48.32-45.52-108.29-79.68-146.65-133.85s-44.9-140.76,9.68-178.55c40.54-28.07,98.15-16.67,138.2,12.09s67.33,71.44,96.74,111c9.09,12.22,19.37,24.89,33.9,29.44,39.12,12.24,67.65-42.78,58.3-82.68s-37.55-75-38.87-116c-2.34-72.19,75.4-118,143.6-141.79s148.58-52.14,168.63-121.53c7.08-24.51,5.23-51.48,16-74.59,35.82-76.59,224.84-114.83,179.65-159.24s-188.58-54.06-216.51-143.5c-10-32-20.29-74.34-53.69-77.44-54.41-5-85.45,62.3-131.08,73.86-21.67,5.49-23.75,42.28-22.91,87.53a59.49,59.49,0,0,1-119,2.25,91.82,91.82,0,0,1,6.91-36.8c8.79-21.54,25.47-38.76,42.3-54.82,70.18-67,279.62-140.65,235.77-169.18S1523.4,807,1492,850.42s20.53,6.66,33.2,58.19-155.71,44.61-233.57,66.92c-12.85,3.69-27.11,7.27-39.15,1.45-13.45-6.52-19.11-22.17-26.41-35.22-39.11-69.85-169.16-24.51-169.16-24.51S1016.46,940.58,991.28,981Z"/>
              <path class="cls-61" d="M3127.09,2179.55a1169.65,1169.65,0,0,0-5.15-397.92c-6.51-35-21.77-76.63-57-81.67-40.72-5.82-90.57,41-116.06,8.68-11.25-14.25-6.76-35-.39-52a344.55,344.55,0,0,1,76.71-120.23c20.86-21.21,44.72-40,60.78-65,34.36-53.56,10.24-131.81-38.38-172.85s-111.35,32.56-162.46,3.35-52.7-100.08-62.3-158.16c-7.12-43-38.82-159.58-73.83-102.81s46.71,282.73,138.68,391c11.1,13.07,23.35,27.7,22.41,44.82-2.24,40.87-61.79,39-101.86,47.41-49.59,10.36-125.6-16.2-83.66,70.22,22.13,45.58,127.81,108,99.41,138.46s-115.69,118.86-156.66,190.31-60.81,160.42-29.92,236.77S2761.21,2289,2837,2256.83c35.49-15,74.17-46.35,107.15-26.4,29.87,18.06,25.47,61.41,24,96.28s18.62,81.18,52.56,73c11.16-2.69,19.94-11.16,27.48-19.82C3096,2325,3115.62,2251.37,3127.09,2179.55Z"/>
            </g>
          </g>
        </g>
      </g>
    </g>
  </g>
</svg>
