<svg xmlns="http://www.w3.org/2000/svg" xmlns:xlink="http://www.w3.org/1999/xlink" width="3710" height="3710" viewBox="0 0 3710 3710">
  <defs>
    <style>
      .cls-1 {
        isolation: isolate;
      }

      .cls-2 {
        fill: none;
      }

      .cls-3 {
        opacity: 0.3;
        fill: url(#linear-gradient);
      }

      .cls-4 {
        fill: url(#linear-gradient-2);
      }

      .cls-16, .cls-35, .cls-5, .cls-8 {
        fill: #fff;
      }

      .cls-10, .cls-5 {
        opacity: 0.6;
      }

      .cls-6 {
        fill: url(#linear-gradient-3);
      }

      .cls-7 {
        fill: url(#linear-gradient-4);
      }

      .cls-9 {
        fill: url(#linear-gradient-5);
      }

      .cls-11 {
        fill: url(#linear-gradient-6);
      }

      .cls-12 {
        fill: url(#linear-gradient-7);
      }

      .cls-13 {
        fill: url(#linear-gradient-8);
      }

      .cls-14 {
        fill: url(#linear-gradient-9);
      }

      .cls-15 {
        fill: url(#linear-gradient-10);
      }

      .cls-16 {
        opacity: 0.2;
        mix-blend-mode: soft-light;
      }

      .cls-17, .cls-18, .cls-19, .cls-21, .cls-22, .cls-23, .cls-25, .cls-26, .cls-27, .cls-28, .cls-29, .cls-30 {
        opacity: 0.63;
      }

      .cls-17 {
        fill: url(#linear-gradient-11);
      }

      .cls-18 {
        fill: url(#linear-gradient-12);
      }

      .cls-19 {
        fill: url(#linear-gradient-13);
      }

      .cls-20 {
        fill: url(#linear-gradient-14);
      }

      .cls-21 {
        fill: url(#linear-gradient-15);
      }

      .cls-22 {
        fill: url(#linear-gradient-16);
      }

      .cls-23 {
        fill: url(#linear-gradient-17);
      }

      .cls-24 {
        fill: url(#linear-gradient-18);
      }

      .cls-25 {
        fill: url(#linear-gradient-19);
      }

      .cls-26 {
        fill: url(#linear-gradient-20);
      }

      .cls-27 {
        fill: url(#linear-gradient-21);
      }

      .cls-28 {
        fill: url(#linear-gradient-22);
      }

      .cls-29 {
        fill: url(#linear-gradient-23);
      }

      .cls-30 {
        fill: url(#linear-gradient-24);
      }

      .cls-31 {
        fill: url(#linear-gradient-25);
      }

      .cls-32 {
        opacity: 0.7;
      }

      .cls-33 {
        fill: url(#linear-gradient-26);
      }

      .cls-34 {
        fill: url(#linear-gradient-27);
      }

      .cls-35 {
        opacity: 0.78;
      }

      .cls-36 {
        fill: url(#linear-gradient-28);
      }

      .cls-37 {
        fill: url(#linear-gradient-29);
      }

      .cls-38 {
        fill: url(#linear-gradient-30);
      }

      .cls-39 {
        fill: url(#linear-gradient-31);
      }

      .cls-40 {
        fill: url(#linear-gradient-32);
      }

      .cls-41 {
        fill: url(#linear-gradient-33);
      }

      .cls-42 {
        fill: url(#linear-gradient-34);
      }

      .cls-43 {
        fill: url(#linear-gradient-35);
      }

      .cls-44 {
        fill: url(#linear-gradient-36);
      }

      .cls-45 {
        fill: url(#linear-gradient-37);
      }

      .cls-46 {
        fill: url(#linear-gradient-38);
      }

      .cls-47 {
        fill: url(#linear-gradient-39);
      }

      .cls-48 {
        fill: url(#linear-gradient-40);
      }

      .cls-49 {
        fill: url(#linear-gradient-41);
      }

      .cls-50 {
        fill: url(#linear-gradient-42);
      }

      .cls-51 {
        fill: url(#linear-gradient-43);
      }

      .cls-52 {
        fill: url(#linear-gradient-44);
      }

      .cls-53 {
        fill: url(#linear-gradient-45);
      }

      .cls-54 {
        fill: url(#linear-gradient-46);
      }

      .cls-55 {
        fill: url(#linear-gradient-47);
      }

      .cls-56 {
        fill: url(#linear-gradient-48);
      }

      .cls-57 {
        fill: url(#linear-gradient-49);
      }

      .cls-58 {
        fill: url(#linear-gradient-50);
      }

      .cls-59 {
        fill: url(#linear-gradient-51);
      }

      .cls-60 {
        fill: url(#linear-gradient-52);
      }

      .cls-61 {
        fill: url(#linear-gradient-53);
      }

      .cls-62 {
        fill: url(#linear-gradient-54);
      }

      .cls-63 {
        fill: url(#linear-gradient-55);
      }

      .cls-64 {
        fill: url(#linear-gradient-56);
      }

      .cls-65 {
        fill: url(#linear-gradient-57);
      }
    </style>
    <linearGradient id="linear-gradient" x1="3332.26" y1="3563.45" x2="1353.32" y2="1427.45" gradientUnits="userSpaceOnUse">
      <stop offset="0" stop-color="#b37cff"/>
      <stop offset="1" stop-color="#f895e7"/>
    </linearGradient>
    <linearGradient id="linear-gradient-2" x1="-4480.57" y1="-485.36" x2="-4209.52" y2="1482.27" gradientTransform="matrix(-0.98, -0.18, -0.18, 0.98, -1236.87, 184.5)" gradientUnits="userSpaceOnUse">
      <stop offset="0" stop-color="#cb236d"/>
      <stop offset="1" stop-color="#4c246d"/>
    </linearGradient>
    <linearGradient id="linear-gradient-3" x1="-4551.7" y1="-476.28" x2="-4441.28" y2="1943.1" gradientTransform="matrix(-0.98, -0.18, -0.18, 0.98, -1236.87, 184.5)" gradientUnits="userSpaceOnUse">
      <stop offset="0" stop-color="#a737d5"/>
      <stop offset="1" stop-color="#ef497a"/>
    </linearGradient>
    <linearGradient id="linear-gradient-4" x1="764.04" y1="3307.13" x2="2674.68" y2="874.48" gradientUnits="userSpaceOnUse">
      <stop offset="0" stop-color="#2b3582"/>
      <stop offset="1" stop-color="#150e42"/>
    </linearGradient>
    <linearGradient id="linear-gradient-5" x1="182.6" y1="6560.35" x2="1875.76" y2="4062.34" gradientTransform="matrix(1, 0.02, -0.02, 1, 578.5, -3000.91)" xlink:href="#linear-gradient-3"/>
    <linearGradient id="linear-gradient-6" x1="1973.96" y1="249.41" x2="1305.77" y2="1128.4" gradientTransform="translate(83.01 -24.15) rotate(1.49)" xlink:href="#linear-gradient-4"/>
    <linearGradient id="linear-gradient-7" x1="1597.06" y1="3305.48" x2="929.33" y2="4183.87" gradientTransform="matrix(1, 0.02, -0.02, 1, 578.5, -3000.91)" xlink:href="#linear-gradient-4"/>
    <linearGradient id="linear-gradient-8" x1="1512.91" y1="3359.22" x2="1051.86" y2="4205.81" gradientTransform="matrix(1, 0.02, -0.02, 1, 578.5, -3000.91)" xlink:href="#linear-gradient-4"/>
    <linearGradient id="linear-gradient-9" x1="1848.3" y1="1599.87" x2="2892.31" y2="3292.59" gradientUnits="userSpaceOnUse">
      <stop offset="0" stop-color="#53d8ff"/>
      <stop offset="1" stop-color="#3840f7"/>
    </linearGradient>
    <linearGradient id="linear-gradient-10" x1="2387.96" y1="2471.87" x2="2493" y2="2036.5" xlink:href="#linear-gradient-4"/>
    <linearGradient id="linear-gradient-11" x1="2002.08" y1="2489.86" x2="2184.54" y2="2489.86" xlink:href="#linear-gradient-4"/>
    <linearGradient id="linear-gradient-12" x1="2258.87" y1="2489.86" x2="2441.33" y2="2489.86" xlink:href="#linear-gradient-4"/>
    <linearGradient id="linear-gradient-13" x1="2505.53" y1="2489.86" x2="2687.99" y2="2489.86" xlink:href="#linear-gradient-4"/>
    <linearGradient id="linear-gradient-14" x1="2901.41" y1="2430.31" x2="2494.7" y2="2909.87" gradientTransform="matrix(1, 0, 0, 1, 0, 0)" xlink:href="#linear-gradient-2"/>
    <linearGradient id="linear-gradient-15" x1="2002.08" y1="2668.94" x2="2184.54" y2="2668.94" xlink:href="#linear-gradient-4"/>
    <linearGradient id="linear-gradient-16" x1="2258.87" y1="2668.94" x2="2441.33" y2="2668.94" xlink:href="#linear-gradient-4"/>
    <linearGradient id="linear-gradient-17" x1="2505.53" y1="2668.94" x2="2687.99" y2="2668.94" xlink:href="#linear-gradient-4"/>
    <linearGradient id="linear-gradient-18" x1="2758.94" y1="2668.94" x2="2941.4" y2="2668.94" xlink:href="#linear-gradient-4"/>
    <linearGradient id="linear-gradient-19" x1="2002.08" y1="2834.5" x2="2184.54" y2="2834.5" xlink:href="#linear-gradient-4"/>
    <linearGradient id="linear-gradient-20" x1="2258.87" y1="2834.5" x2="2441.33" y2="2834.5" xlink:href="#linear-gradient-4"/>
    <linearGradient id="linear-gradient-21" x1="2505.53" y1="2834.5" x2="2687.99" y2="2834.5" xlink:href="#linear-gradient-4"/>
    <linearGradient id="linear-gradient-22" x1="2002.08" y1="3006.83" x2="2184.54" y2="3006.83" xlink:href="#linear-gradient-4"/>
    <linearGradient id="linear-gradient-23" x1="2258.87" y1="3006.83" x2="2441.33" y2="3006.83" xlink:href="#linear-gradient-4"/>
    <linearGradient id="linear-gradient-24" x1="2505.53" y1="3006.83" x2="2687.99" y2="3006.83" xlink:href="#linear-gradient-4"/>
    <linearGradient id="linear-gradient-25" x1="2769.08" y1="2924.04" x2="2917.75" y2="2924.04" xlink:href="#linear-gradient-4"/>
    <linearGradient id="linear-gradient-26" x1="1559.13" y1="1464.44" x2="1721.25" y2="1276.26" gradientTransform="translate(1404.87 -846.73) rotate(45)" gradientUnits="userSpaceOnUse">
      <stop offset="0" stop-color="#fdf53f"/>
      <stop offset="1" stop-color="#d93c65"/>
    </linearGradient>
    <linearGradient id="linear-gradient-27" x1="1812.86" y1="1139.01" x2="1333.46" y2="1863.26" xlink:href="#linear-gradient-26"/>
    <linearGradient id="linear-gradient-28" x1="1798.56" y1="1159.76" x2="1543.29" y2="1588.33" gradientTransform="matrix(1, 0, 0, 1, 0, 0)" xlink:href="#linear-gradient-26"/>
    <linearGradient id="linear-gradient-29" x1="1780.65" y1="1463.33" x2="2062.88" y2="1135.74" gradientTransform="translate(1404.29 -1132) rotate(45)" xlink:href="#linear-gradient-26"/>
    <linearGradient id="linear-gradient-30" x1="2222.36" y1="896.81" x2="1387.8" y2="2157.6" gradientTransform="translate(1404.29 -1132) rotate(45)" xlink:href="#linear-gradient-26"/>
    <linearGradient id="linear-gradient-31" x1="2197.46" y1="932.94" x2="1753.08" y2="1678.99" gradientTransform="matrix(1, 0, 0, 1, 0, 0)" xlink:href="#linear-gradient-26"/>
    <linearGradient id="linear-gradient-32" x1="1917.42" y1="1942.99" x2="2207.83" y2="1605.9" gradientTransform="translate(1779.11 -1096.96) rotate(45)" xlink:href="#linear-gradient-26"/>
    <linearGradient id="linear-gradient-33" x1="2371.93" y1="1360.05" x2="1513.18" y2="2657.38" gradientTransform="translate(1779.11 -1096.96) rotate(45)" xlink:href="#linear-gradient-26"/>
    <linearGradient id="linear-gradient-34" x1="2346.31" y1="1397.22" x2="1889.05" y2="2164.9" gradientTransform="matrix(1, 0, 0, 1, 0, 0)" xlink:href="#linear-gradient-26"/>
    <linearGradient id="linear-gradient-35" x1="2274.37" y1="1556.13" x2="2487.16" y2="1309.15" gradientTransform="translate(3437.44 -1344.1) rotate(82.03)" xlink:href="#linear-gradient-26"/>
    <linearGradient id="linear-gradient-36" x1="2607.39" y1="1129.01" x2="1978.19" y2="2079.56" gradientTransform="translate(3033.72 -1455.21) rotate(73.49)" xlink:href="#linear-gradient-26"/>
    <linearGradient id="linear-gradient-37" x1="2588.62" y1="1156.25" x2="2253.58" y2="1718.72" gradientTransform="matrix(1, 0, 0, 1, 0, 0)" xlink:href="#linear-gradient-26"/>
    <linearGradient id="linear-gradient-38" x1="9997.47" y1="3105.05" x2="9408.54" y2="3745.65" gradientTransform="translate(-8938.51)" xlink:href="#linear-gradient-4"/>
    <linearGradient id="linear-gradient-39" x1="9806.31" y1="3152.63" x2="9858.62" y2="3152.63" gradientTransform="translate(-8938.51)" gradientUnits="userSpaceOnUse">
      <stop offset="0" stop-color="#f9b776"/>
      <stop offset="1" stop-color="#f47960"/>
    </linearGradient>
    <linearGradient id="linear-gradient-40" x1="1617.41" y1="2049.36" x2="806.48" y2="2772.43" gradientTransform="matrix(1, 0, 0, 1, 0, 0)" xlink:href="#linear-gradient-2"/>
    <linearGradient id="linear-gradient-41" x1="9865.35" y1="2983.59" x2="9276.42" y2="3624.19" gradientTransform="translate(-8938.51)" xlink:href="#linear-gradient-4"/>
    <linearGradient id="linear-gradient-42" x1="9617.78" y1="3149.95" x2="9662.95" y2="3149.95" xlink:href="#linear-gradient-39"/>
    <linearGradient id="linear-gradient-43" x1="1558.28" y1="1983.05" x2="747.36" y2="2706.13" gradientTransform="matrix(1, 0, 0, 1, 0, 0)" xlink:href="#linear-gradient-2"/>
    <linearGradient id="linear-gradient-44" x1="958.98" y1="1795.32" x2="472.45" y2="2712.64" xlink:href="#linear-gradient-9"/>
    <linearGradient id="linear-gradient-45" x1="-5272.34" y1="1476.49" x2="-5180.04" y2="1740.2" gradientTransform="matrix(-1, 0, 0, 1, -3963.23, 0)" xlink:href="#linear-gradient-39"/>
    <linearGradient id="linear-gradient-46" x1="1690.69" y1="1486.84" x2="1285.22" y2="1598.35" gradientTransform="matrix(1, 0, 0, 1, 0, 0)" xlink:href="#linear-gradient-39"/>
    <linearGradient id="linear-gradient-47" x1="-5280.32" y1="1672.58" x2="-5349.85" y2="1532.34" gradientTransform="matrix(-1, 0, 0, 1, -3963.23, 0)" xlink:href="#linear-gradient-39"/>
    <linearGradient id="linear-gradient-48" x1="781.59" y1="1701.24" x2="295.06" y2="2618.55" xlink:href="#linear-gradient-9"/>
    <linearGradient id="linear-gradient-49" x1="9436.77" y1="2166.43" x2="9774.98" y2="2166.43" xlink:href="#linear-gradient-39"/>
    <linearGradient id="linear-gradient-50" x1="9877.3" y1="1925.97" x2="10063.27" y2="2700.85" gradientTransform="translate(-8938.51)" xlink:href="#linear-gradient-3"/>
    <linearGradient id="linear-gradient-51" x1="9993.74" y1="1803.83" x2="9954.13" y2="1977.75" gradientTransform="translate(-8938.51)" xlink:href="#linear-gradient-3"/>
    <linearGradient id="linear-gradient-52" x1="1083.61" y1="1900.34" x2="1009.28" y2="1972.42" gradientTransform="matrix(1, 0, 0, 1, 0, 0)" xlink:href="#linear-gradient-3"/>
    <linearGradient id="linear-gradient-53" x1="9749.87" y1="2130.97" x2="9855.24" y2="2130.97" xlink:href="#linear-gradient-39"/>
    <linearGradient id="linear-gradient-54" x1="9696.47" y1="1804.86" x2="9830.19" y2="1804.86" xlink:href="#linear-gradient-39"/>
    <linearGradient id="linear-gradient-55" x1="-1592.46" y1="3039.25" x2="-1761.33" y2="3262.66" gradientTransform="matrix(0.9, -0.44, 0.44, 0.9, 972.55, -1794.44)" xlink:href="#linear-gradient-39"/>
    <linearGradient id="linear-gradient-56" x1="928.9" y1="1596.24" x2="741.94" y2="1902.59" gradientTransform="matrix(1, 0, 0, 1, 0, 0)" xlink:href="#linear-gradient-2"/>
    <linearGradient id="linear-gradient-57" x1="-1839.79" y1="3216.17" x2="-1704.34" y2="3077.21" gradientTransform="matrix(0.9, -0.44, 0.44, 0.9, 972.55, -1794.44)" xlink:href="#linear-gradient-39"/>
  </defs>
  <title>produccion</title>
  <g class="cls-1">
    <g id="Background">
      <rect class="cls-2" width="3710" height="3710"/>
    </g>
    <g id="Illustration">
      <g>
        <path class="cls-3" d="M3063.62,2343.62C2790.08,2975.91,2068,3247.5,1502.28,3201.19c-154.47-12.64-465.27-38.08-707.94-265-466-435.84-394.27-1346.88,51.86-1883.24,57.46-69.08,455.14-531.86,1074.85-525.66,453.72,4.53,772.18,258,810.9,289.57,48.92,39.89,156.81,134.68,254.05,285.06C3214.48,1455.23,3234.56,1948.5,3063.62,2343.62Z"/>
        <g>
          <path class="cls-4" d="M2878.86,957.67c16.82-26.68,58.16-11.64,54,19.62-21.63,161.1-47.32,442.32,3.35,626.11,74.5,270.23,208.43,1065.13-546.91,1266.37C2389.27,2869.77,2461.21,1620.17,2878.86,957.67Z"/>
          <path class="cls-5" d="M2815.08,1291.65s-.7,1.51-1.85,4.39-2.85,7.28-4.8,13.06c-4,11.52-9,28.77-14,51a742.65,742.65,0,0,0-13.4,81,995.42,995.42,0,0,0-6.24,106.23c-.59,19.49.58,39.82.84,60.82.44,10.5,1.18,21.17,1.77,32q.46,8.11.95,16.37c.41,5.49,1,11,1.52,16.58q1.59,16.68,3.21,33.81c.55,5.41,1.41,11.41,2.09,17.15s1.35,11.69,2.21,17.43c3.15,23,6.93,46.88,11,71.06s8.32,48.84,12.27,73.91c1.93,12.55,3.93,25.16,5.7,37.91q1.36,9.56,2.73,19.15t2.48,19.31c1.76,12.87,3,25.9,4.47,38.93s2.32,26.21,3.5,39.35c.75,13.2,1.62,26.42,2,39.68l.44,19.92.2,10-.12,10c-.32,53.19-4.87,106.57-14.89,158.16a773,773,0,0,1-44.44,147.38q-3.57,8.66-7.1,17.25l-8,16.67c-5.35,11-10.3,22.12-16.3,32.54-5.81,10.49-11.27,21-17.19,31.14q-9.2,15-18.17,29.54a940.45,940.45,0,0,1-76.62,102.78l-18.9,22.12-19.07,20.17-18.12,19.13-17.87,17.29c-22.7,22.74-44.23,40.66-61.43,55.93-8.5,7.76-16.79,13.87-23.7,19.53l-17.72,14.16-14.75,11.79a1.69,1.69,0,0,1-2.2-2.56l0-.05,13.89-12.74,16.65-15.29,10.56-9.69c1.86-1.74,3.85-3.46,5.8-5.34l5.95-5.86,27-26.57,7.52-7.39c2.54-2.53,5-5.27,7.52-8l15.84-16.8,16.86-17.91,17-19.72q8.72-10.12,17.88-20.75,8.68-11,17.79-22.46l9.17-11.59,4.66-5.88,4.41-6.15,18-25.18c6.31-8.39,11.83-17.54,17.73-26.62q4.43-6.81,8.9-13.72l4.51-6.93c1.44-2.36,2.79-4.78,4.2-7.18q8.36-14.44,16.95-29.26c5.5-10,10.53-20.39,15.91-30.74,5.57-10.26,10.08-21.16,15-32q3.63-8.15,7.3-16.35l6.57-16.83a745.86,745.86,0,0,0,40.65-143,852.94,852.94,0,0,0,13.43-153.11c0-51.68-4-103.43-10.08-154.29q-1.17-9.54-2.32-19t-2.58-19c-1.67-12.59-3.59-25.14-5.42-37.6q-5.58-37.51-11-74c-3.6-24.39-7-48.38-9.76-72.28-1.45-12-2.47-23.27-3.5-35.16q-1.11-17.46-2.2-34.48c-.33-5.67-.77-11.29-1-16.89s-.3-11.16-.45-16.68c-.26-11-.67-21.91-.79-32.6.27-21.4.26-42,1.62-61.87q.41-7.43.79-14.7.2-3.63.39-7.22c.21-2.4.42-4.77.63-7.14q1.29-14.18,2.53-27.69c.86-9,2.28-17.71,3.35-26.2q.87-6.36,1.72-12.53l2.1-12.11c1.45-7.93,2.54-15.64,4.16-23s3.08-14.46,4.53-21.28c3.39-13.53,6.4-26,9.86-37a419.13,419.13,0,0,1,18-50.52c2.45-5.7,4.49-10,6-12.87s2.24-4.32,2.24-4.32l0,0a1.69,1.69,0,0,1,3,1.54Z"/>
        </g>
        <g>
          <path class="cls-6" d="M2511.12,2864.81s339.23,117.45,592.67-253.68c238.07-348.63,95-784.52-10-1033.55-5.48-13-24.54-10.56-26.63,3.36-31.51,209.67-178.09,1029.54-574.15,1283.22Z"/>
          <path class="cls-5" d="M2546.55,2869.53l2.9-.56c1.89-.37,4.71-1,8.39-1.86,7.34-1.79,18.09-4.48,31.53-8.78,6.77-1.94,14.12-4.58,22.18-7.24,7.95-3,16.65-6,25.69-9.78a624.58,624.58,0,0,0,59.68-27.69c21.45-11,43.76-24.58,66.7-39.83,11.22-8,22.92-15.95,34.19-25l8.61-6.67,4.34-3.36,4.18-3.6,16.95-14.52c22.18-20.18,44.32-41.95,64.46-66.14l7.68-9,3.84-4.5,3.6-4.73,14.41-19c5-6.21,9.26-13,13.73-19.57l13.37-19.88,12.25-20.6,6.13-10.28c1-1.72,2.08-3.39,3-5.15l2.75-5.31q5.49-10.6,11-21.15l5.47-10.53c1.61-3.61,3.23-7.21,4.83-10.8l9.58-21.47c1.55-3.59,3.28-7.08,4.66-10.71l4.1-10.86,8.16-21.52c1.35-3.56,2.79-7.08,4-10.64s2.29-7.2,3.44-10.77q3.42-10.74,6.8-21.27c2.2-7,4.65-13.94,6.28-21q5.57-21,10.89-41c3.06-13.44,5.6-26.63,8.37-39.32,1.31-6.36,2.89-12.56,3.93-18.75s2-12.27,3-18.22c1.92-11.91,3.79-23.32,5.68-34.18,1.45-10.91,2.55-21.3,3.74-31.05s2.36-18.89,3.42-27.34,1.31-16.27,2-23.31c1.17-14.09,2.12-25.17,2.86-32.73s1.07-11.61,1.07-11.61v-.07a1.69,1.69,0,0,1,3.37.13s.06,4,.17,11.66.22,18.77.27,33c0,7.11.19,15-.18,23.57s-.95,17.83-1.48,27.73-1.14,20.46-2,31.56c-1.2,11.07-2.58,22.71-4,34.85q-1.1,9.12-2.24,18.6c-.8,6.31-2.12,12.67-3.19,19.19-2.37,13-4.71,26.44-7.45,40.21q-5,20.49-10.19,42c-1.61,7.21-4,14.27-6.23,21.48s-4.49,14.47-6.77,21.8l-3.43,11c-1.26,3.65-2.7,7.27-4,10.93q-4.17,10.94-8.38,22l-4.25,11.11c-1.44,3.7-3.22,7.28-4.82,10.94q-4.93,10.93-9.91,22l-5,11q-2.82,5.37-5.65,10.78l-11.36,21.65-2.85,5.43c-1,1.8-2.08,3.52-3.12,5.28l-6.33,10.53-12.72,21.06-14,20.25c-4.68,6.72-9.17,13.58-14.37,19.9l-15.05,19.28-3.75,4.8-4,4.58-8,9.13c-20.92,24.62-44.2,46.42-67.35,66.57l-17.66,14.48-4.36,3.58-4.51,3.34-9,6.63c-11.68,9.06-23.94,16.76-35.61,24.58-5.9,3.83-11.93,7.25-17.76,10.81l-8.7,5.23c-2.91,1.68-5.87,3.22-8.76,4.82l-17.12,9.28-16.85,8.23a637.2,637.2,0,0,1-61.68,25.52c-9.31,3.48-18.24,6.1-26.39,8.79-8.27,2.35-15.79,4.7-22.72,6.38-13.8,3.58-24.81,5.68-32.32,7.07-3.76.66-6.65,1.13-8.63,1.4l-3,.41a1.69,1.69,0,0,1-.56-3.33Z"/>
        </g>
        <g>
          <path class="cls-7" d="M1060.57,761.43l1451.61,24.73a150.41,150.41,0,0,1,147.76,145.3l71.3,2106.4a110.92,110.92,0,0,1-110.73,114.67l-1664.25,1.89a105.29,105.29,0,0,1-105.39-107.07L887,929.22A170.73,170.73,0,0,1,1060.57,761.43Z"/>
          <path class="cls-8" d="M1200.1,3122.19h-.1l-186.13-5.58c-61.91-1.86-111.41-53.75-110.36-115.67l4.79-281.08a3.45,3.45,0,0,1,3.44-3.32,3.39,3.39,0,0,1,3.32,3.44l-4.79,281.07c-1,58.25,45.57,107.06,103.8,108.8l186.13,5.58a3.38,3.38,0,0,1-.1,6.76Z"/>
          <path class="cls-8" d="M913.16,2636.23h-.06a3.38,3.38,0,0,1-3.32-3.43l.78-45.52A3.33,3.33,0,0,1,914,2584a3.38,3.38,0,0,1,3.32,3.44l-.77,45.51A3.38,3.38,0,0,1,913.16,2636.23Z"/>
          <g>
            <path class="cls-9" d="M1065.32,744.45c197.78,30.26,878,125,1442.36,91.35a45.86,45.86,0,0,1,48.63,44.09l76.34,2115.86a52.78,52.78,0,0,1-50.51,54.65c-237.28,10-1214.4,47.58-1562,5.18a41.8,41.8,0,0,1-36.69-42l24.76-2220.63A49.59,49.59,0,0,1,1065.32,744.45Z"/>
            <path class="cls-5" d="M1085.62,799.65c190.33,29.12,845,120.3,1388,87.91A44.13,44.13,0,0,1,2520.47,930l73.46,2036.2a50.77,50.77,0,0,1-48.61,52.58c-228.34,9.62-1168.67,45.79-1503.15,5a40.24,40.24,0,0,1-35.32-40.43l23.84-2137A47.72,47.72,0,0,1,1085.62,799.65Z"/>
            <g class="cls-10">
              <path class="cls-8" d="M2455.78,1066.05a12.52,12.52,0,0,0,12.85-13.27l-.11-2.3a14.83,14.83,0,0,0-14.18-13.83L1221,1005.91c-7.43-.19-9.8,4.48-5.27,10.37l14.07,18.3c4.53,5.9,14.31,10.82,21.75,11Z"/>
            </g>
            <g class="cls-10">
              <path class="cls-8" d="M1219.62,1087.21c-7.44-.18-9.81,4.49-5.28,10.38l14.07,18.3c4.53,5.9,14.32,10.82,21.75,10.95l1204.23,20.51a12.5,12.5,0,0,0,12.85-13.26l-.11-2.3A14.82,14.82,0,0,0,2453,1118Z"/>
            </g>
            <path class="cls-8" d="M1420.15,1829.78h-.45l-163.4.94c-23.55.13-43.23-15.78-45.78-37l-16.47-136.86a30.12,30.12,0,0,1,6.79-22.8,36.22,36.22,0,0,1,25.07-12.86h0c13.77-1.15,32.73-3.06,53.58-5.16,45.42-4.57,96.89-9.75,127.16-10.59l.66,0c21.66-.33,40.5,12.59,46,31.6,9,31.39,9.18,91,8.53,154.5C1461.58,1812.35,1442.94,1829.43,1420.15,1829.78ZM1227,1634.48a22.81,22.81,0,0,0-15.86,8,16.94,16.94,0,0,0-3.88,12.79l16.47,136.86c1.74,14.5,15.7,25.36,32.47,25.27l163.39-.94h.32c15.62-.24,28.39-11.43,28.53-25.06.64-62.48.5-121-8-150.7-3.77-13.13-18.12-22.71-33.43-21.93-29.79.83-83.24,6.22-126.19,10.53-20.94,2.11-40,4-53.8,5.19Z"/>
            <path class="cls-5" d="M1244.79,1648c34.28-2.87,108.76-11.59,144.13-12.57,15-.42,28.27,8.44,32,21.38,7.21,25.14,7.08,75.48,6.61,121.94-.14,13.92-12.75,25.22-28.35,25.31l-130.57.75c-16.06.09-29.56-10.65-31.27-24.89l-13.16-109.36C1222.81,1659.21,1232.08,1649,1244.79,1648Z"/>
            <g class="cls-10">
              <path class="cls-8" d="M1561.48,1685.33c-7.43-.06-11.88,5.74-9.87,12.9l15.49,55.28c2,7.16,9.73,12.92,17.16,12.81l822.4-12.61a13.22,13.22,0,0,0,13-13.72l-1.27-33.91a14.31,14.31,0,0,0-14-13.62Z"/>
            </g>
            <path class="cls-8" d="M1429.7,1462.93h-.45l-163.39.94c-23.55.13-43.23-15.78-45.78-37L1203.61,1290a30.19,30.19,0,0,1,6.78-22.81,36.26,36.26,0,0,1,25.08-12.86h0c13.77-1.15,32.72-3.06,53.58-5.15,45.41-4.58,96.88-9.76,127.15-10.6l.67,0c21.66-.33,40.5,12.59,46,31.6,9,31.39,9.17,91,8.53,154.5C1471.14,1445.5,1452.5,1462.58,1429.7,1462.93Zm-193.11-195.3a22.89,22.89,0,0,0-15.86,8,16.92,16.92,0,0,0-3.88,12.79l16.47,136.86c1.74,14.5,15.7,25.37,32.46,25.27l163.4-.93h.32c15.62-.24,28.39-11.43,28.53-25.06.64-62.48.5-121-8-150.69-3.77-13.14-18.12-22.72-33.43-21.93-29.79.82-83.24,6.21-126.2,10.53-20.94,2.11-40,4-53.79,5.18Z"/>
            <path class="cls-5" d="M1254.34,1281.12c34.29-2.88,108.76-11.59,144.14-12.58,15-.41,28.27,8.44,32,21.39,7.21,25.14,7.08,75.47,6.61,121.94-.15,13.91-12.75,25.21-28.35,25.3l-130.58.75c-16.05.09-29.55-10.65-31.26-24.88l-13.16-109.37C1232.37,1292.36,1241.64,1282.18,1254.34,1281.12Z"/>
            <g class="cls-10">
              <path class="cls-8" d="M1571,1318.49c-7.44-.07-11.88,5.74-9.87,12.9l15.49,55.28c2,7.15,9.73,12.92,17.16,12.8l822.4-12.61a13.2,13.2,0,0,0,13-13.71l-1.26-33.92a14.34,14.34,0,0,0-14-13.62Z"/>
            </g>
            <path class="cls-8" d="M1425.52,2179.92h-.45l-163.4.93c-23.55.14-43.23-15.77-45.78-37L1199.42,2007a30.24,30.24,0,0,1,6.78-22.82,36.26,36.26,0,0,1,25.08-12.86h0c13.77-1.15,32.73-3.06,53.58-5.15,45.42-4.57,96.89-9.76,127.16-10.6l.66,0c21.66-.33,40.5,12.59,46,31.61,9,31.39,9.18,91,8.53,154.49C1467,2162.5,1448.31,2179.57,1425.52,2179.92Zm-193.12-195.3a22.93,22.93,0,0,0-15.86,8,17,17,0,0,0-3.88,12.8l16.47,136.85c1.74,14.51,15.7,25.37,32.47,25.27l163.39-.93h.32c15.62-.24,28.39-11.42,28.53-25.06.64-62.48.5-121-8-150.69-3.78-13.14-18.13-22.55-33.44-21.93-29.79.83-83.24,6.21-126.19,10.53-21,2.11-40,4-53.8,5.18Z"/>
            <path class="cls-5" d="M1250.16,1998.11c34.28-2.87,108.76-11.59,144.13-12.57,15-.42,28.27,8.44,32,21.38,7.21,25.14,7.08,75.48,6.61,121.94-.14,13.92-12.75,25.22-28.35,25.31l-130.57.74c-16.06.1-29.56-10.65-31.27-24.88l-13.16-109.36C1228.18,2009.35,1237.45,1999.18,1250.16,1998.11Z"/>
            <g class="cls-10">
              <path class="cls-8" d="M1566.85,2035.48c-7.43-.06-11.87,5.74-9.87,12.9l15.49,55.28c2,7.16,9.73,12.92,17.16,12.81L2412,2103.85a13.2,13.2,0,0,0,13-13.71l-1.27-33.91a14.31,14.31,0,0,0-14-13.62Z"/>
            </g>
            <path class="cls-8" d="M1415.37,2516.39h-.43l-163.4.93c-23.54.14-43.22-15.77-45.78-37l-16.47-136.85a30.24,30.24,0,0,1,6.78-22.8,36.27,36.27,0,0,1,25.08-12.87h0c13.76-1.15,32.69-3.05,53.53-5.15,43.18-4.35,96.93-9.75,127.21-10.6,21.5-.43,41.1,12.37,46.62,31.59,9,31.39,9.18,91,8.53,154.49C1456.83,2499,1438.18,2516,1415.37,2516.39Zm-193.1-195.31a22.88,22.88,0,0,0-15.86,8,17,17,0,0,0-3.88,12.79L1219,2478.72c1.74,14.5,15.7,25.37,32.46,25.27l163.4-.93c15.4-.51,28.71-11.35,28.85-25.07.64-62.48.5-121-8-150.69-3.78-13.14-18.13-22.38-33.44-21.93-29.8.82-83.28,6.21-126.25,10.53-20.91,2.11-39.93,4-53.74,5.18Z"/>
            <path class="cls-5" d="M1240,2334.57c34.28-2.87,108.76-11.59,144.13-12.57,15-.42,28.27,8.43,32,21.38,7.21,25.14,7.08,75.48,6.61,121.94-.14,13.92-12.75,25.21-28.35,25.3l-130.57.75c-16.06.1-29.56-10.65-31.27-24.88l-13.16-109.37C1218.05,2345.81,1227.32,2335.63,1240,2334.57Z"/>
            <g class="cls-10">
              <path class="cls-8" d="M1556.72,2371.94c-7.43-.06-11.87,5.74-9.87,12.9l15.49,55.28c2,7.16,9.73,12.92,17.16,12.81l822.41-12.62a13.2,13.2,0,0,0,13-13.71l-1.27-33.91a14.31,14.31,0,0,0-14-13.62Z"/>
            </g>
            <path class="cls-8" d="M1402.15,2863.4h-.45l-163.4.93c-23.55.14-43.23-15.77-45.78-37l-16.47-136.86a30.2,30.2,0,0,1,6.79-22.81,36.22,36.22,0,0,1,25.07-12.86h0c13.77-1.15,32.73-3.06,53.58-5.16,45.42-4.57,96.89-9.75,127.16-10.59,22.2,0,41.11,12.38,46.62,31.58,9,31.39,9.18,91,8.53,154.5C1443.59,2846,1425,2863.05,1402.15,2863.4ZM1209,2668.1a22.89,22.89,0,0,0-15.86,8,17,17,0,0,0-3.88,12.79l16.47,136.86c1.74,14.5,15.7,25.36,32.47,25.27l163.39-.94h.33c15.61-.24,28.38-11.43,28.52-25.06.64-62.48.5-121-8-150.7-3.78-13.13-18.12-22.21-33.44-21.92-29.79.82-83.24,6.21-126.19,10.53-20.94,2.11-40,4-53.8,5.18Z"/>
            <path class="cls-5" d="M1226.79,2681.59c34.28-2.87,108.76-11.59,144.13-12.58,15-.41,28.28,8.44,32,21.39,7.22,25.14,7.08,75.47,6.61,121.94-.14,13.91-12.75,25.21-28.35,25.3l-130.57.75c-16.06.09-29.56-10.65-31.27-24.88l-13.16-109.37C1204.81,2692.83,1214.08,2682.65,1226.79,2681.59Z"/>
            <g class="cls-10">
              <path class="cls-8" d="M1543.48,2719c-7.43-.07-11.87,5.74-9.87,12.9l15.49,55.28c2,7.15,9.73,12.92,17.16,12.8l822.41-12.61a13.21,13.21,0,0,0,13-13.71l-1.26-33.92a14.34,14.34,0,0,0-14-13.62Z"/>
            </g>
          </g>
          <path class="cls-11" d="M1881.3,488.38c-51.82-37.37-97.42-37.42-129.68-28.5A64,64,0,0,0,1705,526.41l11.26,151.31,164.46,17.43S1982.91,561.67,1881.3,488.38ZM1806.79,609a41.08,41.08,0,1,1,41.77-40.37A41.08,41.08,0,0,1,1806.79,609Z"/>
          <path class="cls-8" d="M1731,618.09a8.16,8.16,0,0,1-5.21-7L1724,587a8.16,8.16,0,0,1,16.27-1.2l1.79,24.1a8.14,8.14,0,0,1-7.52,8.73A8,8,0,0,1,1731,618.09Zm-3.52-47.22a8.15,8.15,0,0,1-5.2-7l-1.37-18.3a65.32,65.32,0,0,1,47.48-67.72,127.34,127.34,0,0,1,62.26-1.49,8.16,8.16,0,1,1-3.55,15.93,111.1,111.1,0,0,0-54.36,1.29,49,49,0,0,0-35.55,50.79l1.36,18.3a8.16,8.16,0,0,1-11.07,8.21Z"/>
          <path class="cls-12" d="M1489.82,771.53l1.29-76a46.37,46.37,0,0,1,48.73-45.51l523.38,26.87A45.09,45.09,0,0,1,2106,720l3.13,73.06Z"/>
          <path class="cls-8" d="M1686.75,680.6h-.06l-22.52-.38a3.38,3.38,0,0,1,.06-6.76h.06l22.52.38a3.38,3.38,0,0,1-.06,6.76Z"/>
          <path class="cls-8" d="M1515.7,751.8a8.17,8.17,0,0,1-5.22-7.76l.53-30.72a47.24,47.24,0,0,1,48-46.44l82.8,1.41a8.17,8.17,0,0,1-.29,16.33l-82.79-1.42a31,31,0,0,0-31.45,30.4l-.52,30.72a8.18,8.18,0,0,1-8.3,8A8.35,8.35,0,0,1,1515.7,751.8Z"/>
          <path class="cls-13" d="M1326.2,740.93,2242,756.51a67.69,67.69,0,0,1,65.74,57.28l.7,4.49A58.13,58.13,0,0,1,2250,885.34l-939.52-16a37.8,37.8,0,0,1-37.08-40.25l2.74-42A49.35,49.35,0,0,1,1326.2,740.93Z"/>
        </g>
        <g>
          <g>
            <g>
              <path class="cls-14" d="M1926.92,1976.55c-5.87,209.62-24.91,932.7-15.82,1188.93,1,27.15,25.54,48.94,56.21,49.82,151.64,4.4,707.57,15.53,955.62,6.32,51.66-1.92,92.74-39,93.82-84.74,5.15-220,16.52-838.88-10.51-1122.38-3.24-34-33.35-61-71.66-64.41-165.15-14.63-723.47-50.38-937.77-38.07C1958.17,1914.24,1927.88,1942.27,1926.92,1976.55Z"/>
              <path class="cls-15" d="M1994.59,2025.38c-8.17,49-33.91,212-25.74,272.27,1.19,8.81,28.28,15.93,62.6,16.45,141.33,2.12,623.5,6.79,830.8,2.54,37.32-.77,66.61-8.51,68.63-18.09,10.5-50,40.66-201.76,32.83-261.36-1.25-9.51-30-17.27-66.93-18.12-152.9-3.52-665.26-11.9-841.41-9.43C2022.3,2010.1,1996,2016.9,1994.59,2025.38Z"/>
              <path class="cls-16" d="M2899.32,2068a40.69,40.69,0,0,0-28.58-12.39L2076.54,2043a40.65,40.65,0,0,0-41.13,36.86l-16.5,176.2c-1.36,14.42,22.38,26.57,52.64,26.94l780.81,9.46c30.22.36,55.19-11.16,55.44-25.58l2.95-169.91A40.66,40.66,0,0,0,2899.32,2068Z"/>
            </g>
            <g>
              <rect class="cls-17" x="2002.08" y="2432.42" width="182.46" height="114.88" rx="56.75"/>
              <rect class="cls-18" x="2258.87" y="2432.42" width="182.46" height="114.88" rx="56.75"/>
              <rect class="cls-19" x="2505.53" y="2432.42" width="182.46" height="114.88" rx="56.75"/>
              <path class="cls-20" d="M2936.12,2496.75a57.67,57.67,0,0,1-57.67,57.67h-66.77a57.67,57.67,0,0,1-57.67-57.67h0a57.67,57.67,0,0,1,57.67-57.67h66.77a57.67,57.67,0,0,1,57.67,57.67Z"/>
            </g>
            <g>
              <rect class="cls-21" x="2002.08" y="2611.5" width="182.46" height="114.88" rx="56.75"/>
              <rect class="cls-22" x="2258.87" y="2611.5" width="182.46" height="114.88" rx="56.75"/>
              <rect class="cls-23" x="2505.53" y="2611.5" width="182.46" height="114.88" rx="56.75"/>
              <rect class="cls-24" x="2758.94" y="2611.5" width="182.46" height="114.88" rx="56.75"/>
            </g>
            <g>
              <rect class="cls-25" x="2002.08" y="2777.06" width="182.46" height="114.88" rx="56.75"/>
              <rect class="cls-26" x="2258.87" y="2777.06" width="182.46" height="114.88" rx="56.75"/>
              <rect class="cls-27" x="2505.53" y="2777.06" width="182.46" height="114.88" rx="56.75"/>
            </g>
            <g>
              <rect class="cls-28" x="2002.08" y="2949.39" width="182.46" height="114.88" rx="56.75"/>
              <rect class="cls-29" x="2258.87" y="2949.39" width="182.46" height="114.88" rx="56.75"/>
              <rect class="cls-30" x="2505.53" y="2949.39" width="182.46" height="114.88" rx="56.75"/>
            </g>
            <rect class="cls-31" x="2769.08" y="2783.82" width="148.67" height="280.44" rx="71.83"/>
          </g>
          <g class="cls-32">
            <path class="cls-8" d="M2819.76,2092.85a11.82,11.82,0,0,1-11.83,11.82h-37.16a11.83,11.83,0,0,1-11.83-11.82h0a11.83,11.83,0,0,1,11.83-11.83h37.16a11.83,11.83,0,0,1,11.83,11.83Z"/>
            <path class="cls-8" d="M2819.76,2261.79a11.83,11.83,0,0,1-11.83,11.83h-37.16a11.83,11.83,0,0,1-11.83-11.83h0a11.83,11.83,0,0,1,11.83-11.83h37.16a11.83,11.83,0,0,1,11.83,11.83Z"/>
            <path class="cls-8" d="M2765.7,2167.18a11.83,11.83,0,0,1-11.83,11.83h0a11.83,11.83,0,0,1-11.82-11.83V2130a11.82,11.82,0,0,1,11.82-11.82h0A11.83,11.83,0,0,1,2765.7,2130Z"/>
            <path class="cls-8" d="M2765.7,2234.76a11.83,11.83,0,0,1-11.83,11.82h0a11.82,11.82,0,0,1-11.82-11.82v-37.17a11.82,11.82,0,0,1,11.82-11.82h0a11.83,11.83,0,0,1,11.83,11.82Z"/>
            <path class="cls-8" d="M2846.79,2167.18A11.83,11.83,0,0,1,2835,2179h0a11.83,11.83,0,0,1-11.83-11.83V2130a11.82,11.82,0,0,1,11.83-11.82h0a11.82,11.82,0,0,1,11.82,11.82Z"/>
            <path class="cls-8" d="M2846.79,2234.76a11.82,11.82,0,0,1-11.82,11.82h0a11.82,11.82,0,0,1-11.83-11.82v-37.17a11.82,11.82,0,0,1,11.83-11.82h0a11.82,11.82,0,0,1,11.82,11.82Z"/>
          </g>
        </g>
        <g>
          <g>
            <circle class="cls-33" cx="1724.53" cy="1272.46" r="120.87" transform="translate(-394.67 1592.12) rotate(-45)"/>
            <circle class="cls-34" cx="1724.53" cy="1272.46" r="116.85" transform="translate(-394.67 1592.12) rotate(-45)"/>
            <path class="cls-8" d="M1628.17,1227.3a3.33,3.33,0,0,1-1.52-.36,3.37,3.37,0,0,1-1.49-4.54A111.39,111.39,0,0,1,1744.59,1163a3.37,3.37,0,1,1-1.21,6.64,105.89,105.89,0,0,0-18.85-1.69,104.05,104.05,0,0,0-93.34,57.47A3.4,3.4,0,0,1,1628.17,1227.3Z"/>
            <circle class="cls-35" cx="1727.07" cy="1275.01" r="98.9" transform="translate(89.37 2662.94) rotate(-76.72)"/>
            <path class="cls-36" d="M1717.37,1348.53v-10.76a87.73,87.73,0,0,1-30.19-6.54,6.23,6.23,0,0,1-3.44-7.36l2.73-10a6.26,6.26,0,0,1,8.51-4.1,73,73,0,0,0,27.88,5.87c10.8,0,18.86-3.67,18.86-11.18,0-6.77-6.23-10.8-21.24-14.83-21.42-5.86-36.81-15.2-36.81-34.06,0-17,12.46-30,34.06-33.51v-10.76A6.27,6.27,0,0,1,1724,1205h6.32a6.27,6.27,0,0,1,6.27,6.27V1221a80,80,0,0,1,23.93,4.29,6.23,6.23,0,0,1,3.9,7.53l-2.51,9.27a6.25,6.25,0,0,1-8.26,4.22,65.42,65.42,0,0,0-23.47-4.26c-12.81,0-16.48,5.31-16.48,10.07,0,5.86,7.7,9.89,24.36,15,23.8,7.14,33.69,17,33.69,34.79,0,16.3-12.08,30.95-35.52,34.61v12a6.27,6.27,0,0,1-6.27,6.27h-6.32A6.27,6.27,0,0,1,1717.37,1348.53Z"/>
          </g>
          <g>
            <circle class="cls-37" cx="2068.58" cy="1129.13" r="210.41" transform="translate(-192.54 1793.42) rotate(-45)"/>
            <circle class="cls-38" cx="2068.58" cy="1129.13" r="203.42" transform="translate(-192.54 1793.42) rotate(-45)"/>
            <path class="cls-8" d="M1900.84,1048a3.27,3.27,0,0,1-1.51-.37,3.37,3.37,0,0,1-1.5-4.53A190.35,190.35,0,0,1,2068.58,938a192.42,192.42,0,0,1,34.48,3.1,3.38,3.38,0,1,1-1.21,6.65,186.36,186.36,0,0,0-33.27-3,183.64,183.64,0,0,0-164.72,101.42A3.37,3.37,0,0,1,1900.84,1048Z"/>
            <circle class="cls-35" cx="2073.02" cy="1133.56" r="172.17" transform="translate(-194.37 1797.85) rotate(-45)"/>
            <path class="cls-39" d="M2056.12,1261.55v-18.73c-19.53-.78-38.84-5.39-52.56-11.4a10.84,10.84,0,0,1-6-12.8l4.76-17.44a10.93,10.93,0,0,1,14.83-7.15c13.6,5.7,30.41,10.22,48.52,10.22,18.81,0,32.84-6.38,32.84-19.45,0-11.79-10.84-18.81-37-25.82-37.3-10.2-64.07-26.46-64.07-59.29,0-29.65,21.67-52.28,59.29-58.33v-18.74a10.91,10.91,0,0,1,10.91-10.91h11a10.92,10.92,0,0,1,10.91,10.91v16.82c18.07.73,31.22,3.82,41.66,7.48A10.86,10.86,0,0,1,2138,1060l-4.38,16.14a10.89,10.89,0,0,1-14.37,7.35,113.69,113.69,0,0,0-40.86-7.42c-22.31,0-28.68,9.25-28.68,17.53,0,10.2,13.38,17.22,42.39,26.14,41.44,12.43,58.65,29.65,58.65,60.57,0,28.37-21,53.87-61.84,60.25v21a10.9,10.9,0,0,1-10.91,10.91h-11A10.91,10.91,0,0,1,2056.12,1261.55Z"/>
          </g>
          <g>
            <circle class="cls-40" cx="2213.7" cy="1599.09" r="216.51" transform="translate(-482.35 2033.68) rotate(-45)"/>
            <circle class="cls-41" cx="2213.7" cy="1599.09" r="209.31" transform="translate(-482.35 2033.68) rotate(-45)"/>
            <path class="cls-8" d="M2041.1,1515.52a3.33,3.33,0,0,1-1.52-.36,3.37,3.37,0,0,1-1.5-4.53A195.78,195.78,0,0,1,2213.7,1402.5a198,198,0,0,1,35.46,3.19,3.37,3.37,0,1,1-1.21,6.64,191.94,191.94,0,0,0-34.25-3.08,189,189,0,0,0-169.58,104.42A3.38,3.38,0,0,1,2041.1,1515.52Z"/>
            <circle class="cls-35" cx="2218.26" cy="1603.66" r="177.16" transform="translate(-484.24 2038.24) rotate(-45)"/>
            <path class="cls-42" d="M2200.87,1735.36v-19.28c-20.09-.8-40-5.54-54.08-11.72a11.15,11.15,0,0,1-6.16-13.17l4.9-18a11.23,11.23,0,0,1,15.25-7.35c14,5.87,31.29,10.51,49.93,10.51,19.36,0,33.79-6.56,33.79-20,0-12.13-11.15-19.35-38.05-26.56-38.38-10.5-65.93-27.23-65.93-61,0-30.51,22.31-53.8,61-60V1489.5a11.23,11.23,0,0,1,11.23-11.23h11.32a11.23,11.23,0,0,1,11.23,11.23v17.31c18.6.75,32.13,3.93,42.87,7.7a11.17,11.17,0,0,1,7,13.49l-4.5,16.6a11.2,11.2,0,0,1-14.78,7.57,116.92,116.92,0,0,0-42.05-7.64c-23,0-29.52,9.52-29.52,18,0,10.5,13.78,17.72,43.63,26.9,42.64,12.79,60.35,30.5,60.35,62.32,0,29.19-21.65,55.44-63.63,62v21.57a11.23,11.23,0,0,1-11.23,11.23H2212.1A11.23,11.23,0,0,1,2200.87,1735.36Z"/>
          </g>
          <g>
            <circle class="cls-43" cx="2491.45" cy="1304.16" r="158.64" transform="translate(854.33 3590.65) rotate(-82.03)"/>
            <circle class="cls-44" cx="2491.45" cy="1304.16" r="153.36" transform="translate(532.97 3322.21) rotate(-73.49)"/>
            <path class="cls-8" d="M2365,1243.83a3.33,3.33,0,0,1-1.52-.36,3.37,3.37,0,0,1-1.49-4.54,144.34,144.34,0,0,1,129.47-79.72,146.09,146.09,0,0,1,26.15,2.36,3.37,3.37,0,1,1-1.21,6.64,140.12,140.12,0,0,0-24.94-2.24A137.59,137.59,0,0,0,2368,1242,3.38,3.38,0,0,1,2365,1243.83Z"/>
            <circle class="cls-35" cx="2494.79" cy="1307.5" r="129.8" transform="translate(-193.84 2147.05) rotate(-45)"/>
            <path class="cls-45" d="M2482.06,1404v-14.12c-14.72-.59-29.29-4.06-39.63-8.59a8.17,8.17,0,0,1-4.51-9.65l3.59-13.16a8.22,8.22,0,0,1,11.17-5.38,95.65,95.65,0,0,0,36.59,7.7c14.18,0,24.75-4.81,24.75-14.66,0-8.89-8.17-14.18-27.88-19.47-28.11-7.69-48.3-20-48.3-44.7,0-22.35,16.34-39.41,44.7-44v-14.12a8.22,8.22,0,0,1,8.23-8.23h8.29a8.22,8.22,0,0,1,8.23,8.23v12.68a104.72,104.72,0,0,1,31.41,5.64,8.19,8.19,0,0,1,5.12,9.88l-3.3,12.17a8.21,8.21,0,0,1-10.84,5.54,85.61,85.61,0,0,0-30.8-5.59c-16.82,0-21.63,7-21.63,13.21,0,7.69,10.09,13,32,19.71,31.25,9.37,44.22,22.35,44.22,45.66,0,21.39-15.86,40.62-46.62,45.43V1404a8.23,8.23,0,0,1-8.23,8.23h-8.29A8.23,8.23,0,0,1,2482.06,1404Z"/>
          </g>
        </g>
        <g>
          <path class="cls-46" d="M872.8,3152.77s-6.1,34.53-9.09,68.71A23.55,23.55,0,0,0,886.24,3247c45.51,1.89,142.88,5.58,177.81,4a7.67,7.67,0,0,0,6.75-10.5,17.18,17.18,0,0,0-8.78-9.24L901.2,3157.37Z"/>
          <path class="cls-47" d="M867.8,3132.49l4.9,41.3s28.17,13.11,47.41-1.66l-11.66-46Z"/>
          <path class="cls-48" d="M871.48,2356c-2.11,10.79-11.36,538.22,45,774.58a8,8,0,0,1-4.7,9.33,139.73,139.73,0,0,1-45.92,9.33,13.83,13.83,0,0,1-13.71-9.91c-16.11-54.84-93.34-329.6-103.41-592.07-11.26-293.29,0-10,0-10l6.6-181.29Z"/>
          <path class="cls-49" d="M687.8,3170.79s-9.71,17.43-19.11,63.75a14.36,14.36,0,0,0,12.64,17.2c15,1.48,38.17,3.38,56.7,3.25a14.32,14.32,0,0,0,14.18-16c-2.05-16.9-8.45-44.64-28.2-66.26Z"/>
          <path class="cls-50" d="M679.27,3117.66l11.45,62.46s11.32,8.42,33.72,2.32l-5.47-67.2Z"/>
          <path class="cls-51" d="M648.34,2372.21c-46.11,278.27,10,687.78,28.92,767.93a12.49,12.49,0,0,0,10.1,9.49c8.44,1.4,22.35,2.55,36.06-1.43a11.49,11.49,0,0,0,8.24-10.55c2.54-64.8-2-462.61,40.93-619.82a35.75,35.75,0,0,1,13.77-19.71l83.39-59.28,6.4-95.83Z"/>
          <g>
            <path class="cls-52" d="M942.15,1844.92c-138.18-2.28-290.65,36.29-290.65,36.29-41.19,240.34-7.2,517.55-7.2,517.55,107,28,227.65-17.15,227.65-17.15,17.78-100.46,100.74-383.18,100.74-383.18,67.52-8.37,123.13-27.85,168.94-53.61-34.94-40.49-51.41-92-58.56-122.49C1034.21,1837.52,984.77,1845.63,942.15,1844.92Z"/>
            <path class="cls-53" d="M1350.32,1641.39c-13.57-16.4-30.75-8.64-30.75-8.64-20.34,85.89-127,155.54-236.5,189.58,7.15,30.46,23.62,82,58.56,122.49C1323.42,1842.61,1350.32,1641.39,1350.32,1641.39Z"/>
          </g>
          <g>
            <path class="cls-54" d="M1347,1645.56c1.42,4.51-15,11.39-24.72-7.08-.34-8.85-5.72-46.77-.43-54,28.17-38.4,82.78-86.54,82.78-86.54,9.23,9.1,1.63,18,1.63,18l-26.5,27.6c5.55,10,12.3,18.47,15.47,30.58a37.13,37.13,0,0,1-3.7,27.32c-4.65,8.38-11,19.27-17,27.79C1363.21,1645.43,1347,1645.56,1347,1645.56Z"/>
            <path class="cls-55" d="M1368.21,1561.52,1344.06,1582l-7.58,20.38,21.53,23.88s7.24-40.43,12.62-49.18S1373.21,1564.08,1368.21,1561.52Z"/>
          </g>
          <path class="cls-56" d="M704.5,2015l-53-133.8s-129.07,87.69-150.3,198.88c24.39,1.8,68.77,8.14,112.21,30.08C623,2057.66,704.5,2015,704.5,2015Z"/>
          <path class="cls-57" d="M817.29,2140.91s-144.91,81.9-193.81,12c-10.15-14.52-12.58-29-10.07-42.71-43.44-21.94-87.82-28.28-112.21-30.08-6.4,33.53-3,69.18,16.68,105.21,85.65,156.68,318.59-8.66,318.59-8.66Z"/>
          <g>
            <path class="cls-58" d="M799.88,2244.52,879,1968.33a8,8,0,0,1,6.81-5.8c14.33-1.68,55.85-6.37,103.79-10.42,57.75-4.89,124.81-8.85,164.88-5.48a8.08,8.08,0,0,1,6.61,11.63c-22.79,46.1-116.52,233.64-163.46,295.07a8.08,8.08,0,0,1-6.53,3.2l-183.49-1.7A8.09,8.09,0,0,1,799.88,2244.52Z"/>
            <path class="cls-59" d="M997.78,1928.16l57.34-9.55a4.11,4.11,0,0,1,4.58,5.35l-5.67,17.2a4.11,4.11,0,0,1-3.37,2.78l-55.18,7.38a4.12,4.12,0,0,1-4.55-5l3.52-15A4.09,4.09,0,0,1,997.78,1928.16Z"/>
            <path class="cls-60" d="M954.84,1976.7l4.73-24.6a5.69,5.69,0,0,1,5-4.59l115.81-11.75a5.69,5.69,0,0,1,6.11,7l-7.37,30.66a5.69,5.69,0,0,1-5.24,4.35l-113.18,5.7A5.7,5.7,0,0,1,954.84,1976.7Z"/>
            <path class="cls-61" d="M819,2177.79s-11-45.3-6.57-61.37,13.05-36.74,41.75-32.15S916.73,2101,916.73,2101s-1.71,20.93-23.53,14.18l13.53,10.46s-1.93,16.76-20.36,7.81L899,2147.29s-7.91,13.77-21.46,4.94S857.43,2183.25,819,2177.79Z"/>
          </g>
          <path class="cls-62" d="M802.18,1732.74l-44,127.15a4.58,4.58,0,0,0,2.08,5.52c12,6.63,55.17,25.78,107.2-7.21a21.55,21.55,0,0,0,9.94-15.41l14.24-110Z"/>
          <g>
            <path class="cls-63" d="M915.7,1620c1,2,17.57,148.26,17.57,148.26l-83.71,7.69-36.32-136.28S899.23,1586.52,915.7,1620Z"/>
            <path class="cls-64" d="M840.48,1663.77,854,1737a10.27,10.27,0,0,0,.88,2.68c2.58,5.25,12.76,22.65,29.93,11.15,15.58-10.44,30-19.73,41.91-19.94a10.38,10.38,0,0,1,10.52,9.22c1.5,13.29,4.34,43.3,2.82,69.75a10.37,10.37,0,0,1-10.08,9.72c-16.19.5-50.37.59-77.88-5.78a10.42,10.42,0,0,1-7.71-7.34c-5-18-20.45-72.52-27.1-87.06-6.25-13.64-26.41-16.48-35-17.07a10.18,10.18,0,0,1-7.17-3.67c-6.35-7.63-17.78-26.36,5.1-43a10.42,10.42,0,0,0,2.11-14.85c-7.22-9.31-14.05-24.89,2.86-40.19,17.19-15.55,35.69-9.71,46.63-3.63a10.42,10.42,0,0,0,13.1-2.61c1.84-2.22,4.67-3.67,9-2.59a10.26,10.26,0,0,0,12.45-8.67c1.6-11.45,8-25.23,28.76-28.26,36.89-5.37,53.43,32.06,51.59,57.75s-42.17,29.23-64.71,23.91c-17.13-4-32.73,11.1-39.22,18.6A10.3,10.3,0,0,0,840.48,1663.77Z"/>
            <path class="cls-65" d="M822.45,1746s1.29-44.89-16.67-50-38.16,7.17-23.87,34.74C799.67,1765.12,822.45,1746,822.45,1746Z"/>
          </g>
        </g>
      </g>
    </g>
  </g>
</svg>
