<svg xmlns="http://www.w3.org/2000/svg" xmlns:xlink="http://www.w3.org/1999/xlink" width="3710" height="3710" viewBox="0 0 3710 3710">
  <defs>
    <style>
      .cls-1 {
        isolation: isolate;
      }

      .cls-2 {
        fill: none;
      }

      .cls-19, .cls-3 {
        fill: #f4f7fa;
      }

      .cls-4, .cls-7 {
        fill: #97a6b7;
      }

      .cls-5 {
        fill: url(#linear-gradient);
      }

      .cls-16, .cls-6, .cls-9 {
        fill: #fff;
      }

      .cls-13, .cls-15, .cls-19, .cls-21, .cls-7 {
        opacity: 0.3;
      }

      .cls-13, .cls-15, .cls-21, .cls-7 {
        mix-blend-mode: multiply;
      }

      .cls-8 {
        fill: url(#linear-gradient-2);
      }

      .cls-9 {
        opacity: 0.5;
      }

      .cls-16, .cls-19, .cls-9 {
        mix-blend-mode: soft-light;
      }

      .cls-10 {
        fill: #d8dee8;
      }

      .cls-11 {
        fill: url(#linear-gradient-3);
      }

      .cls-12 {
        fill: url(#linear-gradient-4);
      }

      .cls-13 {
        fill: url(#linear-gradient-5);
      }

      .cls-14 {
        fill: url(#linear-gradient-6);
      }

      .cls-15 {
        fill: url(#linear-gradient-7);
      }

      .cls-17 {
        fill: url(#linear-gradient-8);
      }

      .cls-18 {
        fill: url(#linear-gradient-9);
      }

      .cls-20 {
        fill: url(#linear-gradient-10);
      }

      .cls-22 {
        fill: url(#linear-gradient-11);
      }

      .cls-23 {
        fill: url(#linear-gradient-12);
      }

      .cls-24 {
        fill: url(#linear-gradient-13);
      }

      .cls-25 {
        fill: url(#linear-gradient-14);
      }

      .cls-26 {
        fill: url(#linear-gradient-15);
      }

      .cls-27 {
        fill: url(#linear-gradient-16);
      }

      .cls-28 {
        fill: #a2a7ae;
      }

      .cls-29 {
        fill: url(#linear-gradient-17);
      }
    </style>
    <linearGradient id="linear-gradient" x1="2446.09" y1="627.49" x2="1173.82" y2="3461.51" gradientUnits="userSpaceOnUse">
      <stop offset="0" stop-color="#ffc444"/>
      <stop offset="1" stop-color="#f36f56"/>
    </linearGradient>
    <linearGradient id="linear-gradient-2" x1="1584" y1="708.59" x2="2423.87" y2="708.59" gradientUnits="userSpaceOnUse">
      <stop offset="0" stop-color="#444b8c"/>
      <stop offset="1" stop-color="#26264f"/>
    </linearGradient>
    <linearGradient id="linear-gradient-3" x1="673.35" y1="1365.16" x2="1087.6" y2="1365.16" gradientUnits="userSpaceOnUse">
      <stop offset="0.66" stop-color="#ff9085"/>
      <stop offset="1" stop-color="#fb6fbb"/>
    </linearGradient>
    <linearGradient id="linear-gradient-4" x1="1603.29" y1="1113.72" x2="1273.58" y2="2325.49" gradientUnits="userSpaceOnUse">
      <stop offset="0" stop-color="#ff9085"/>
      <stop offset="1" stop-color="#fb6fbb"/>
    </linearGradient>
    <linearGradient id="linear-gradient-5" x1="1676.81" y1="1133.72" x2="1347.11" y2="2345.49" xlink:href="#linear-gradient-4"/>
    <linearGradient id="linear-gradient-6" x1="1327.66" y1="1590.44" x2="1396.17" y2="3256.09" xlink:href="#linear-gradient-4"/>
    <linearGradient id="linear-gradient-7" x1="1227.62" y1="1594.55" x2="1296.12" y2="3260.2" xlink:href="#linear-gradient-4"/>
    <linearGradient id="linear-gradient-8" x1="-1913.98" y1="2359.94" x2="-1329.92" y2="2225" gradientTransform="matrix(-1, 0, 0, 1, -494.43, 0)" gradientUnits="userSpaceOnUse">
      <stop offset="0" stop-color="#26264f"/>
      <stop offset="1" stop-color="#444b8c"/>
    </linearGradient>
    <linearGradient id="linear-gradient-9" x1="-1897.84" y1="2361.65" x2="-1326.52" y2="2229.66" gradientTransform="matrix(-1, 0, 0, 1, -494.43, 0)" xlink:href="#linear-gradient-2"/>
    <linearGradient id="linear-gradient-10" x1="1695.17" y1="3409.06" x2="1775.23" y2="3055.85" gradientUnits="userSpaceOnUse">
      <stop offset="0" stop-color="#311944"/>
      <stop offset="1" stop-color="#893976"/>
    </linearGradient>
    <linearGradient id="linear-gradient-11" x1="2722.83" y1="1615.15" x2="2886.49" y2="1615.15" gradientUnits="userSpaceOnUse">
      <stop offset="0" stop-color="#aa80f9"/>
      <stop offset="1" stop-color="#6165d7"/>
    </linearGradient>
    <linearGradient id="linear-gradient-12" x1="2125.6" y1="2146.15" x2="2881.67" y2="2146.15" xlink:href="#linear-gradient-11"/>
    <linearGradient id="linear-gradient-13" x1="1493.45" y1="1600.33" x2="1645.46" y2="1600.33" gradientTransform="matrix(1, 0, 0.15, 1, 564.68, 0)" xlink:href="#linear-gradient-2"/>
    <linearGradient id="linear-gradient-14" x1="2214.07" y1="2410.97" x2="2732.05" y2="2410.97" xlink:href="#linear-gradient-2"/>
    <linearGradient id="linear-gradient-15" x1="2751.96" y1="2393.5" x2="3099.78" y2="2393.5" xlink:href="#linear-gradient-2"/>
    <linearGradient id="linear-gradient-16" x1="2746.4" y1="1640.93" x2="2927.57" y2="1552" xlink:href="#linear-gradient-2"/>
    <linearGradient id="linear-gradient-17" x1="1444.83" y1="2120.29" x2="1477.27" y2="2120.29" gradientTransform="translate(897.69 -173.58) rotate(-11.55)" xlink:href="#linear-gradient-2"/>
  </defs>
  <title>salud</title>
  <g class="cls-1">
    <g id="Background">
      <rect class="cls-2" width="3710" height="3710"/>
    </g>
    <g id="Illustration">
      <g>
        <path class="cls-3" d="M3220.16,1647.4c-76.09-498.05-388.07-1109.94-1004.4-1174,0,0-468-56.92-929.25,29.35C1012.72,554,772.66,706.38,620.76,925.43s-202.65,486.15-141.07,740.8c40,165.39,67,336.57,59.61,506.53-12.91,295.79-5.49,571.89,281.57,748.29,256.31,157.5,578.88,296.42,886.62,320.75,209.13,16.54,443.66-10.22,645.23-64.67C3380,2899.64,3296.25,2145.45,3220.16,1647.4Z"/>
        <g>
          <path class="cls-4" d="M2728,764.35,1168.16,670c-35.92-1.83-68.26,39.17-68.26,73.6V2844.14c0,47.75,46.63,57.35,82.55,53.52L2728,2732.59c28.23-3,51-30,51-60.36V821.87C2779,791.54,2756.21,765.79,2728,764.35Z"/>
          <path class="cls-5" d="M2753.64,747.67,1190.73,667.26c-35.92-1.85-65.18,24.77-65.18,59.47v2117c0,34.69,29.26,59.67,65.18,55.8l1562.91-168.23c28.23-3,51-30.27,51-60.83V805.63C2804.66,775.07,2781.87,749.12,2753.64,747.67Z"/>
          <polygon class="cls-6" points="2652.91 2655.67 1316.15 2790.36 1316.15 841.42 2652.91 894.07 2652.91 2655.67"/>
          <path class="cls-7" d="M2118.24,903.61l-534.24,7,12-126c.91-16.37,12.23-29.81,27.13-32.21l90.47-14.54c10.65-1.71,19.83-9.07,24.48-19.64l9.82-22.29,236.65,15.29Z"/>
          <path class="cls-8" d="M2403.53,821.87c-2.53-14.26-13.45-24.26-27.21-24.91L2291,793c-38.75-1.82-67.15-34.74-65.73-76.43l3.29-96.62c.61-17.87-11.59-32.19-28.36-33.24l-28.05-1.75c-21.38-1.34-35.62-21.06-32.62-43.86,5.24-39.84-20.86-74.23-58.7-76.92-38.13-2.72-73.71,27.75-79.39,68.1a46.18,46.18,0,0,1-5.93,17.21c-8.81,14.78-24.25,22.92-39.37,22l-28.93-1.8c-17.53-1.1-34.19,11.77-38.63,29.87l-24.06,98.08c-10.4,42.42-49.65,73.07-91.32,71.12l-93.64-4.39c-15.34-.72-30.39,8.63-37.45,23.29l-56.43,117.1c-4.62,9.59,1.07,19.95,11.14,20.3l812.08,28.21c8.89.31,16.43-9,14.8-18.17Zm-334.26-274.1c-11.18-.73-18.95-10.9-17.32-22.72s12-20.78,23.2-20S2094,516,2092.41,527.74,2080.44,548.49,2069.27,547.77Z"/>
          <path class="cls-4" d="M2408.34,824.49c-2.53-14.26-13.45-24.26-27.21-24.91l-85.37-4c-38.75-1.82-67.15-34.74-65.73-76.43l3.29-96.63c.61-17.87-11.59-32.18-28.36-33.23l-28.05-1.75c-21.38-1.34-35.62-21.06-32.62-43.86,5.24-39.84-20.86-74.23-58.7-76.92-38.13-2.72-73.71,27.74-79.39,68.1a46.18,46.18,0,0,1-5.93,17.21c-8.81,14.78-24.25,22.92-39.37,22l-28.93-1.8c-17.53-1.1-34.19,11.77-38.63,29.87l-24.06,98.08c-10.4,42.42-49.65,73.07-91.32,71.12l-93.64-4.39c-15.34-.72-30.39,8.63-37.45,23.29l-56.43,117.1c-4.62,9.59,1.07,20,11.14,20.3l812.08,28.21c8.89.31,16.43-9,14.8-18.17Zm-334.26-274.1c-11.18-.73-18.95-10.9-17.32-22.72s12-20.78,23.2-20,18.88,10.93,17.26,22.71S2085.25,551.11,2074.08,550.39Z"/>
          <path class="cls-9" d="M2269.36,878.3c-72.44-46.77-128-13.61-173.16-66.35-48.33-56.47-15.74-130.81-65.74-165.89-32-22.45-60.58-2.65-97.81-8.73-13.63-2.22-28.19-7.89-43.3-18.94l-20.07,81.8c-10.4,42.42-49.65,73.07-91.32,71.12l-93.64-4.39c-15.34-.72-30.39,8.63-37.45,23.29l-56.43,117.1c-4.62,9.59,1.07,20,11.14,20.3l738,25.63C2321,922.37,2297.92,896.73,2269.36,878.3Z"/>
          <g>
            <g>
              <path class="cls-10" d="M1610.84,1777.71v110.72l-110.47,3.9V1780.55l110.47-2.84Zm13.19-13.54-136.85,3.52V1906l136.85-4.83v-137Z"/>
              <polygon class="cls-10" points="2532.59 1869.09 1674.42 1899.38 1674.42 1762.88 2532.59 1740.81 2532.59 1869.09"/>
            </g>
            <g>
              <path class="cls-10" d="M1610.84,1977.5v110.71l-110.47,5.44V1981.89l110.47-4.39Zm13.19-13.72-136.85,5.43v138.3l136.85-6.74v-137Z"/>
              <polygon class="cls-10" points="2532.59 2056 1674.42 2098.28 1674.42 1961.78 2532.59 1927.72 2532.59 2056"/>
            </g>
            <g>
              <path class="cls-10" d="M1610.84,2177.3V2288l-110.47,7V2183.22l110.47-5.92Zm13.19-13.92-136.85,7.34V2309l136.85-8.65v-137Z"/>
              <polygon class="cls-10" points="2532.59 2242.92 1674.42 2297.18 1674.42 2160.67 2532.59 2114.64 2532.59 2242.92"/>
            </g>
            <g>
              <path class="cls-10" d="M1610.84,2377.09v110.67l-110.47,8.52V2384.56l110.47-7.47ZM1624,2363l-136.85,9.25v138.3L1624,2500V2363Z"/>
              <polygon class="cls-10" points="2532.59 2429.83 1674.42 2496.08 1674.42 2359.57 2532.59 2301.55 2532.59 2429.83"/>
            </g>
            <path class="cls-10" d="M1487.18,1646.07a6.61,6.61,0,0,1-6.59-6.6V994a6.64,6.64,0,0,1,2-4.73,6.87,6.87,0,0,1,4.78-1.86l544.19,15.18a6.59,6.59,0,0,1,6.41,6.59v621.13a6.59,6.59,0,0,1-6.49,6.59l-544.18,9.17Zm6.6-645.28v632l531-8.94V1015.6Zm537.58,629.52h0Z"/>
            <polygon class="cls-10" points="2532.59 1102.01 2116.83 1092.87 2116.83 1011.56 2532.59 1023.16 2532.59 1102.01"/>
            <polygon class="cls-10" points="2532.59 1277.25 2116.83 1273.54 2116.83 1232.89 2532.59 1237.82 2532.59 1277.25"/>
            <polygon class="cls-10" points="2532.59 1342.23 2116.83 1340.54 2116.83 1299.89 2532.59 1302.8 2532.59 1342.23"/>
            <polygon class="cls-10" points="2532.59 1407.21 2116.83 1407.54 2116.83 1366.89 2532.59 1367.78 2532.59 1407.21"/>
          </g>
        </g>
        <g>
          <path class="cls-11" d="M673.35,1748.92s96.35-109.19,102.77-398.21-45-327.57,38.53-353.26S968.8,971.76,988.07,1036s6.42,385.37,89.92,533.09S673.35,1748.92,673.35,1748.92Z"/>
          <path class="cls-12" d="M1103.68,1691.11s64.23-430.32,436.75-507.4S1900.11,1158,1913,1215.83s-45,89.92-179.83,115.61-346.84,199.1-160.57,565.2Z"/>
          <path class="cls-13" d="M1875.25,1153.41a369.76,369.76,0,0,1-65.06,75.26c-127.62,112-262.64,68.64-379,141.3-73.56,46-152.58,146.44-174.16,388.39l315.47,138.28c-186.27-366.1,25.69-539.51,160.57-565.2s192.68-57.81,179.83-115.61C1907.26,1190.22,1906.59,1165.89,1875.25,1153.41Z"/>
          <path class="cls-14" d="M866,1524.12c-186.53,70-278.67,293.77-289,462.44-18.15,295.37,209,510,308.3,603.75,130.55,123.33,275.16,193.42,327.56,218.37,108.87,51.84,121.21,39.54,327.56,122,204,81.54,227,107.58,282.6,96.35,143-28.91,210.61-245.84,244.07-353.26,69.77-224,117.85-635-102.76-809.27-54.24-42.84-114.54-63.35-192.69-89.92-197.86-67.28-240.73-11.27-378.94-70.65-154.46-66.36-153.23-158.78-301.87-192.69C1066.38,1505.7,968.17,1485.8,866,1524.12Z"/>
          <path class="cls-15" d="M1546.85,2648.11c-114.28-139.56-106.92-221.23-244.06-327.56C1069.93,2140,859.84,2229,763.27,2063.64c-61.56-105.45-50.44-268.83,25.69-346.84,62.38-63.9,140.44-41.86,179.84-102.76,20-31,21.68-70.38,12.71-112.56-35,1.4-74.89,7.42-115.47,22.64-186.53,70-278.67,293.77-289,462.44-18.15,295.37,209,510,308.3,603.75,130.55,123.33,275.16,193.42,327.56,218.37,108.87,51.84,121.21,39.54,327.56,122,204,81.54,227,107.58,282.6,96.35,52.62-10.64,95-46.76,129.25-93.47C1748.91,2851.65,1625.58,2744.25,1546.85,2648.11Z"/>
          <path class="cls-16" d="M1935.13,2653.28c40.28-108,50.85-228.76,26.47-343.67-12.3-57.07-30.56-113-56.58-165.7l-9.83-19.7c-3.26-6.58-7.19-12.83-10.75-19.26s-7.24-12.81-11-19.11l-12.14-18.48c-4.16-6.09-7.89-12.47-12.54-18.23l-13.52-17.56c-8.65-12-19-22.64-28.77-33.75-9.49-11.39-20.84-21-31.42-31.42-10.37-10.64-22.52-19.28-34-28.75a342.16,342.16,0,0,0-36.17-25.94c-12.43-8.13-25.37-15.43-38.42-22.44a583.24,583.24,0,0,0-81.06-35.22c-27.64-9.65-55.57-17.64-83-25.35s-54.62-14.84-79.59-25.07-47.58-23.48-63.31-43.52c-15.74-19.88-25.53-45.47-28.29-72.06-.67-5.64-1-11.36-1.14-17.1-6.64-4.26-12.91-8.57-18.87-12.9a199.24,199.24,0,0,0-1.83,31.46c.91,30.21,9,61.33,27.32,87.48a149.61,149.61,0,0,0,33,33.9c12.49,9.5,26,16.95,39.71,23.27,27.42,12.59,55.22,21.4,82.43,30.06l1.3.4h-.85c1.82,58.49,14.44,117.38,40.12,170.25a371.56,371.56,0,0,0,47.37,73.8c18.46,22.63,39.64,42.11,59.49,61.32s38,38.79,49.84,62.39a174.61,174.61,0,0,1,19.3,76.71,245.51,245.51,0,0,1-2.46,40.54,312,312,0,0,1-8.92,40.11c-7.61,26.48-18.39,52.17-31,77l5.65,3.07c14.11-24.33,26.58-49.79,36-76.63a323.63,323.63,0,0,0,11.66-41.16,261.46,261.46,0,0,0,5.07-42.92,193.13,193.13,0,0,0-16.53-85.71c-11.8-27.44-31.2-50.48-50.23-71.27-19.19-20.8-38.19-40.49-53.91-62.23a338.92,338.92,0,0,1-39.18-69.48c-18.65-44.81-27.09-93.19-27.43-141.67,38.34,12.93,75.35,27.5,110.17,46.32,24.06,13.18,47.26,27.89,68.56,45.13,10.58,8.68,21.9,16.49,31.53,26.32,9.82,9.56,20.43,18.34,29.29,28.89,9.12,10.27,18.84,20,27,31.2l12.72,16.27c4.4,5.3,7.84,11.34,11.88,16.92l11.74,17.06c3.68,5.84,7.14,11.84,10.72,17.76s7.31,11.75,10.5,17.9l9.65,18.42,4.84,9.21,4.37,9.45,8.71,18.92c2.82,6.36,5.28,12.87,7.93,19.3s5.4,12.83,7.65,19.41a707.19,707.19,0,0,1,24.81,79.81c27.27,107.82,23.4,223.2-6.28,332.33Z"/>
          <path class="cls-16" d="M1242.5,1697.12c7.35-15.33,11.34-31.78,13-48a181,181,0,0,0-.41-38.89c-6.9-6.55-13.62-13-20.36-19.34-.11,3.74-.16,7.53-.33,11.23-.89,14.79-2.23,29.29-5,43.22-5.44,27.72-16.46,53.57-36.43,71.31-19.59,17.92-47.33,25.48-76.36,29.14-29.15,3.91-59.9,4.72-91,9.12-31,4.25-63.09,12.88-90.84,30.37a173.73,173.73,0,0,0-37.26,31.28,195.24,195.24,0,0,0-27.22,39.66,233,233,0,0,0-17.74,43.88c-4.69,15-7.72,30.3-10.38,45.58-4.69,30.69-5.89,61.57-5,92.21l6.43.11c2-30.32,5.62-60.44,12.18-89.72,3.49-14.57,7.3-29,12.6-42.88A235.55,235.55,0,0,1,887,1865.51c14.68-25.15,35-46.31,59.66-60.48,24.6-14.37,53.07-20.9,82.3-24.48,5.83-.71,11.73-1.2,17.65-1.69,8.15,21.87,11.74,45.44,9.31,68.73a161,161,0,0,1-9.67,40.18c-4.9,13.31-11.41,26.42-17.64,40.49-6.17,13.86-12.16,29.85-11.6,47.21.23,17.33,8.52,33.45,19.29,45.2,10.85,11.93,23.9,20.72,37.33,28a296.12,296.12,0,0,0,41.75,18l2.35-6a289.08,289.08,0,0,1-39-20.65c-12.2-7.9-23.55-17.14-32-28.1s-13.41-23.69-12.48-36.47c.62-12.74,6.13-25.3,13.12-38s14.82-25.84,21.44-40.1a186.74,186.74,0,0,0,14.93-45.66c4.67-24.85,3.49-50.6-2.35-75.19,12.73-.78,25.59-1.62,38.66-3.1,15.68-2,31.69-4.74,47.5-10.22s31.32-13.58,44.22-25.18A128,128,0,0,0,1242.5,1697.12Z"/>
        </g>
        <g>
          <path class="cls-17" d="M815.81,2264.05c-31.83,171.69,82.06,327.2,257.91,347.73,179.88,21,355.62-106.61,388.78-285.48s-89.92-335.25-271.14-349C1014.2,1963.84,847.65,2092.35,815.81,2264.05Z"/>
          <path class="cls-18" d="M813,2267.43c-31.12,170.27,80.23,324.48,252.17,344.85,175.87,20.83,347.7-105.73,380.12-283.11s-87.92-332.46-265.1-346.1C1007,1969.73,844.12,2097.16,813,2267.43Z"/>
          <path class="cls-19" d="M909,2276.81c-21.48,117.48,55.8,223.31,174.24,236.56,120.29,13.46,237.09-73.42,259.18-194.24S1283,2092.06,1162.1,2082C1043.06,2072,930.48,2159.33,909,2276.81Z"/>
          <path class="cls-19" d="M1024.89,2288.12c-9.82,53.76,25.78,101.88,79.87,107.51,54.48,5.67,107-33.84,116.94-88.29s-26.52-102.65-81.12-107.63C1086.36,2194.77,1034.72,2234.36,1024.89,2288.12Z"/>
          <path class="cls-19" d="M963.67,2505.18c69.89-80.19,22-157.7,88.63-235.08,84.8-98.45,222.7-43.07,281.33-133a125.33,125.33,0,0,0,17.41-42.63c54.55,58.59,81.11,142.08,64.72,231.78-29.46,161.14-185.47,276.37-345.43,257.73-51.26-6-96.63-25-133.49-53.38A199.43,199.43,0,0,0,963.67,2505.18Z"/>
        </g>
        <path class="cls-20" d="M1785.6,3255c-138,0-282.95-8.21-419-24.41-77.53-9.24-228.66-30.12-369.8-66.22C795.9,3113,695.32,3052,689.3,2977.84c-4-49.21,34.49-80.44,87.74-123.66,48.4-39.28,108.64-88.16,165.19-170.52,76.88-112,120.07-247.89,128.37-404a16.67,16.67,0,1,1,33.29,1.77c-8.63,162.35-53.77,304-134.18,421.14-59.28,86.32-124.23,139-171.66,177.53-51.31,41.64-78,64.78-75.52,95.07,4.53,55.76,104.86,111.49,282.52,156.93,144.47,37,303.71,58.06,365.47,65.41,238.64,28.42,504.57,32,711.37,9.63,109.2-11.82,196.77-30,260.27-54.11,63.78-24.2,100.44-53.8,106-85.62,8.94-51.05-59.27-113.66-114.08-164s-98.08-90-77.68-125c13.63-23.35,48.69-29.51,110.34-19.4,42.6,7,86.21,20.05,100.54,24.34,124.64,37.33,217.45,98.06,285.22,142.4,50,32.71,93.14,61,108.61,49.71,10-7.3,13.4-29.92,10.15-45.65-3.5-16.92-15.84-26.2-37.33-41.14-12.41-8.63-26.48-18.41-39.58-31.9-34.78-35.83-53.19-88.69-54.71-157.1A16.67,16.67,0,1,1,2773,2699c1.33,59.73,16.57,105,45.31,134.62,10.85,11.18,23,19.6,34.68,27.75,21.92,15.23,44.58,31,50.94,61.75,4.52,21.84,2.08,61-23.19,79.37-34.07,24.78-78.78-4.48-146.47-48.77-66.06-43.22-156.52-102.42-276.53-138.36-155-46.42-172.36-20.34-172.52-20.07-1.23,2.12.08,9.88,12.86,25.58,13.62,16.75,35.46,36.79,58.57,58,64,58.7,136.47,125.25,124.38,194.27-18.34,104.72-225.22,148.69-395.53,167.13C1994.42,3250.12,1892,3255,1785.6,3255Z"/>
        <g>
          <g class="cls-21">
            <path class="cls-22" d="M2821.93,1569l-26.2-1.73c-22.37-.65-73.23,18.19-72.87,42.09l.13,8.53c-3.38,36.55,47.19,43.62,69.56,44.06l30.8,1.14c16.44.32,30.35-10.08,36.17-25.19,12.18,2.09,16.17,5.19,27,10.75v-38.1c-10.62-4.36-13.81-5.56-25.35-7.39C2856.8,1584.1,2840.83,1569.53,2821.93,1569Z"/>
            <path class="cls-23" d="M2880.53,2437.09c-17.21,23.92-35.19,48.3-57.54,67.74l-108.11,94a41.15,41.15,0,0,0-31.49,12l-40.84,39.61a79.68,79.68,0,0,1-21.41,14.9,37.75,37.75,0,0,0-23.42-5.48,43.26,43.26,0,0,0-24.51,10.62,67.21,67.21,0,0,1-25.19-12.24l-42-32.67a39.54,39.54,0,0,0-33.45-7.11l-119.05-79.78c-99.63-66.76-161.2-182.29-163.11-308a31.55,31.55,0,0,0-14.1-26l-7-461.68c-1.1-72.47,51.42-131.34,119.58-139.46,7,16.27,22.92,27.89,41.18,28.24l17.23,1.25c24,.47,90.42-19.1,90-43.71l-.13-8.78c-.37-24.6-55.73-45.11-79.74-45.82l-28.91-1.89a42.18,42.18,0,0,0-42.65,33.75c-87.38,8.73-155.3,83.55-153.9,176.12l7,463.38a33.4,33.4,0,0,0-13.44,27.18c1.1,72.49,19.49,144,53,206.62C2212,2502.1,2260,2555,2317.3,2593l119.92,79.43a40.64,40.64,0,0,0,15.17,25.43l42.47,32.55c13.16,10.08,30.32,24.12,45.34,29l101.9-11.4a168.73,168.73,0,0,0,53.62-35.62l40.39-39.66a47.31,47.31,0,0,0,13.66-27.32l107.3-94.18q12.73-11.17,24.6-23.39Z"/>
          </g>
          <g>
            <path class="cls-24" d="M2363.67,1646l-17.36-1.13c-24.45-.44-47.1-19.26-50.48-42l-1.21-8.13c-3.38-22.78,13.83-40.72,38.32-40.07l29.09,1.73c24.06.64,81.79,19.35,85.12,41.78l1.18,8C2451.66,1628.6,2387.69,1646.45,2363.67,1646Z"/>
            <path class="cls-4" d="M2694.2,2644.91l-238.93-134.16c-59.81-33.59-112.44-80.4-151.87-135.35-39.68-55.3-65.78-118.52-75.27-182.56L2161.88,1746c-12.94-87.26,50.36-157.22,141.3-161.2a14.16,14.16,0,0,1,14.56,12.12l.82,5.55a14.23,14.23,0,0,1-13,16.23c-69.16,5.76-116.42,60.25-106.44,127.57l66,445.16c17.61,118.75,95.74,227.86,207.17,290.82l238,134.5Z"/>
            <path class="cls-25" d="M2706.49,2659.33a31.72,31.72,0,0,1-18.28-4L2449,2521.3c-61.75-34.6-116.1-82.86-156.83-139.55-41-57.05-67.95-122.3-77.75-188.41-2.43-16.42,10.09-30.22,27.91-30.83s34.07,12.13,36.49,28.45c17,114.6,92.33,219.95,199.83,280.83l237.73,134.63c14.47,8.2,19.94,25.73,12.23,39.21A28,28,0,0,1,2706.49,2659.33Z"/>
            <path class="cls-4" d="M2793.22,2636.4l-23.64-24.54L2951.75,2450c80-71.11,117.35-178.24,101.13-287.66l-60.82-410.19c-9.86-66.51-72.73-121.73-141-123.11l-4.71-31.76c85.94,2,164.79,71.59,177.17,155.1l60.61,408.8c8.69,58.6,3.44,117.9-15.26,171.71a339.79,339.79,0,0,1-94.31,141.45Z"/>
            <path class="cls-26" d="M2785.63,2652.4a31.47,31.47,0,0,1-25.23-9.52c-11.42-11.81-11.23-29.79.42-40.11l182.49-161.84c77.47-68.71,113.67-172.34,98-278.21-2.24-15.07,8.16-27.71,23.19-28.22s28.87,11.22,31.09,26.21c8.95,60.33,3.56,121.38-15.66,176.8a350.26,350.26,0,0,1-97,145.75l-181,162.18A27.94,27.94,0,0,1,2785.63,2652.4Z"/>
            <path class="cls-27" d="M2804.44,1652.46l30.89,1c22,.39,37.19-16.7,34-38.18l-1.14-7.66c-3.18-21.48-23.55-39.36-45.59-40l-26.37-1.58c-22.41-.6-70.94,16.58-67.7,38.38l1.15,7.77C2730.7,1645.62,2782.05,1652.07,2804.44,1652.46Z"/>
            <path class="cls-28" d="M2748.5,2673a168.63,168.63,0,0,1-105.75-26.41l-46.32-29.68c-20-12.85-26.19-38.14-13.68-56.39s38.7-22.41,58.56-9.51l45.86,29.79c30.43,19.77,69.71,16.69,93.45-7.11l36-36.12c15.08-15.13,40.7-14.66,57.22.94s17.75,40.38,2.86,55.53l-35.57,36.16C2816.36,2655.41,2783.4,2669.9,2748.5,2673Z"/>
            <path class="cls-28" d="M2765.47,2774.39c-22.66,2.3-43.75-13.69-47-35.73l-16.77-113.15c-3.27-22,12.58-41.39,35.31-43.23s43.49,14.4,46.73,36.25l16.63,112.18C2803.59,2752.55,2788,2772.11,2765.47,2774.39Z"/>
            <path class="cls-29" d="M2769.66,1607.77c2.52,12.33-2.55,23.78-11.33,25.58s-17.93-6.75-20.45-19.09,2.55-23.78,11.32-25.57S2767.14,1595.43,2769.66,1607.77Z"/>
          </g>
        </g>
        <path class="cls-4" d="M1128,2199.89a52.21,52.21,0,0,0-64,36.88l-60.93,226.81a52.22,52.22,0,0,0,100.86,27.1l60.93-226.82A52.21,52.21,0,0,0,1128,2199.89Z"/>
      </g>
    </g>
  </g>
</svg>
