<svg xmlns="http://www.w3.org/2000/svg" xmlns:xlink="http://www.w3.org/1999/xlink" width="3710" height="3710" viewBox="0 0 3710 3710">
  <defs>
    <style>
      .cls-1 {
        fill: none;
      }

      .cls-2, .cls-95 {
        opacity: 0.3;
      }

      .cls-2 {
        fill: url(#linear-gradient);
      }

      .cls-3 {
        opacity: 0.78;
      }

      .cls-4 {
        fill: url(#linear-gradient-2);
      }

      .cls-5 {
        fill: url(#linear-gradient-3);
      }

      .cls-6 {
        fill: url(#linear-gradient-4);
      }

      .cls-7 {
        fill: url(#linear-gradient-5);
      }

      .cls-8 {
        fill: url(#linear-gradient-6);
      }

      .cls-9 {
        fill: url(#linear-gradient-7);
      }

      .cls-10 {
        fill: url(#linear-gradient-8);
      }

      .cls-11 {
        fill: url(#linear-gradient-9);
      }

      .cls-12 {
        fill: url(#linear-gradient-10);
      }

      .cls-13 {
        fill: url(#linear-gradient-11);
      }

      .cls-14 {
        fill: url(#linear-gradient-12);
      }

      .cls-15 {
        fill: url(#linear-gradient-13);
      }

      .cls-16 {
        fill: url(#linear-gradient-14);
      }

      .cls-17 {
        fill: url(#linear-gradient-15);
      }

      .cls-18 {
        fill: url(#linear-gradient-16);
      }

      .cls-19 {
        fill: url(#linear-gradient-17);
      }

      .cls-20 {
        fill: url(#linear-gradient-18);
      }

      .cls-21 {
        fill: url(#linear-gradient-19);
      }

      .cls-22 {
        fill: url(#linear-gradient-20);
      }

      .cls-23 {
        fill: url(#linear-gradient-21);
      }

      .cls-24 {
        fill: url(#linear-gradient-22);
      }

      .cls-25 {
        fill: url(#linear-gradient-23);
      }

      .cls-26 {
        fill: url(#linear-gradient-24);
      }

      .cls-27 {
        fill: url(#linear-gradient-25);
      }

      .cls-28 {
        fill: url(#linear-gradient-26);
      }

      .cls-29 {
        fill: url(#linear-gradient-27);
      }

      .cls-30 {
        fill: url(#linear-gradient-28);
      }

      .cls-31 {
        fill: url(#linear-gradient-29);
      }

      .cls-32 {
        fill: url(#linear-gradient-30);
      }

      .cls-33 {
        fill: url(#linear-gradient-31);
      }

      .cls-34 {
        fill: url(#linear-gradient-32);
      }

      .cls-35 {
        fill: url(#linear-gradient-33);
      }

      .cls-36 {
        fill: url(#linear-gradient-34);
      }

      .cls-37 {
        fill: url(#linear-gradient-35);
      }

      .cls-38 {
        fill: url(#linear-gradient-36);
      }

      .cls-39 {
        fill: url(#linear-gradient-37);
      }

      .cls-40 {
        fill: url(#linear-gradient-38);
      }

      .cls-41 {
        fill: url(#linear-gradient-39);
      }

      .cls-42 {
        fill: url(#linear-gradient-40);
      }

      .cls-43 {
        fill: url(#linear-gradient-41);
      }

      .cls-44 {
        fill: url(#linear-gradient-42);
      }

      .cls-45 {
        fill: url(#linear-gradient-43);
      }

      .cls-46 {
        fill: url(#linear-gradient-44);
      }

      .cls-47 {
        fill: url(#linear-gradient-45);
      }

      .cls-102, .cls-48, .cls-58 {
        fill: #fff;
      }

      .cls-48 {
        opacity: 0.5;
      }

      .cls-49 {
        fill: url(#linear-gradient-46);
      }

      .cls-50 {
        fill: url(#linear-gradient-47);
      }

      .cls-51 {
        fill: url(#linear-gradient-48);
      }

      .cls-52 {
        fill: url(#linear-gradient-49);
      }

      .cls-53 {
        fill: url(#linear-gradient-50);
      }

      .cls-54 {
        fill: url(#linear-gradient-51);
      }

      .cls-55 {
        fill: url(#linear-gradient-52);
      }

      .cls-56 {
        fill: url(#linear-gradient-53);
      }

      .cls-57 {
        fill: url(#linear-gradient-54);
      }

      .cls-59 {
        fill: url(#linear-gradient-55);
      }

      .cls-60 {
        fill: url(#linear-gradient-56);
      }

      .cls-61 {
        fill: url(#linear-gradient-57);
      }

      .cls-62 {
        fill: url(#linear-gradient-58);
      }

      .cls-63 {
        fill: url(#linear-gradient-59);
      }

      .cls-64 {
        fill: url(#linear-gradient-60);
      }

      .cls-65 {
        fill: url(#linear-gradient-61);
      }

      .cls-66 {
        fill: url(#linear-gradient-62);
      }

      .cls-67 {
        fill: url(#linear-gradient-63);
      }

      .cls-68 {
        fill: url(#linear-gradient-64);
      }

      .cls-69 {
        fill: url(#linear-gradient-65);
      }

      .cls-70 {
        fill: url(#linear-gradient-66);
      }

      .cls-71 {
        fill: url(#linear-gradient-67);
      }

      .cls-72 {
        fill: url(#linear-gradient-68);
      }

      .cls-73 {
        fill: url(#linear-gradient-69);
      }

      .cls-74 {
        fill: url(#linear-gradient-70);
      }

      .cls-75 {
        fill: url(#linear-gradient-71);
      }

      .cls-76 {
        fill: url(#linear-gradient-72);
      }

      .cls-77 {
        fill: url(#linear-gradient-73);
      }

      .cls-78 {
        fill: url(#linear-gradient-74);
      }

      .cls-79 {
        fill: url(#linear-gradient-75);
      }

      .cls-80 {
        fill: url(#linear-gradient-76);
      }

      .cls-81 {
        fill: url(#linear-gradient-77);
      }

      .cls-82 {
        fill: url(#linear-gradient-78);
      }

      .cls-83 {
        fill: url(#linear-gradient-79);
      }

      .cls-84 {
        fill: url(#linear-gradient-80);
      }

      .cls-85 {
        fill: url(#linear-gradient-81);
      }

      .cls-86 {
        fill: url(#linear-gradient-82);
      }

      .cls-87 {
        fill: url(#linear-gradient-83);
      }

      .cls-88 {
        fill: url(#linear-gradient-84);
      }

      .cls-89 {
        fill: url(#linear-gradient-85);
      }

      .cls-90 {
        fill: url(#linear-gradient-86);
      }

      .cls-91 {
        fill: url(#linear-gradient-87);
      }

      .cls-92 {
        fill: url(#linear-gradient-88);
      }

      .cls-93 {
        fill: url(#linear-gradient-89);
      }

      .cls-94 {
        fill: url(#linear-gradient-90);
      }

      .cls-96 {
        fill: url(#linear-gradient-91);
      }

      .cls-97 {
        fill: url(#linear-gradient-92);
      }

      .cls-98 {
        fill: url(#linear-gradient-93);
      }

      .cls-99 {
        fill: url(#linear-gradient-94);
      }

      .cls-100 {
        fill: url(#linear-gradient-95);
      }

      .cls-101 {
        fill: url(#linear-gradient-96);
      }

      .cls-102 {
        opacity: 0.56;
      }

      .cls-103 {
        fill: url(#linear-gradient-97);
      }

      .cls-104 {
        fill: url(#linear-gradient-98);
      }

      .cls-105 {
        fill: url(#linear-gradient-99);
      }

      .cls-106 {
        fill: url(#linear-gradient-100);
      }

      .cls-107 {
        fill: url(#linear-gradient-101);
      }
    </style>
    <linearGradient id="linear-gradient" x1="3601.43" y1="4073.37" x2="1113.74" y2="983.82" gradientUnits="userSpaceOnUse">
      <stop offset="0" stop-color="#b37cff"/>
      <stop offset="1" stop-color="#f895e7"/>
    </linearGradient>
    <linearGradient id="linear-gradient-2" x1="2813.85" y1="665.16" x2="2903" y2="665.16" xlink:href="#linear-gradient"/>
    <linearGradient id="linear-gradient-3" x1="2740.89" y1="665.16" x2="2830.03" y2="665.16" xlink:href="#linear-gradient"/>
    <linearGradient id="linear-gradient-4" x1="2755.94" y1="666.76" x2="2887.95" y2="666.76" xlink:href="#linear-gradient"/>
    <linearGradient id="linear-gradient-5" x1="2813.85" y1="1133.29" x2="2903" y2="1133.29" xlink:href="#linear-gradient"/>
    <linearGradient id="linear-gradient-6" x1="2740.89" y1="1133.29" x2="2830.03" y2="1133.29" xlink:href="#linear-gradient"/>
    <linearGradient id="linear-gradient-7" x1="2755.94" y1="1131.7" x2="2887.95" y2="1131.7" xlink:href="#linear-gradient"/>
    <linearGradient id="linear-gradient-8" x1="2713.21" y1="674.9" x2="2754.83" y2="674.9" xlink:href="#linear-gradient"/>
    <linearGradient id="linear-gradient-9" x1="2612.64" y1="717.25" x2="2727.22" y2="717.25" xlink:href="#linear-gradient"/>
    <linearGradient id="linear-gradient-10" x1="2578.26" y1="699.27" x2="2815.07" y2="699.27" xlink:href="#linear-gradient"/>
    <linearGradient id="linear-gradient-11" x1="2916.66" y1="1081.21" x2="3031.24" y2="1081.21" xlink:href="#linear-gradient"/>
    <linearGradient id="linear-gradient-12" x1="2889.05" y1="1123.56" x2="2930.68" y2="1123.56" xlink:href="#linear-gradient"/>
    <linearGradient id="linear-gradient-13" x1="2828.81" y1="1099.19" x2="3065.62" y2="1099.19" xlink:href="#linear-gradient"/>
    <linearGradient id="linear-gradient-14" x1="2613.03" y1="747.22" x2="2666.89" y2="747.22" xlink:href="#linear-gradient"/>
    <linearGradient id="linear-gradient-15" x1="2538.68" y1="811.3" x2="2656.54" y2="811.3" xlink:href="#linear-gradient"/>
    <linearGradient id="linear-gradient-16" x1="2443.05" y1="773.95" x2="2800.92" y2="773.95" xlink:href="#linear-gradient"/>
    <linearGradient id="linear-gradient-17" x1="2987.34" y1="987.15" x2="3105.2" y2="987.15" xlink:href="#linear-gradient"/>
    <linearGradient id="linear-gradient-18" x1="2977" y1="1051.24" x2="3030.86" y2="1051.24" xlink:href="#linear-gradient"/>
    <linearGradient id="linear-gradient-19" x1="2842.96" y1="1024.5" x2="3200.84" y2="1024.5" xlink:href="#linear-gradient"/>
    <linearGradient id="linear-gradient-20" x1="2538.83" y1="862.75" x2="2636.93" y2="862.75" xlink:href="#linear-gradient"/>
    <linearGradient id="linear-gradient-21" x1="2538.83" y1="935.71" x2="2636.93" y2="935.71" xlink:href="#linear-gradient"/>
    <linearGradient id="linear-gradient-22" x1="2386.54" y1="899.23" x2="2792.4" y2="899.23" xlink:href="#linear-gradient"/>
    <linearGradient id="linear-gradient-23" x1="3006.96" y1="862.75" x2="3105.06" y2="862.75" xlink:href="#linear-gradient"/>
    <linearGradient id="linear-gradient-24" x1="3006.96" y1="935.71" x2="3105.06" y2="935.71" xlink:href="#linear-gradient"/>
    <linearGradient id="linear-gradient-25" x1="2851.48" y1="899.23" x2="3257.35" y2="899.23" xlink:href="#linear-gradient"/>
    <linearGradient id="linear-gradient-26" x1="2538.68" y1="987.15" x2="2656.54" y2="987.15" xlink:href="#linear-gradient"/>
    <linearGradient id="linear-gradient-27" x1="2613.03" y1="1051.24" x2="2666.89" y2="1051.24" xlink:href="#linear-gradient"/>
    <linearGradient id="linear-gradient-28" x1="2443.05" y1="1024.5" x2="2800.92" y2="1024.5" xlink:href="#linear-gradient"/>
    <linearGradient id="linear-gradient-29" x1="2977" y1="747.22" x2="3030.86" y2="747.22" xlink:href="#linear-gradient"/>
    <linearGradient id="linear-gradient-30" x1="2987.34" y1="811.3" x2="3105.2" y2="811.3" xlink:href="#linear-gradient"/>
    <linearGradient id="linear-gradient-31" x1="2842.96" y1="773.95" x2="3200.84" y2="773.95" xlink:href="#linear-gradient"/>
    <linearGradient id="linear-gradient-32" x1="2612.64" y1="1081.21" x2="2727.22" y2="1081.21" xlink:href="#linear-gradient"/>
    <linearGradient id="linear-gradient-33" x1="2713.21" y1="1123.56" x2="2754.83" y2="1123.56" xlink:href="#linear-gradient"/>
    <linearGradient id="linear-gradient-34" x1="2578.26" y1="1099.19" x2="2815.07" y2="1099.19" xlink:href="#linear-gradient"/>
    <linearGradient id="linear-gradient-35" x1="2889.05" y1="674.9" x2="2930.68" y2="674.9" xlink:href="#linear-gradient"/>
    <linearGradient id="linear-gradient-36" x1="2916.66" y1="717.25" x2="3031.24" y2="717.25" xlink:href="#linear-gradient"/>
    <linearGradient id="linear-gradient-37" x1="2828.81" y1="699.27" x2="3065.62" y2="699.27" xlink:href="#linear-gradient"/>
    <linearGradient id="linear-gradient-38" x1="-4660.49" y1="809.52" x2="-4660.49" y2="1769.3" gradientTransform="matrix(1, 0, 0, -1, 6584, 2638.77)" gradientUnits="userSpaceOnUse">
      <stop offset="0" stop-color="#53d8ff"/>
      <stop offset="1" stop-color="#3840f7"/>
    </linearGradient>
    <linearGradient id="linear-gradient-39" x1="-4215.32" y1="504.57" x2="-4809.38" y2="1673.95" gradientTransform="matrix(1, 0, 0, -1, 6584, 2761.75)" xlink:href="#linear-gradient-38"/>
    <linearGradient id="linear-gradient-40" x1="-4428.85" y1="565.31" x2="-4737.32" y2="1649.13" gradientTransform="matrix(-1, 0, 0, 1, -2736.99, 0)" xlink:href="#linear-gradient-38"/>
    <linearGradient id="linear-gradient-41" x1="-4646.75" y1="1204.93" x2="-4728.33" y2="1951.73" gradientTransform="matrix(1, 0, 0, -1, 6584, 2661.54)" xlink:href="#linear-gradient-38"/>
    <linearGradient id="linear-gradient-42" x1="-4640.66" y1="1205.35" x2="-4722.24" y2="1952.15" gradientTransform="matrix(1, 0, 0, -1, 6586.66, 2798.18)" xlink:href="#linear-gradient-38"/>
    <linearGradient id="linear-gradient-43" x1="-4634.57" y1="1205.77" x2="-4716.15" y2="1952.58" gradientTransform="matrix(1, 0, 0, -1, 6589.31, 2934.83)" xlink:href="#linear-gradient-38"/>
    <linearGradient id="linear-gradient-44" x1="-5543.9" y1="-39.91" x2="-5533.8" y2="1445.24" gradientTransform="matrix(-1, 0, 0, 1, -2736.99, 0)" xlink:href="#linear-gradient-38"/>
    <linearGradient id="linear-gradient-45" x1="3376.39" y1="1630.25" x2="2234.75" y2="3287.14" gradientUnits="userSpaceOnUse">
      <stop offset="0" stop-color="#a737d5"/>
      <stop offset="1" stop-color="#ef497a"/>
    </linearGradient>
    <linearGradient id="linear-gradient-46" x1="2704.22" y1="2844.28" x2="3178.24" y2="1308.9" gradientTransform="matrix(1, 0.06, -0.06, 1, 17.87, -466.35)" xlink:href="#linear-gradient-45"/>
    <linearGradient id="linear-gradient-47" x1="2264.32" y1="1744.66" x2="-302.71" y2="4127.31" gradientTransform="matrix(1, 0, 0, 1, 0, 0)" xlink:href="#linear-gradient-38"/>
    <linearGradient id="linear-gradient-48" x1="1884.64" y1="1892.62" x2="649.13" y2="3039.39" gradientTransform="translate(2095.93 -224.34) rotate(45)" xlink:href="#linear-gradient-38"/>
    <linearGradient id="linear-gradient-49" x1="1849.27" y1="1925.45" x2="690.98" y2="3000.55" gradientUnits="userSpaceOnUse">
      <stop offset="0" stop-color="#2b3582"/>
      <stop offset="1" stop-color="#150e42"/>
    </linearGradient>
    <linearGradient id="linear-gradient-50" x1="1476.41" y1="1949.5" x2="1105.9" y2="2293.39" gradientTransform="matrix(1, 0, 0, 1, 0, 0)" xlink:href="#linear-gradient-38"/>
    <linearGradient id="linear-gradient-51" x1="561.17" y1="-2956.41" x2="190.66" y2="-2612.52" gradientTransform="translate(1698.34 -105) rotate(180)" xlink:href="#linear-gradient-38"/>
    <linearGradient id="linear-gradient-52" x1="-1367.67" y1="11.66" x2="-1738.17" y2="355.56" gradientTransform="translate(844.17 863.17) rotate(-90)" xlink:href="#linear-gradient-38"/>
    <linearGradient id="linear-gradient-53" x1="3405.24" y1="-1018.57" x2="3034.74" y2="-674.68" gradientTransform="translate(739.17 -835.17) rotate(90)" xlink:href="#linear-gradient-38"/>
    <linearGradient id="linear-gradient-54" x1="1486.04" y1="2018.19" x2="1240.41" y2="2549.27" gradientTransform="translate(2082.1 -221.34) rotate(45)" xlink:href="#linear-gradient-38"/>
    <linearGradient id="linear-gradient-55" x1="2336.3" y1="1498.52" x2="1989.46" y2="2609.75" gradientTransform="matrix(1, 0, 0, 1, 0, 0)" xlink:href="#linear-gradient-38"/>
    <linearGradient id="linear-gradient-56" x1="2357.87" y1="1505.26" x2="2011.04" y2="2616.48" gradientTransform="matrix(1, 0, 0, 1, 0, 0)" xlink:href="#linear-gradient-38"/>
    <linearGradient id="linear-gradient-57" x1="2379.45" y1="1511.99" x2="2032.61" y2="2623.22" gradientTransform="matrix(1, 0, 0, 1, 0, 0)" xlink:href="#linear-gradient-38"/>
    <linearGradient id="linear-gradient-58" x1="1935.3" y1="1598.78" x2="1866.68" y2="1905.45" gradientTransform="translate(3086.11 -542.83) rotate(74.52)" xlink:href="#linear-gradient-38"/>
    <linearGradient id="linear-gradient-59" x1="1988.31" y1="1577.55" x2="1883.2" y2="1787.77" gradientTransform="translate(1482.07 -797.62) rotate(37.98)" gradientUnits="userSpaceOnUse">
      <stop offset="0" stop-color="#fdf53f"/>
      <stop offset="1" stop-color="#d93c65"/>
    </linearGradient>
    <linearGradient id="linear-gradient-60" x1="2122.24" y1="1598.78" x2="2053.61" y2="1905.45" gradientTransform="translate(1421.32 -888.5) rotate(35.78)" xlink:href="#linear-gradient-38"/>
    <linearGradient id="linear-gradient-61" x1="2175.24" y1="1577.55" x2="2070.13" y2="1787.77" gradientTransform="translate(2482.11 -943.07) rotate(58.28)" gradientUnits="userSpaceOnUse">
      <stop offset="0" stop-color="#41a362"/>
      <stop offset="1" stop-color="#204f2e"/>
    </linearGradient>
    <linearGradient id="linear-gradient-62" x1="-5307.08" y1="1758.83" x2="-5371.95" y2="2393.93" gradientTransform="matrix(-1, 0, 0, 1, -2304.64, 0)" gradientUnits="userSpaceOnUse">
      <stop offset="0" stop-color="#f9b776"/>
      <stop offset="1" stop-color="#f47960"/>
    </linearGradient>
    <linearGradient id="linear-gradient-63" x1="2933.71" y1="992.73" x2="2529.59" y2="2023.24" gradientTransform="matrix(1, 0, 0, 1, 0, 0)" xlink:href="#linear-gradient-62"/>
    <linearGradient id="linear-gradient-64" x1="-4999.23" y1="1907.45" x2="-5128.29" y2="3171.14" gradientTransform="matrix(-1, 0, 0, 1, -2304.64, 0)" xlink:href="#linear-gradient-59"/>
    <linearGradient id="linear-gradient-65" x1="-5603.52" y1="1600.96" x2="-6151.83" y2="2302.47" gradientTransform="matrix(-1, -0.02, -0.02, 1, -3408.43, -2.49)" xlink:href="#linear-gradient-62"/>
    <linearGradient id="linear-gradient-66" x1="-3805.13" y1="2476.38" x2="-4925.93" y2="2454.53" gradientTransform="matrix(-1, 0, 0, 1, -2304.64, 0)" xlink:href="#linear-gradient-59"/>
    <linearGradient id="linear-gradient-67" x1="-5375.11" y1="1358.26" x2="-4488.47" y2="1511.23" gradientTransform="matrix(-1, 0, 0, 1, -2304.64, 0)" xlink:href="#linear-gradient-59"/>
    <linearGradient id="linear-gradient-68" x1="-4660.09" y1="1682.73" x2="-5905.51" y2="4660.51" gradientTransform="matrix(-1, 0, 0, 1, -2304.64, 0)" xlink:href="#linear-gradient-59"/>
    <linearGradient id="linear-gradient-69" x1="-4459.73" y1="1766.52" x2="-5705.15" y2="4744.31" gradientTransform="matrix(-1, 0, 0, 1, -2304.64, 0)" xlink:href="#linear-gradient-59"/>
    <linearGradient id="linear-gradient-70" x1="2681.94" y1="-2984.83" x2="2915.24" y2="-2366.58" gradientTransform="translate(-1203.67 493.15) rotate(64.89)" xlink:href="#linear-gradient-62"/>
    <linearGradient id="linear-gradient-71" x1="-5558.43" y1="2744.21" x2="-5554.25" y2="3203.74" gradientTransform="matrix(-1, -0.02, -0.02, 1, -2640.8, 12.01)" gradientUnits="userSpaceOnUse">
      <stop offset="0" stop-color="#cb236d"/>
      <stop offset="1" stop-color="#4c246d"/>
    </linearGradient>
    <linearGradient id="linear-gradient-72" x1="-5304.84" y1="2931.71" x2="-5759.23" y2="3288.49" gradientTransform="matrix(-1, -0.02, -0.02, 1, -2640.8, 12.01)" xlink:href="#linear-gradient-38"/>
    <linearGradient id="linear-gradient-73" x1="-5582.78" y1="2936.85" x2="-5606.64" y2="3145.07" gradientTransform="matrix(-1, -0.02, -0.02, 1, -2640.8, 12.01)" xlink:href="#linear-gradient-62"/>
    <linearGradient id="linear-gradient-74" x1="-5224.12" y1="3034.51" x2="-5678.5" y2="3391.3" gradientTransform="matrix(-1, -0.02, -0.02, 1, -2640.8, 12.01)" xlink:href="#linear-gradient-38"/>
    <linearGradient id="linear-gradient-75" x1="-5340.86" y1="2742.23" x2="-5336.68" y2="3201.77" xlink:href="#linear-gradient-71"/>
    <linearGradient id="linear-gradient-76" x1="-5388.44" y1="2959.13" x2="-5412.3" y2="3167.34" gradientTransform="matrix(-1, -0.02, -0.02, 1, -2640.8, 12.01)" xlink:href="#linear-gradient-62"/>
    <linearGradient id="linear-gradient-77" x1="-5192.38" y1="1595.27" x2="-5673.17" y2="3206.21" gradientTransform="matrix(-1, -0.02, -0.02, 1, -2640.8, 12.01)" xlink:href="#linear-gradient-49"/>
    <linearGradient id="linear-gradient-78" x1="-4997.25" y1="1897.11" x2="-4998.8" y2="1912.24" gradientTransform="matrix(-1, 0, 0, 1, -2304.64, 0)" gradientUnits="userSpaceOnUse">
      <stop offset="0" stop-color="#fdf53f"/>
      <stop offset="0.66" stop-color="#e57a58"/>
      <stop offset="1" stop-color="#d93c65"/>
    </linearGradient>
    <linearGradient id="linear-gradient-79" x1="-5202.03" y1="1885.58" x2="-5313.65" y2="2978.47" gradientTransform="matrix(-1, 0, 0, 1, -2304.64, 0)" xlink:href="#linear-gradient-59"/>
    <linearGradient id="linear-gradient-80" x1="-5530.05" y1="1605.77" x2="-5621.14" y2="1999.43" gradientTransform="matrix(-1, -0.02, -0.02, 1, -2640.8, 12.01)" xlink:href="#linear-gradient-62"/>
    <linearGradient id="linear-gradient-81" x1="-5346.98" y1="1743.39" x2="-4709.4" y2="1591.41" xlink:href="#linear-gradient-62"/>
    <linearGradient id="linear-gradient-82" x1="-5147.95" y1="1324.93" x2="-5188.54" y2="1877.53" gradientTransform="matrix(-1, 0, 0, 1, -2304.64, 0)" xlink:href="#linear-gradient-71"/>
    <linearGradient id="linear-gradient-83" x1="-5618.63" y1="1771.78" x2="-4821.65" y2="1734.71" xlink:href="#linear-gradient-62"/>
    <linearGradient id="linear-gradient-84" x1="-5617.93" y1="1700.44" x2="-5806.51" y2="2046.9" gradientTransform="matrix(-1, -0.02, -0.02, 1, -2640.8, 12.01)" xlink:href="#linear-gradient-59"/>
    <linearGradient id="linear-gradient-85" x1="-4562.61" y1="1721.07" x2="-5137.06" y2="2451.62" gradientTransform="matrix(-1, 0, 0, 1, -2304.64, 0)" xlink:href="#linear-gradient-49"/>
    <linearGradient id="linear-gradient-86" x1="-5053.39" y1="1755.56" x2="-5534.18" y2="3366.51" gradientTransform="matrix(-1, 0, 0, 1, -2304.64, 0)" xlink:href="#linear-gradient-49"/>
    <linearGradient id="linear-gradient-87" x1="-5186.13" y1="1715.94" x2="-5666.92" y2="3326.9" gradientTransform="matrix(-1, 0, 0, 1, -2304.64, 0)" xlink:href="#linear-gradient-49"/>
    <linearGradient id="linear-gradient-88" x1="-5050.32" y1="1756.48" x2="-5531.1" y2="3367.42" gradientTransform="matrix(-1, 0, 0, 1, -2304.64, 0)" xlink:href="#linear-gradient-49"/>
    <linearGradient id="linear-gradient-89" x1="7307.27" y1="1543.92" x2="6811.9" y2="2091.99" gradientTransform="translate(-4302.29)" xlink:href="#linear-gradient-49"/>
    <linearGradient id="linear-gradient-90" x1="6400.12" y1="730.64" x2="6561.71" y2="730.64" gradientTransform="translate(-3425.65 -177.54) rotate(9.8)" xlink:href="#linear-gradient-49"/>
    <linearGradient id="linear-gradient-91" x1="-4744.09" y1="3526.22" x2="-4113.88" y2="3526.22" gradientTransform="translate(-2874.49 5342.05) rotate(172.41)" xlink:href="#linear-gradient"/>
    <linearGradient id="linear-gradient-92" x1="-4083.24" y1="3360.22" x2="-4046.43" y2="3360.22" gradientTransform="translate(-2874.49 5342.05) rotate(172.41)" xlink:href="#linear-gradient"/>
    <linearGradient id="linear-gradient-93" x1="-3892.2" y1="3641.47" x2="-3866.94" y2="3641.47" gradientTransform="translate(-2874.49 5342.05) rotate(172.41)" xlink:href="#linear-gradient"/>
    <linearGradient id="linear-gradient-94" x1="-4510.68" y1="3928.77" x2="-3861.54" y2="3928.77" gradientTransform="translate(-2874.49 5342.05) rotate(172.41)" xlink:href="#linear-gradient"/>
    <linearGradient id="linear-gradient-95" x1="-4575.38" y1="4065.59" x2="-4539.05" y2="4065.59" gradientTransform="translate(-2874.49 5342.05) rotate(172.41)" xlink:href="#linear-gradient"/>
    <linearGradient id="linear-gradient-96" x1="-2806.39" y1="4372.09" x2="-5121.87" y2="3355.54" gradientTransform="translate(-2874.49 5342.05) rotate(172.41)" xlink:href="#linear-gradient-45"/>
    <linearGradient id="linear-gradient-97" x1="-5118.98" y1="4051.11" x2="-5101.01" y2="4051.11" gradientTransform="translate(-2874.49 5342.05) rotate(172.41)" xlink:href="#linear-gradient"/>
    <linearGradient id="linear-gradient-98" x1="-5126.25" y1="3849.31" x2="-4774.18" y2="3849.31" gradientTransform="translate(-2874.49 5342.05) rotate(172.41)" xlink:href="#linear-gradient"/>
    <linearGradient id="linear-gradient-99" x1="-4969.13" y1="4186.81" x2="-4567.3" y2="4186.81" gradientTransform="translate(-2874.49 5342.05) rotate(172.41)" xlink:href="#linear-gradient"/>
    <linearGradient id="linear-gradient-100" x1="-5013.3" y1="4211.95" x2="-4985.82" y2="4211.95" gradientTransform="translate(-2874.49 5342.05) rotate(172.41)" xlink:href="#linear-gradient"/>
    <linearGradient id="linear-gradient-101" x1="-2988.05" y1="4785.25" x2="-5303.53" y2="3768.7" gradientTransform="translate(-2874.49 5342.05) rotate(172.41)" xlink:href="#linear-gradient-45"/>
  </defs>
  <title>seguridad</title>
  <g id="Background">
    <rect class="cls-1" width="3710" height="3710"/>
  </g>
  <g id="Illustration">
    <g>
      <path class="cls-2" d="M2920.16,2852.81c-57.31,60-111.54,98.76-154.39,129.35-503.62,359.58-1099.54,254.76-1226.19,229.16-187-37.8-548.54-110.86-809.9-416.71-395.43-462.73-333.85-1191.74-27.13-1673,56.1-88,352.45-576.58,954.79-654.93,364.53-47.42,789.46,48.21,1097.18,304.75C3400.45,1310,3354.46,2397.83,2920.16,2852.81Z"/>
      <g class="cls-3">
        <g>
          <g>
            <g>
              <path class="cls-4" d="M2901,618.07h0a6.72,6.72,0,0,1,.51,8.92l-69.25,87.22-18.44-18.44,77.7-77.7A6.72,6.72,0,0,1,2901,618.07Z"/>
              <path class="cls-5" d="M2742.85,618.07h0a6.72,6.72,0,0,0-.51,8.92l69.25,87.22L2830,695.77l-77.7-77.7A6.72,6.72,0,0,0,2742.85,618.07Z"/>
            </g>
            <path class="cls-6" d="M2884,520.24l-52.45-52.45a13.57,13.57,0,0,0-19.18,0l-52.44,52.45a13.55,13.55,0,0,0-2,16.54L2809.4,618l3.42,251.65h18.25L2834.48,618,2886,536.78A13.55,13.55,0,0,0,2884,520.24Zm-29.59,18.65-22.86,22.86a13.56,13.56,0,0,1-19.18,0l-22.86-22.86a13.57,13.57,0,0,1,0-19.18l22.86-22.86a13.57,13.57,0,0,1,19.18,0l22.86,22.86A13.56,13.56,0,0,1,2854.39,538.89Z"/>
          </g>
          <g>
            <g>
              <path class="cls-7" d="M2901,1180.38h0a6.7,6.7,0,0,0,.51-8.91l-69.25-87.23-18.44,18.44,77.7,77.7A6.7,6.7,0,0,0,2901,1180.38Z"/>
              <path class="cls-8" d="M2742.85,1180.38h0a6.7,6.7,0,0,1-.51-8.91l69.25-87.23,18.44,18.44-77.7,77.7A6.7,6.7,0,0,1,2742.85,1180.38Z"/>
            </g>
            <path class="cls-9" d="M2886,1261.67l-51.55-81.25-3.41-251.65h-18.25l-3.42,251.65-51.54,81.25a13.57,13.57,0,0,0,2,16.55l52.44,52.44a13.56,13.56,0,0,0,19.18,0l52.45-52.44A13.57,13.57,0,0,0,2886,1261.67Zm-31.64,17.07-22.86,22.86a13.56,13.56,0,0,1-19.18,0l-22.86-22.86a13.57,13.57,0,0,1,0-19.18l22.86-22.86a13.57,13.57,0,0,1,19.18,0l22.86,22.86A13.56,13.56,0,0,1,2854.39,1278.74Z"/>
          </g>
        </g>
        <g>
          <g>
            <g>
              <path class="cls-10" d="M2749.86,616.2h0a6.71,6.71,0,0,1,4.9,7.46L2738.4,733.83l-25.19-6.75,28.44-106.14A6.7,6.7,0,0,1,2749.86,616.2Z"/>
              <path class="cls-11" d="M2612.87,695.29h0a6.71,6.71,0,0,0,4,8l103.58,40.92,6.75-25.19-106.14-28.44A6.7,6.7,0,0,0,2612.87,695.29Z"/>
            </g>
            <path class="cls-12" d="M2686.17,540l-71.64-19.2a13.57,13.57,0,0,0-16.61,9.59L2578.73,602a13.54,13.54,0,0,0,6.49,15.35l85.27,44.6,128.78,216.23,15.8-9.13L2692.2,649.44l4-96.14A13.56,13.56,0,0,0,2686.17,540Zm-16.29,30.94-8.37,31.23a13.56,13.56,0,0,1-16.61,9.59l-31.23-8.37a13.56,13.56,0,0,1-9.59-16.61l8.37-31.22a13.56,13.56,0,0,1,16.61-9.59l31.23,8.36A13.57,13.57,0,0,1,2669.88,570.94Z"/>
          </g>
          <g>
            <g>
              <path class="cls-13" d="M3031,1103.17h0a6.69,6.69,0,0,0-4-8l-103.59-40.92-6.75,25.19,106.14,28.44A6.69,6.69,0,0,0,3031,1103.17Z"/>
              <path class="cls-14" d="M2894,1182.26h0a6.7,6.7,0,0,1-4.89-7.46l16.36-110.17,25.19,6.75-28.44,106.14A6.7,6.7,0,0,1,2894,1182.26Z"/>
            </g>
            <path class="cls-15" d="M3058.67,1181.07l-85.27-44.59L2844.62,920.25l-15.81,9.12L2951.68,1149l-4,96.14a13.55,13.55,0,0,0,10,13.3l71.63,19.2a13.57,13.57,0,0,0,16.61-9.59l19.2-71.64A13.58,13.58,0,0,0,3058.67,1181.07Zm-18.87,30.6-8.36,31.23a13.56,13.56,0,0,1-16.61,9.59l-31.23-8.37a13.56,13.56,0,0,1-9.59-16.61l8.37-31.22a13.55,13.55,0,0,1,16.61-9.59l31.22,8.36A13.56,13.56,0,0,1,3039.8,1211.67Z"/>
          </g>
        </g>
        <g>
          <g>
            <g>
              <path class="cls-16" d="M2618,690.16h0a6.7,6.7,0,0,1,8,4l40.92,103.59-25.19,6.75-28.44-106.14A6.7,6.7,0,0,1,2618,690.16Z"/>
              <path class="cls-17" d="M2538.91,827.15h0a6.7,6.7,0,0,0,7.46,4.89l110.17-16.36-6.75-25.19-106.14,28.44A6.72,6.72,0,0,0,2538.91,827.15Z"/>
            </g>
            <path class="cls-18" d="M2524.74,656l-71.64,19.2a13.56,13.56,0,0,0-9.58,16.61l19.19,71.64a13.57,13.57,0,0,0,13.3,10l96.14-4L2791.8,892.36l9.12-15.8L2584.69,747.77l-44.59-85.26A13.56,13.56,0,0,0,2524.74,656Zm1.37,35,8.36,31.23a13.56,13.56,0,0,1-9.58,16.61l-31.23,8.36a13.56,13.56,0,0,1-16.61-9.59l-8.37-31.22a13.56,13.56,0,0,1,9.59-16.61l31.23-8.37A13.56,13.56,0,0,1,2526.11,691Z"/>
          </g>
          <g>
            <g>
              <path class="cls-19" d="M3105,971.31h0a6.71,6.71,0,0,0-7.46-4.9l-110.17,16.36,6.75,25.19,106.14-28.44A6.7,6.7,0,0,0,3105,971.31Z"/>
              <path class="cls-20" d="M3025.88,1108.3h0a6.7,6.7,0,0,1-8-4L2977,1000.7l25.19-6.75,28.44,106.14A6.72,6.72,0,0,1,3025.88,1108.3Z"/>
            </g>
            <path class="cls-21" d="M3167.87,1025l-96.14,4L2852.09,906.1,2843,921.9l216.23,128.78,44.6,85.27a13.56,13.56,0,0,0,15.35,6.5l71.64-19.2a13.56,13.56,0,0,0,9.59-16.61l-19.2-71.64A13.55,13.55,0,0,0,3167.87,1025Zm-1,35.93,8.36,31.23a13.56,13.56,0,0,1-9.58,16.61l-31.23,8.37a13.56,13.56,0,0,1-16.61-9.59l-8.37-31.23a13.57,13.57,0,0,1,9.59-16.61l31.23-8.37A13.58,13.58,0,0,1,3166.84,1060.88Z"/>
          </g>
        </g>
        <g>
          <g>
            <g>
              <path class="cls-22" d="M2540.79,820.14h0a6.7,6.7,0,0,1,8.91-.51l87.23,69.25-18.44,18.44-77.7-77.7A6.7,6.7,0,0,1,2540.79,820.14Z"/>
              <path class="cls-23" d="M2540.79,978.32h0a6.7,6.7,0,0,0,8.91.51l87.23-69.25-18.44-18.44-77.7,77.7A6.7,6.7,0,0,0,2540.79,978.32Z"/>
            </g>
            <path class="cls-24" d="M2443,837.2l-52.44,52.44a13.56,13.56,0,0,0,0,19.18L2443,961.26a13.56,13.56,0,0,0,16.55,2l81.25-51.54,251.65-3.42V890.1l-251.65-3.41-81.25-51.55A13.57,13.57,0,0,0,2443,837.2Zm18.66,29.58,22.86,22.86a13.57,13.57,0,0,1,0,19.18l-22.86,22.86a13.57,13.57,0,0,1-19.18,0l-22.86-22.86a13.56,13.56,0,0,1,0-19.18l22.86-22.86A13.56,13.56,0,0,1,2461.61,866.78Z"/>
          </g>
          <g>
            <g>
              <path class="cls-25" d="M3103.1,820.14h0a6.7,6.7,0,0,0-8.91-.51L3007,888.88l18.44,18.44,77.7-77.7A6.72,6.72,0,0,0,3103.1,820.14Z"/>
              <path class="cls-26" d="M3103.1,978.32h0a6.7,6.7,0,0,1-8.91.51L3007,909.58l18.44-18.44,77.7,77.7A6.72,6.72,0,0,1,3103.1,978.32Z"/>
            </g>
            <path class="cls-27" d="M3184.39,835.14l-81.26,51.55-251.65,3.41v18.25l251.65,3.42,81.26,51.54a13.54,13.54,0,0,0,16.54-2l52.45-52.44a13.57,13.57,0,0,0,0-19.18l-52.45-52.44A13.56,13.56,0,0,0,3184.39,835.14Zm17.07,31.64,22.86,22.86a13.57,13.57,0,0,1,0,19.18l-22.86,22.86a13.57,13.57,0,0,1-19.18,0l-22.86-22.86a13.56,13.56,0,0,1,0-19.18l22.86-22.86A13.56,13.56,0,0,1,3201.46,866.78Z"/>
          </g>
        </g>
        <g>
          <g>
            <g>
              <path class="cls-28" d="M2538.91,971.31h0a6.71,6.71,0,0,1,7.46-4.9l110.17,16.36-6.75,25.19-106.14-28.44A6.71,6.71,0,0,1,2538.91,971.31Z"/>
              <path class="cls-29" d="M2618,1108.3h0a6.7,6.7,0,0,0,8-4l40.92-103.59L2641.7,994l-28.44,106.14A6.7,6.7,0,0,0,2618,1108.3Z"/>
            </g>
            <path class="cls-30" d="M2462.71,1035l-19.19,71.64a13.56,13.56,0,0,0,9.58,16.61l71.64,19.2a13.58,13.58,0,0,0,15.36-6.5l44.59-85.27L2800.92,921.9l-9.12-15.8L2572.15,1029l-96.14-4A13.57,13.57,0,0,0,2462.71,1035Zm30.95,16.29,31.23,8.37a13.56,13.56,0,0,1,9.58,16.61l-8.36,31.23a13.57,13.57,0,0,1-16.61,9.59l-31.23-8.37a13.56,13.56,0,0,1-9.59-16.61l8.37-31.23A13.57,13.57,0,0,1,2493.66,1051.29Z"/>
          </g>
          <g>
            <g>
              <path class="cls-31" d="M3025.88,690.16h0a6.7,6.7,0,0,0-8,4L2977,797.76l25.19,6.75,28.44-106.14A6.71,6.71,0,0,0,3025.88,690.16Z"/>
              <path class="cls-32" d="M3105,827.15h0a6.7,6.7,0,0,1-7.46,4.89l-110.17-16.36,6.75-25.19,106.14,28.44A6.71,6.71,0,0,1,3105,827.15Z"/>
            </g>
            <path class="cls-33" d="M3103.79,662.51l-44.6,85.26L2843,876.56l9.13,15.8,219.64-122.87,96.14,4a13.55,13.55,0,0,0,13.3-10l19.2-71.64a13.56,13.56,0,0,0-9.59-16.61L3119.14,656A13.55,13.55,0,0,0,3103.79,662.51Zm30.6,18.86,31.23,8.37a13.55,13.55,0,0,1,9.58,16.61l-8.36,31.22a13.56,13.56,0,0,1-16.61,9.59L3119,738.8a13.57,13.57,0,0,1-9.59-16.61l8.37-31.23A13.56,13.56,0,0,1,3134.39,681.37Z"/>
          </g>
        </g>
        <g>
          <g>
            <g>
              <path class="cls-34" d="M2612.87,1103.17h0a6.71,6.71,0,0,1,4-8l103.58-40.92,6.75,25.19-106.14,28.44A6.7,6.7,0,0,1,2612.87,1103.17Z"/>
              <path class="cls-35" d="M2749.86,1182.26h0a6.71,6.71,0,0,0,4.9-7.46l-16.36-110.17-25.19,6.75,28.44,106.14A6.7,6.7,0,0,0,2749.86,1182.26Z"/>
            </g>
            <path class="cls-36" d="M2578.73,1196.43l19.19,71.64a13.58,13.58,0,0,0,16.61,9.59l71.64-19.2a13.57,13.57,0,0,0,10-13.3l-4-96.14,122.87-219.65-15.8-9.12-128.78,216.23-85.27,44.59A13.56,13.56,0,0,0,2578.73,1196.43Zm34.94-1.37,31.23-8.36a13.56,13.56,0,0,1,16.61,9.59l8.37,31.22a13.56,13.56,0,0,1-9.59,16.61l-31.23,8.37a13.56,13.56,0,0,1-16.61-9.59l-8.37-31.23A13.57,13.57,0,0,1,2613.67,1195.06Z"/>
          </g>
          <g>
            <g>
              <path class="cls-37" d="M2894,616.2h0a6.7,6.7,0,0,0-4.89,7.46l16.36,110.17,25.19-6.75-28.44-106.14A6.7,6.7,0,0,0,2894,616.2Z"/>
              <path class="cls-38" d="M3031,695.29h0a6.69,6.69,0,0,1-4,8l-103.59,40.92L2916.66,719l106.14-28.44A6.69,6.69,0,0,1,3031,695.29Z"/>
            </g>
            <path class="cls-39" d="M2947.67,553.3l4,96.14L2828.81,869.08l15.81,9.13L2973.4,662l85.27-44.6a13.56,13.56,0,0,0,6.49-15.35L3046,530.39a13.56,13.56,0,0,0-16.61-9.59L2957.72,540A13.54,13.54,0,0,0,2947.67,553.3Zm35.93,1,31.23-8.36a13.56,13.56,0,0,1,16.61,9.59l8.36,31.22a13.56,13.56,0,0,1-9.59,16.61L2999,611.76a13.55,13.55,0,0,1-16.61-9.59L2974,570.94A13.56,13.56,0,0,1,2983.6,554.33Z"/>
          </g>
        </g>
      </g>
      <g>
        <rect class="cls-40" x="691.43" y="966.39" width="2464.15" height="705.99" rx="34.1" transform="translate(3847.01 2638.77) rotate(180)"/>
        <rect class="cls-41" x="730.15" y="1348.99" width="2386.72" height="63.77" transform="translate(3847.01 2761.75) rotate(180)"/>
        <path class="cls-42" d="M913.65,1216.9H2933.36c18.33,0,33.2,18.84,33.2,42.07v240.5c0,17.56-8.61,33.28-21.59,39.42l-180.33,85.29a27.19,27.19,0,0,1-11.61,2.65H1094a27.12,27.12,0,0,1-11.6-2.65l-180.33-85.29c-13-6.14-21.59-21.86-21.59-39.42V1259C880.46,1235.74,895.32,1216.9,913.65,1216.9Z"/>
        <rect class="cls-43" x="930.56" y="1312.55" width="1985.89" height="36.44" rx="4" transform="translate(3847.01 2661.54) rotate(180)"/>
        <rect class="cls-44" x="931.89" y="1380.87" width="1985.89" height="36.44" rx="4" transform="translate(3849.67 2798.18) rotate(180)"/>
        <rect class="cls-45" x="933.22" y="1449.19" width="1985.89" height="36.44" rx="4" transform="translate(3852.33 2934.83) rotate(180)"/>
        <path class="cls-46" d="M2608.05,1039.26h382.61a31.89,31.89,0,0,1,0,63.77H2608.05a31.89,31.89,0,0,1,0-63.77Z"/>
      </g>
      <g>
        <path class="cls-47" d="M1965.29,3209.26S2464.76,2162,3136.37,1676.73c45.15-32.62,108.51-2.64,111.56,53C3268.34,2101.59,3223.1,3206.51,1965.29,3209.26Z"/>
        <path class="cls-48" d="M2090.59,3161.81a3.07,3.07,0,0,0,2.92,5.39c129.34-58.86,648.12-373.23,982.29-1150.63,1.07-2.5-2.55-4.32-3.83-1.92C2977.28,2191.14,2606.45,2837.23,2090.59,3161.81Z"/>
      </g>
      <g>
        <path class="cls-49" d="M1981.05,3016.16s333.79-1251.19,971.39-1921c42.86-45,118.51-25.08,133.24,35.31C3184.13,1534.34,3360.5,2755.86,1981.05,3016.16Z"/>
        <path class="cls-48" d="M2108.82,2938.46a3.43,3.43,0,0,0,4.3,5.32c129.87-91,634.75-542.06,842.38-1463.35.66-3-3.68-4.21-4.6-1.32C2883.11,1692.11,2608.41,2476.83,2108.82,2938.46Z"/>
      </g>
      <g>
        <path class="cls-50" d="M2454.87,3218.42H576.46c-63.6,0-115.16-36.43-115.16-81.38V1742c0-43.88,49.25-79.87,111.32-81.33l1950.62-46c66.68-1.57,121.28,37.1,118.92,84.22l-72.21,1441C2567.76,3183.72,2516.88,3218.42,2454.87,3218.42Z"/>
        <g>
          <circle class="cls-51" cx="1318.78" cy="2417.84" r="628.54" transform="translate(-1323.41 1640.68) rotate(-45)"/>
          <circle class="cls-52" cx="1318.78" cy="2417.84" r="589.26"/>
          <g>
            <g>
              <path class="cls-53" d="M1454.84,2083c0,128.43-68,278.67-151.9,278.67S1314.8,2188.2,1151.05,2083c-102.16-65.63,68-186.42,151.89-186.42S1454.84,1954.56,1454.84,2083Z"/>
              <path class="cls-54" d="M1158.74,2717.92c0-128.43,68-278.67,151.89-278.67s-11.85,173.46,151.9,278.67c102.15,65.63-68,186.42-151.9,186.42S1158.74,2846.35,1158.74,2717.92Z"/>
              <path class="cls-55" d="M989.32,2252.4c128.44,0,278.67,68,278.67,151.9s-173.46-11.85-278.67,151.9c-65.63,102.15-186.42-68-186.42-151.9S860.89,2252.4,989.32,2252.4Z"/>
              <path class="cls-56" d="M1624.25,2548.51c-128.43,0-278.67-68-278.67-151.9s173.47,11.85,278.67-151.9c65.64-102.15,186.43,68,186.43,151.9S1752.69,2548.51,1624.25,2548.51Z"/>
              <circle class="cls-57" cx="1308.23" cy="2402.64" r="122.54" transform="translate(-1315.75 1628.78) rotate(-45)"/>
            </g>
            <g>
              <g>
                <path class="cls-58" d="M939.48,2117.74a3.28,3.28,0,0,1-1.86-.57,3.37,3.37,0,0,1-.94-4.67,309,309,0,0,1,166.17-123.7,3.37,3.37,0,1,1,2,6.44,302.21,302.21,0,0,0-162.54,121A3.38,3.38,0,0,1,939.48,2117.74Z"/>
                <path class="cls-58" d="M981.6,2183a3.36,3.36,0,0,1-2.86-5.13A302.54,302.54,0,0,1,1133,2052.42a3.37,3.37,0,0,1,2.29,6.33,295.85,295.85,0,0,0-150.79,122.69A3.35,3.35,0,0,1,981.6,2183Z"/>
              </g>
              <path class="cls-58" d="M1482.68,2834.59a3.37,3.37,0,0,1-1.22-6.51c74.36-28.82,134.63-79,169.73-141.28a3.37,3.37,0,0,1,5.87,3.31c-35.86,63.63-97.36,114.86-173.17,144.25A3.25,3.25,0,0,1,1482.68,2834.59Z"/>
              <path class="cls-58" d="M1436.12,2775.47a3.37,3.37,0,0,1-1.36-6.45c69.37-30.55,124.64-80.77,155.61-141.39a3.37,3.37,0,0,1,6,3.06c-31.68,62-88.11,113.32-158.9,144.5A3.4,3.4,0,0,1,1436.12,2775.47Z"/>
            </g>
            <g>
              <g>
                <path class="cls-58" d="M945.38,2719.19a3.36,3.36,0,0,1-2.3-.91,309,309,0,0,1-95-184.08,3.37,3.37,0,0,1,6.68-.91,302.22,302.22,0,0,0,92.94,180.07,3.37,3.37,0,0,1-2.3,5.83Z"/>
                <path class="cls-58" d="M1016.67,2688.25a3.35,3.35,0,0,1-2.21-.83,302.64,302.64,0,0,1-98.73-172.58,3.37,3.37,0,0,1,2.7-3.93,3.32,3.32,0,0,1,3.92,2.7,295.87,295.87,0,0,0,96.53,168.73,3.37,3.37,0,0,1,.33,4.75A3.33,3.33,0,0,1,1016.67,2688.25Z"/>
              </g>
              <path class="cls-58" d="M1741.05,2299.86a3.36,3.36,0,0,1-3.29-2.67c-16.34-78.06-56-145.7-111.78-190.47a3.36,3.36,0,1,1,4.21-5.24c57,45.73,97.5,114.74,114.16,194.32a3.36,3.36,0,0,1-3.3,4.06Z"/>
              <path class="cls-58" d="M1675.15,2336.18a3.37,3.37,0,0,1-3.26-2.53c-18.86-73.42-59.42-136.12-114.2-176.54a3.37,3.37,0,0,1,4-5.42c56,41.34,97.48,105.37,116.72,180.29a3.37,3.37,0,0,1-2.42,4.1A3.44,3.44,0,0,1,1675.15,2336.18Z"/>
            </g>
          </g>
        </g>
        <g>
          <path class="cls-59" d="M2437.05,1953.93H1965.64a23,23,0,0,1-23-23h0a23,23,0,0,1,23-23h471.41a23,23,0,0,1,23,23h0A23,23,0,0,1,2437.05,1953.93Z"/>
          <path class="cls-60" d="M2437.05,2029.79H1965.64a23,23,0,0,1-23-23h0a23,23,0,0,1,23-23h471.41a23,23,0,0,1,23,23h0A23,23,0,0,1,2437.05,2029.79Z"/>
          <path class="cls-61" d="M2437.05,2105.65H1965.64a23,23,0,0,1-23-23h0a23,23,0,0,1,23-23h471.41a23,23,0,0,1,23,23h0A23,23,0,0,1,2437.05,2105.65Z"/>
        </g>
        <g>
          <circle class="cls-62" cx="1899.86" cy="1757.14" r="56.89" transform="translate(-300.66 3119.03) rotate(-74.52)"/>
          <circle class="cls-63" cx="1899.86" cy="1754.43" r="40.64" transform="translate(-677.32 1540.77) rotate(-37.98)"/>
        </g>
        <g>
          <circle class="cls-64" cx="2086.8" cy="1757.14" r="56.89" transform="translate(-633.52 1551.85) rotate(-35.78)"/>
          <circle class="cls-65" cx="2086.8" cy="1754.43" r="40.64" transform="translate(-502.71 2607.21) rotate(-58.28)"/>
        </g>
        <path class="cls-58" d="M545.29,2308.78a3.37,3.37,0,0,1-3.37-3.37V1815.49a85.12,85.12,0,0,1,79.28-84.72l414.24-27.46a3.37,3.37,0,1,1,.44,6.72l-414.23,27.46a78.37,78.37,0,0,0-73,78v489.92A3.37,3.37,0,0,1,545.29,2308.78Z"/>
        <path class="cls-58" d="M2442,3151.35H2065.17a3.37,3.37,0,0,1,0-6.74H2442a60.82,60.82,0,0,0,61-58.76l19.37-523.19a3.26,3.26,0,0,1,3.49-3.24,3.37,3.37,0,0,1,3.24,3.49l-19.37,523.19A67.54,67.54,0,0,1,2442,3151.35Z"/>
      </g>
      <g>
        <path class="cls-66" d="M3042.71,2256c10.66-28.34,15.26-62.06,8.25-101.38,43.05-7.49,83.22-22.85,118.46-47.28,4.19,60.51-11.88,127.34-67.6,193.62h0c-27.05,32.17-63.44,64.22-111.4,95.35l-14.13,30.16-42.44-52.86S3012.5,2336.31,3042.71,2256Z"/>
        <g>
          <path class="cls-67" d="M2445.62,1992.68a216.83,216.83,0,0,0,115.25-10.55,207.43,207.43,0,0,0,3.89,22.55c7.35,33.08,17.48,65.13,31.68,94.67-65.2,9.64-124.07-9.28-168-31.85A159.36,159.36,0,0,1,2445.62,1992.68Z"/>
          <path class="cls-68" d="M2560.87,1982.13c56.52-21,100.53-61.1,136.68-89.55,76.14-59.91,133.93-29,133.93-29l-83,156.88c-51.82,48.82-103.69,71.71-152.08,78.86-14.2-29.54-24.33-61.59-31.68-94.67A207.43,207.43,0,0,1,2560.87,1982.13Z"/>
          <path class="cls-69" d="M2282.64,1917.17l38.37,22.39c45.95,30.27,87.27,46.58,124.61,53.12a159.36,159.36,0,0,0-17.15,74.82c-48.68-25-78.94-54.54-78.94-54.54C2262.71,1956.93,2282.64,1917.17,2282.64,1917.17Z"/>
        </g>
        <g>
          <path class="cls-70" d="M2717.54,3002.52,2404.42,1687.77l-134,25.86L2469,3050.48c.44,3,.95,6,1.52,8.92l8.63,44.72C2494,3180.86,2547.94,3235,2599.69,3225l61.51-11.87c51.74-10,81.68-80.29,66.87-157l-8.63-44.72C2718.87,3008.4,2718.23,3005.45,2717.54,3002.52Zm-103,134c-34.33,6.62-71.2-34.84-82.35-92.62s7.64-110,42-116.61,71.2,34.84,82.35,92.62S2648.84,3129.85,2614.51,3136.48Z"/>
          <path class="cls-71" d="M2384.55,1221.65l50.08,259.48a60.67,60.67,0,0,1-14.11,51.66l-63.88,72.27a60.64,60.64,0,0,1-72.67,14l-86.19-43.31a60.67,60.67,0,0,1-32.32-42.7l-50.08-259.49c-7.55-39.14-58-51.75-82.36-20.19-58.25,75.5-85,176.48-65.06,279.73,36,186.61,206.3,286.89,385.79,252.25S2654,1594.29,2618,1407.68c-19.92-103.24-82.32-187-164.48-235.43C2419.13,1152,2377,1182.51,2384.55,1221.65Z"/>
          <path class="cls-72" d="M2360.09,1226.37l50.08,259.48a60.64,60.64,0,0,1-14.1,51.66l-63.88,72.27a60.66,60.66,0,0,1-72.68,14l-86.18-43.31a60.64,60.64,0,0,1-32.32-42.7l-50.08-259.49c-7.55-39.14-58-51.75-82.36-20.19-58.25,75.5-85,176.48-65.06,279.73,36,186.61,206.29,286.89,385.79,252.25s300.22-191.09,264.21-377.7c-19.93-103.25-82.32-187-164.49-235.43C2394.68,1156.74,2352.54,1187.23,2360.09,1226.37Z"/>
          <path class="cls-73" d="M2698,3006.28,2384.91,1691.53l-134,25.87,198.63,1336.84q.66,4.49,1.52,8.92l8.64,44.72c14.81,76.74,68.76,130.86,120.5,120.87l61.51-11.87c51.75-10,81.68-80.29,66.87-157l-8.63-44.72C2699.36,3012.17,2698.72,3009.22,2698,3006.28Zm-103,134c-34.33,6.63-71.2-34.84-82.35-92.61s7.64-110,42-116.61,71.2,34.84,82.35,92.61S2629.33,3133.62,2595,3140.24Z"/>
        </g>
        <path class="cls-74" d="M2277.63,1975.05a28.38,28.38,0,0,1,6.59-23.33c10.77-12.47,29.39-29.55,42.9-18,20.11,17.14-1.93,75.78-1.93,75.78l-22.3,34-.31,21.74C2290.52,2051.13,2283.3,2016.38,2277.63,1975.05Z"/>
        <path class="cls-75" d="M2791.69,3238.72a10.87,10.87,0,0,1,.33-2.82c15.12-55.5,85.58-88.91,85.58-88.91l27.63,2.69c15,49.45,12.36,79.55,9.55,92.93-.07.38-.2.73-.3,1.09C2891.62,3245.31,2844.63,3245.76,2791.69,3238.72Z"/>
        <path class="cls-76" d="M2914.48,3243.7a12,12,0,0,1-8.95,8.7c-32.59,6.22-84.08-.25-105.68-3.49-4.77-.72-8.18-5.2-8.16-10.19C2844.63,3245.76,2891.62,3245.31,2914.48,3243.7Z"/>
        <path class="cls-77" d="M2917.13,3108.69l-12.78,56.18a9.24,9.24,0,0,1-8,7.44,78.73,78.73,0,0,1-18.14-.63c-6-1-10.12-7.23-8.93-13.8l9.09-49.92Z"/>
        <path class="cls-78" d="M2671.85,3238.56c30.56-.28,46.43-3.58,54.66-6.77,0,3-.11,6.13-.27,9.33-.17,3.42-2.75,6.11-5.87,6l-167.72-4.25c-5.36-.14-8.37-6.41-6-11.27C2568.65,3233.86,2624.59,3239,2671.85,3238.56Z"/>
        <path class="cls-79" d="M2546.69,3231.63a9,9,0,0,1,.69-1.25c15.21-20.42,53.72-60.93,128.61-77.4l35.79-.45s15.4,28,14.73,79.26c-8.23,3.19-24.1,6.49-54.66,6.77C2624.59,3239,2568.65,3233.86,2546.69,3231.63Z"/>
        <path class="cls-80" d="M2719.43,3098.45c-.44,2.66-6.11,43.09-8.31,58.76a7.8,7.8,0,0,1-6.69,6.91c-6.11.61-16,1.08-24.56-.85-4.64-1-7.92-5.57-7.82-10.77l1.2-63.6Z"/>
        <path class="cls-81" d="M2765.35,2337.1s-99.43,412.73-105.66,825.32c-.11,7.52,57.42,14.16,58.74,7.23,13.44-70.71,102-531.25,142.78-595.37,0,0-.92,405.88-12.73,590.37-.29,4.59,51.89,19.62,62.79,7.91,0,0,73.54-449.21,76.55-731.11.16-14.52-26-104.35-26-104.35Z"/>
        <path class="cls-82" d="M2691.79,1898c6.15-7.88-1.6,16,0,0Z"/>
        <path class="cls-83" d="M2691.79,1898c.15-1.49.38-3.32.71-5.55,108.77-75.41,269.61-33.17,332-24.11a83.42,83.42,0,0,1,52.21,29.31c31.77,38.19,86.3,116.44,92.75,209.66-35.24,24.43-75.41,39.79-118.46,47.28-3.59-20.12-10.21-41.7-20.64-64.79a157.53,157.53,0,0,1-4.39,15.81c-46.85,139.21-71.29,218.71-71.7,245.57-.06,3.65-214.61-5.24-176.61-6.35,15.88-.47-74-317.41-120.92-373.66C2653.91,1967.86,2697.94,1890.16,2691.79,1898Z"/>
        <path class="cls-84" d="M2926,1753.92l9,114.77s-64.81,18.2-111.06-15.76l34.91-103.5Z"/>
        <g>
          <path class="cls-85" d="M2853.72,1621.93c-1.58,1.43-67.86,125.73-67.86,125.73l71.77,36.34L2938,1675.52S2880.14,1598,2853.72,1621.93Z"/>
          <path class="cls-86" d="M2877.84,1648.54c16.1,2.36,24.62,20.15,28,29.42a11.57,11.57,0,0,1-1.06,10.13l-37.27,59.55a11.46,11.46,0,0,1-2,2.43c-4.38,3.92-19.32,15.28-30.39-.78-9.44-13.7-18.31-26.15-28-31.4a11.54,11.54,0,0,0-15.68,4.83c-6.18,11.69-18.16,35.52-25.84,58.19a11.51,11.51,0,0,0,6.43,14.23c14.56,6.22,43.34,17.51,69,21.55a11.56,11.56,0,0,0,11-4.44c11.36-15,43.35-56.74,54.2-67.14,10.07-9.67,28.26-5.61,36.44-3.09a11.6,11.6,0,0,0,9.25-1c8.44-4.87,23.24-17.12,10.32-38.56a11.57,11.57,0,0,1,3.87-15.64c9.44-6,19.77-17.27,10.48-36.09-11.72-23.76-45-21.52-63.6-39-9.2-8.63-18.23-18.24-30.17-22.28a23.53,23.53,0,0,0-8-1.41c-11.73.24-29.5,19.57-30.3,31.25C2843.47,1635.92,2863.82,1646.49,2877.84,1648.54Z"/>
          <path class="cls-87" d="M2892.28,1767s14.67-40.4,32.43-38.57,31.43,19.81,9,39.32C2905.82,1792,2892.28,1767,2892.28,1767Z"/>
        </g>
        <path class="cls-88" d="M3036.39,2079.48c24.66-63.73,17.62-141.38,17.54-142.16l-6.47.62c.07.76,7,76.92-17.14,139.19Z"/>
        <path class="cls-89" d="M2864.54,2566a3.27,3.27,0,0,0,3.19-2.38c7.67-27.46,61.81-56.77,62.36-57.06a3.25,3.25,0,1,0-3.08-5.73c-2.32,1.25-57.13,30.92-65.55,61a3.26,3.26,0,0,0,2.26,4A3.87,3.87,0,0,0,2864.54,2566Z"/>
        <path class="cls-90" d="M3018.93,2130.39l-80.06-120.61a3.09,3.09,0,0,0-2.57-1.38H2789.74a6.81,6.81,0,0,0-5.86,3.34l-69.65,117.88a9.89,9.89,0,0,0-1.22,6.79c27.58,83.73,54.25,166.13,52.34,206.22,50,39,137.83,30.88,197.83,12.92,3.09-52.31,28.83-134.65,56.78-219.93A7,7,0,0,0,3018.93,2130.39Z"/>
        <path class="cls-91" d="M2991.76,1864.12,2938,2018.73h-32.38l47.84-161a3.17,3.17,0,0,1,3.69-2.21l33.71,7A1.26,1.26,0,0,1,2991.76,1864.12Z"/>
        <path class="cls-92" d="M2807.48,1853.24l13.21,161.21-29.88,3.67-25.44-160.73a2,2,0,0,1,1.83-2.34l38.27-3.5A1.86,1.86,0,0,1,2807.48,1853.24Z"/>
        <g>
          <path class="cls-93" d="M2812.72,1629.9c63.88-120.67,229.46-11.05,152.4,90.6C2907.82,1682.41,2843.08,1625.78,2812.72,1629.9Z"/>
          <path class="cls-94" d="M2816.89,1616.89c-129.15-6.57-22.84,41.31,94.78,66.87C2882.4,1652.68,2853.12,1629.51,2816.89,1616.89Z"/>
        </g>
      </g>
      <g>
        <g>
          <g class="cls-95">
            <path class="cls-96" d="M1316,975.31a11.06,11.06,0,0,1,12.18,8.36c2.93,12.13,5.37,24.57,7.27,37a11.06,11.06,0,0,1-9.25,12.6l-.22,0a11,11,0,0,1-12.37-9.28c-1.8-11.78-4.13-23.6-6.91-35.12a11,11,0,0,1,8.15-13.33A9,9,0,0,1,1316,975.31Zm12,95.5a11.37,11.37,0,0,1,1.31-.09,11,11,0,0,1,11.21,10.88c.19,12.53-.16,25.2-1,37.64a11,11,0,1,1-22-1.55c.83-11.82,1.16-23.85,1-35.77A11,11,0,0,1,1328,1070.81Zm-9.31,95.77a11.06,11.06,0,0,1,12.26,13.26c-2.6,12.23-5.77,24.5-9.42,36.48a11,11,0,1,1-21.13-6.44c3.46-11.37,6.47-23,8.94-34.64A11.06,11.06,0,0,1,1318.69,1166.58Zm-30.51,91.3a11.06,11.06,0,0,1,11.47,15.62c-5.28,11.34-11.11,22.6-17.34,33.45a11,11,0,1,1-19.16-11c5.91-10.31,11.45-21,16.46-31.78A11,11,0,0,1,1288.18,1257.88Zm-50.1,82.21a11,11,0,0,1,10.2,17.71c-7.65,9.87-15.83,19.56-24.31,28.78a11,11,0,1,1-16.26-15c8.06-8.76,15.83-18,23.1-27.35A11,11,0,0,1,1238.08,1340.09Zm-67,69.07a11,11,0,0,1,8.5,19.47c-9.66,7.95-19.78,15.59-30.07,22.69a11,11,0,1,1-12.55-18.19c9.79-6.75,19.4-14,28.57-21.55A10.88,10.88,0,0,1,1171.05,1409.16Zm-397.83,79.55a11,11,0,0,1,4.65.38c11.36,3.44,23,6.43,34.67,8.89A11,11,0,0,1,808,1519.6c-12.26-2.59-24.54-5.74-36.51-9.36a11.05,11.05,0,0,1,1.75-21.53Zm317.21-27.09a11,11,0,0,1,6.41,20.83c-11.18,5.6-22.74,10.79-34.36,15.41a11,11,0,0,1-8.17-20.53c11-4.39,22-9.31,32.64-14.63A10.89,10.89,0,0,1,1090.43,1461.62ZM867.89,1506a10.27,10.27,0,0,1,2.22-.07c11.85.81,23.9,1.11,35.8.92a11,11,0,1,1,.36,22.09c-12.52.21-25.19-.12-37.66-1a11,11,0,0,1-.72-22Zm132.23-11.28a11,11,0,0,1,4.06,21.69c-12.14,3-24.57,5.42-36.95,7.33l-.23,0a11,11,0,0,1-3.14-21.87c11.75-1.82,23.56-4.17,35.09-7Q999.54,1494.84,1000.12,1494.76Z"/>
            <path class="cls-97" d="M701.31,1459.6a11,11,0,0,1,6.5,1.13c5.06,2.61,10.27,5.15,15.47,7.56a11,11,0,1,1-9.31,20c-5.47-2.53-10.94-5.21-16.27-7.95a11,11,0,0,1,3.61-20.78Z"/>
          </g>
          <g class="cls-95">
            <path class="cls-98" d="M485.74,1200.77a11.06,11.06,0,0,1,12,7.78c1.63,5.45,3.41,11,5.28,16.38a11,11,0,1,1-20.88,7.22c-2-5.7-3.85-11.51-5.57-17.25a11.06,11.06,0,0,1,7.41-13.76A11.6,11.6,0,0,1,485.74,1200.77Z"/>
            <path class="cls-99" d="M840.54,650.37q7.56-1,15.21-1.76a11,11,0,1,1,2.18,22c-11.76,1.17-23.46,2.81-34.88,4.9a11,11,0,1,1-4-21.73C826.12,652.47,833.35,651.33,840.54,650.37Zm73.51-3.54a11.78,11.78,0,0,1,1.88-.09c12.32.45,24.76,1.44,37,2.92a11,11,0,1,1-2.66,21.93c-11.6-1.41-23.41-2.34-35.12-2.77a11,11,0,0,1-1.07-22ZM762.74,668.21a11,11,0,0,1,4.9,21.44c-11.08,3.66-22.16,7.84-32.93,12.43A11,11,0,1,1,726,681.76c11.34-4.84,23-9.24,34.68-13.09A11.12,11.12,0,0,1,762.74,668.21Zm245-7.49a11.14,11.14,0,0,1,4.28.28c11.91,3.14,23.82,6.84,35.42,11a11,11,0,0,1-7.43,20.81c-11-3.93-22.33-7.43-33.63-10.42a11.05,11.05,0,0,1,1.36-21.64ZM676.68,707.63a11.05,11.05,0,0,1,7.14,20.43c-10,6-19.89,12.51-29.39,19.36a11,11,0,0,1-12.92-17.92c10-7.21,20.41-14.07,31-20.39A11,11,0,0,1,676.68,707.63ZM601.35,765a11,11,0,0,1,9.08,18.95C602,792,593.72,800.52,586,809.26a11.05,11.05,0,0,1-16.52-14.68c8.17-9.19,16.84-18.16,25.76-26.65A11,11,0,0,1,601.35,765Zm-61,72.41a11.05,11.05,0,0,1,10.63,17.11c-6.52,9.73-12.7,19.83-18.37,30a11,11,0,1,1-19.32-10.73c6-10.74,12.48-21.38,19.34-31.62A11.05,11.05,0,0,1,540.31,837.39Zm-43.78,84a11.06,11.06,0,0,1,11.75,15c-4.24,10.92-8.06,22.13-11.35,33.34a11,11,0,0,1-21.2-6.22c3.47-11.81,7.49-23.62,11.95-35.11A11.05,11.05,0,0,1,496.53,921.38ZM472.24,1013a11.44,11.44,0,0,1,3.09,0,11,11,0,0,1,9.3,12.56c-1.72,11.54-3,23.32-3.71,35a11.05,11.05,0,0,1-22.06-1.41c.79-12.29,2.1-24.69,3.91-36.85A11.08,11.08,0,0,1,472.24,1013Zm-3.57,94.63.68-.07a11,11,0,0,1,11.81,10.23c.61,8.59,1.5,17.26,2.64,25.78q.61,4.64,1.33,9.22a11.05,11.05,0,0,1-9.22,12.62,10.93,10.93,0,0,1-12.62-9.22c-.5-3.22-1-6.45-1.4-9.7-1.19-9-2.13-18.09-2.77-27.12A11,11,0,0,1,468.67,1107.6Z"/>
            <path class="cls-100" d="M1096.36,695a11,11,0,0,1,6.55,1.15c5.31,2.76,10.66,5.69,15.9,8.7a11,11,0,0,1-11,19.16c-5-2.86-10.06-5.64-15.09-8.26a11,11,0,0,1,3.65-20.75Z"/>
          </g>
          <g>
            <path class="cls-101" d="M1098.51,824a5.17,5.17,0,0,0-5.94-.8L1037,852.52a273.75,273.75,0,0,0-83-31.37l-22.34-58.7a5.18,5.18,0,0,0-5-3.33l-75.35,2.38a5.18,5.18,0,0,0-4.77,3.63l-18.59,60a273.48,273.48,0,0,0-80.82,36.54L689.8,835.93a5.16,5.16,0,0,0-5.88,1.18l-51.6,55a5.15,5.15,0,0,0-.8,5.94l29.29,55.61a273.75,273.75,0,0,0-31.37,83l-58.7,22.34a5.17,5.17,0,0,0-3.33,5l2.38,75.35a5.17,5.17,0,0,0,3.63,4.77l60,18.59A274,274,0,0,0,670,1243.44l-25.73,57.34a5.16,5.16,0,0,0,1.18,5.88l55,51.6a5.17,5.17,0,0,0,5.94.81l55.6-29.3a273.64,273.64,0,0,0,83,31.37l22.34,58.71a5.16,5.16,0,0,0,5,3.32l75.35-2.38a5.15,5.15,0,0,0,4.77-3.63l18.6-60a273.85,273.85,0,0,0,80.82-36.54l57.34,25.73a5.16,5.16,0,0,0,5.88-1.18l51.6-55a5.17,5.17,0,0,0,.8-5.94l-29.29-55.6a273.91,273.91,0,0,0,31.37-83l58.7-22.33a5.18,5.18,0,0,0,3.33-5l-2.38-75.35a5.17,5.17,0,0,0-3.63-4.77l-60-18.59a273.76,273.76,0,0,0-36.53-80.83l25.73-57.34a5.16,5.16,0,0,0-1.18-5.88Z"/>
            <path class="cls-102" d="M889.47,1016a75.85,75.85,0,1,1-10.89,2.28A75.89,75.89,0,0,1,889.47,1016ZM907,1148.76a58.11,58.11,0,1,0-35.75-6.81A57.69,57.69,0,0,0,907,1148.76Z"/>
            <path class="cls-102" d="M873.48,907.74a188.27,188.27,0,0,1,19.08-1.57h0c2-.06,4.05-.09,6.07-.09a187,187,0,0,1,29.75,2.38l.4.07,1.13.19c.74.12,1.48.26,2.21.39a4.42,4.42,0,0,1,3.59,3.76,4.28,4.28,0,0,1,0,1.38,4.41,4.41,0,0,1-5.14,3.55,177.51,177.51,0,1,0-26.5,352c97.86-3.1,174.89-85.18,171.8-183a177.63,177.63,0,0,0-28-90.3,4.42,4.42,0,0,1,7.44-4.78,186.69,186.69,0,0,1,29.41,94.8c3.24,102.69-77.7,188.87-180.36,192.11a186.4,186.4,0,0,1-190.54-161.25q-1.26-9.45-1.57-19.11A186.37,186.37,0,0,1,873.48,907.74Z"/>
          </g>
        </g>
        <g>
          <g class="cls-95">
            <path class="cls-103" d="M1651.26,636.9a6.82,6.82,0,0,1,7.14,4c2.35,5.29,4.57,10.73,6.6,16.16a6.82,6.82,0,1,1-12.78,4.78c-1.94-5.17-4-10.35-6.3-15.41a6.82,6.82,0,0,1,3.47-9A7.08,7.08,0,0,1,1651.26,636.9Z"/>
            <path class="cls-104" d="M1668.08,686.63a6.83,6.83,0,0,1,7.53,5.18,298.24,298.24,0,0,1,5.47,29.52c.28,2.08.53,4.17.77,6.27a7.06,7.06,0,0,1-6,7.54,6.84,6.84,0,0,1-7.55-6q-.33-3-.73-6a279.92,279.92,0,0,0-5.22-28.15,6.84,6.84,0,0,1,5.06-8.23ZM1676,757a7.93,7.93,0,0,1,1-.06,6.82,6.82,0,0,1,6.75,6.9,296.19,296.19,0,0,1-2.6,36.23,6.83,6.83,0,0,1-13.53-1.82,282.81,282.81,0,0,0,2.49-34.56A6.82,6.82,0,0,1,1676,757Zm-9.44,70.22a7,7,0,0,1,2.64.17,6.83,6.83,0,0,1,4.86,8.34,295.32,295.32,0,0,1-11.44,34.5,6.83,6.83,0,1,1-12.67-5.09,280.29,280.29,0,0,0,10.91-32.89A6.84,6.84,0,0,1,1666.51,827.26ZM1640.09,893a6.82,6.82,0,0,1,6.87,10.07,295.28,295.28,0,0,1-19.53,30.64,6.82,6.82,0,0,1-11-8A282.14,282.14,0,0,0,1635,896.48,6.78,6.78,0,0,1,1640.09,893Zm-41.67,57.3a6.83,6.83,0,0,1,5.89,11.43,300.15,300.15,0,0,1-26.36,25,6.83,6.83,0,1,1-8.77-10.46,284.46,284.46,0,0,0,25.16-23.82A6.84,6.84,0,0,1,1598.42,950.32Zm-54.31,45.45a6.83,6.83,0,0,1,4.61,12.5,293.41,293.41,0,0,1-31.65,17.78,6.83,6.83,0,1,1-5.94-12.29,280,280,0,0,0,30.18-17A6.78,6.78,0,0,1,1544.11,995.77Zm-63.76,30.79a6.82,6.82,0,0,1,3.08,13.23,295.33,295.33,0,0,1-35.07,9.47,6.82,6.82,0,0,1-2.74-13.37,281.78,281.78,0,0,0,33.44-9A6.69,6.69,0,0,1,1480.35,1026.56Zm-104.9,14.85a6.81,6.81,0,0,1,1.2-.05,283.36,283.36,0,0,0,30.13-.32c1.53-.09,3-.19,4.51-.32a6.84,6.84,0,0,1,7.36,6.26,6.77,6.77,0,0,1-6.26,7.35c-1.59.13-3.17.24-4.77.34a299.61,299.61,0,0,1-31.56.32,6.82,6.82,0,0,1-.61-13.58Z"/>
          </g>
          <g class="cls-95">
            <path class="cls-105" d="M1346.06,468.94a6.83,6.83,0,0,1,1.89,13.52,280.81,280.81,0,0,0-33.35,7,6.83,6.83,0,1,1-3.6-13.17,296.12,296.12,0,0,1,35-7.3Zm34.78-3c.25,0,.49-.05.74-.06a297.62,297.62,0,0,1,35.71,1.23,6.83,6.83,0,0,1-1.28,13.59,287.18,287.18,0,0,0-34.08-1.18,6.82,6.82,0,0,1-1.09-13.58Zm-102,21.34a6.83,6.83,0,0,1,3.49,13.08,281.51,281.51,0,0,0-30.69,14.83,6.83,6.83,0,1,1-6.67-11.91,295.8,295.8,0,0,1,32.17-15.54A7,7,0,0,1,1278.85,487.31Zm171.39-14.71a6.85,6.85,0,0,1,2.38.1,292.28,292.28,0,0,1,34.37,9.83,6.82,6.82,0,1,1-4.54,12.86,279.76,279.76,0,0,0-32.78-9.36,6.83,6.83,0,0,1,.57-13.43Zm-232.16,48.78a6.83,6.83,0,0,1,4.94,12.27,279.71,279.71,0,0,0-26.22,21.77,6.83,6.83,0,0,1-9.34-10A298.31,298.31,0,0,1,1215,522.64,6.85,6.85,0,0,1,1218.08,521.38ZM1167.25,569a6.83,6.83,0,0,1,6.14,11.14,285.35,285.35,0,0,0-20.26,27.41,6.82,6.82,0,1,1-11.45-7.43,299.57,299.57,0,0,1,21.24-28.74A6.77,6.77,0,0,1,1167.25,569Zm-38,58.46a6.74,6.74,0,0,1,3.89.64,6.81,6.81,0,0,1,3.13,9.13,280.24,280.24,0,0,0-13.09,31.47,6.82,6.82,0,1,1-12.89-4.47,294.5,294.5,0,0,1,13.72-33A6.85,6.85,0,0,1,1129.3,627.5Z"/>
            <path class="cls-106" d="M1516.27,495.94a6.85,6.85,0,0,1,3.94.66c5.23,2.6,10.4,5.38,15.38,8.24a6.82,6.82,0,1,1-6.8,11.83c-4.75-2.72-9.69-5.37-14.67-7.86a6.82,6.82,0,0,1,2.15-12.87Z"/>
          </g>
          <g>
            <path class="cls-107" d="M1522.29,584.07a3.47,3.47,0,0,0-4-.53l-37.2,19.6a183.21,183.21,0,0,0-55.52-21l-14.95-39.28a3.45,3.45,0,0,0-3.34-2.22l-50.42,1.59a3.46,3.46,0,0,0-3.19,2.43l-12.44,40.15a183.1,183.1,0,0,0-54.08,24.44L1248.8,592a3.46,3.46,0,0,0-3.94.78l-34.52,36.78a3.46,3.46,0,0,0-.54,4l19.6,37.2a183.45,183.45,0,0,0-21,55.52l-39.28,15a3.46,3.46,0,0,0-2.23,3.34l1.59,50.42a3.48,3.48,0,0,0,2.43,3.19l40.15,12.44a183.12,183.12,0,0,0,24.45,54.08l-17.22,38.37a3.46,3.46,0,0,0,.79,3.94l36.77,34.52a3.46,3.46,0,0,0,4,.54l37.21-19.6a183,183,0,0,0,55.51,21l15,39.28a3.46,3.46,0,0,0,3.34,2.23l50.42-1.59a3.46,3.46,0,0,0,3.19-2.43l12.44-40.15A182.92,182.92,0,0,0,1491,916.37l38.37,17.22a3.43,3.43,0,0,0,3.93-.79L1567.82,896a3.45,3.45,0,0,0,.53-4l-19.6-37.21a183.05,183.05,0,0,0,21-55.51l39.28-15a3.46,3.46,0,0,0,2.22-3.34l-1.59-50.42a3.46,3.46,0,0,0-2.43-3.19L1567.09,715a183.26,183.26,0,0,0-24.45-54.08l17.21-38.37a3.46,3.46,0,0,0-.78-3.94Z"/>
            <path class="cls-102" d="M1382.36,711.63a51.62,51.62,0,0,1,20.93,100.81,51.62,51.62,0,1,1-20.93-100.81Zm11.71,88.83a39.28,39.28,0,0,0,5.46-1.14,38,38,0,0,0-20.9-73h0a38,38,0,0,0,15.44,74.15Z"/>
            <path class="cls-102" d="M1371.33,636.24q6.42-.86,13-1.07a129.14,129.14,0,0,1,26.13,1.82l1.15.21a6.82,6.82,0,0,1,5.54,5.81,6.64,6.64,0,0,1,0,2.13,6.84,6.84,0,0,1-7.94,5.49,115.16,115.16,0,0,0-24.4-1.82h0l-1.34,0a113.78,113.78,0,0,0-53.93,16.06,115.51,115.51,0,0,0-24.16,19.33l-.18.18-.54.57a114.17,114.17,0,0,0-31.07,82.27,117.65,117.65,0,0,0,1,11.78,114.91,114.91,0,0,0,228.72-19,114.64,114.64,0,0,0-18.13-58.45,6.82,6.82,0,0,1,11.48-7.38A128.56,128.56,0,1,1,1261,780.89a130.58,130.58,0,0,1-1.08-13.18C1257.83,701.26,1306.8,644.84,1371.33,636.24Z"/>
          </g>
        </g>
      </g>
    </g>
  </g>
</svg>
