<?xml version="1.0" encoding="utf-8"?>
<!-- Generator: Adobe Illustrator 24.0.1, SVG Export Plug-In . SVG Version: 6.00 Build 0)  -->
<svg version="1.1" id="Capa_1" xmlns="http://www.w3.org/2000/svg" xmlns:xlink="http://www.w3.org/1999/xlink" x="0px" y="0px"
	 viewBox="0 0 3710 3710" style="enable-background:new 0 0 3710 3710;" xml:space="preserve">
<style type="text/css">
	.st0{fill:none;}
	.st1{fill:#F4F7FA;}
	.st2{fill:url(#SVGID_1_);}
	.st3{clip-path:url(#SVGID_3_);}
	.st4{opacity:0.8;}
	.st5{fill:#FFFFFF;}
	.st6{fill:url(#SVGID_4_);}
	.st7{clip-path:url(#SVGID_6_);}
	.st8{fill:#D8DEE8;}
	.st9{fill:#97A6B7;}
	.st10{opacity:0.1;fill:#97A6B7;enable-background:new    ;}
	.st11{fill:#E4E9F2;}
	.st12{fill:url(#SVGID_7_);}
	.st13{fill:url(#SVGID_8_);}
	.st14{fill:url(#SVGID_9_);}
	.st15{opacity:0.3;fill:url(#SVGID_10_);enable-background:new    ;}
	.st16{fill:url(#SVGID_11_);}
	.st17{fill:url(#SVGID_12_);}
	.st18{opacity:0.2;fill:url(#SVGID_13_);enable-background:new    ;}
	.st19{fill:url(#SVGID_14_);}
	.st20{fill:url(#SVGID_15_);}
	.st21{fill:url(#SVGID_16_);}
	.st22{fill:url(#SVGID_17_);}
	.st23{fill:url(#SVGID_18_);}
	.st24{fill:url(#SVGID_19_);}
	.st25{fill:url(#SVGID_20_);}
	.st26{fill:url(#SVGID_21_);}
	.st27{fill:url(#SVGID_22_);}
	.st28{fill:url(#SVGID_23_);}
	.st29{fill:url(#SVGID_24_);}
	.st30{fill:url(#SVGID_25_);}
	.st31{opacity:0.3;}
	.st32{fill:url(#SVGID_26_);}
	.st33{fill:url(#SVGID_27_);}
	.st34{opacity:0.7;fill:url(#SVGID_28_);enable-background:new    ;}
	.st35{fill:url(#SVGID_29_);}
	.st36{opacity:0.7;fill:url(#SVGID_30_);enable-background:new    ;}
	.st37{fill:#D5DAE0;}
	.st38{opacity:0.3;fill:url(#SVGID_31_);enable-background:new    ;}
	.st39{fill:url(#SVGID_32_);}
	.st40{fill:url(#SVGID_33_);}
	.st41{fill:url(#SVGID_34_);}
	.st42{opacity:0.5;fill:#FFFFFF;enable-background:new    ;}
	.st43{fill:url(#SVGID_35_);}
	.st44{fill:url(#SVGID_36_);}
	.st45{fill:url(#SVGID_37_);}
	.st46{fill:url(#SVGID_38_);}
	.st47{fill:url(#SVGID_39_);}
	.st48{fill:url(#SVGID_40_);}
	.st49{fill:url(#SVGID_41_);}
	.st50{opacity:0.3;fill:url(#SVGID_42_);enable-background:new    ;}
</style>
<title>Wavy_Ppl-06_Single-03 [Convertido]</title>
<g>
	<g id="Background">
		<rect class="st0" width="3710" height="3710"/>
	</g>
	<g id="Illustration">
		<g>
			<path class="st1" d="M1610.7,3236.4C877.2,3125.4,281.1,2431.9,389.4,1661.1c92.4-657.4,668.7-1168.9,1359.8-1217.2
				c50-3.5,100.6-4.5,151.8-3.1c385.6,11.1,728.1,165.3,981.5,398.7c252.2,232.3,416,542.9,445.8,868.8
				C3407.8,2575.3,2523,3374.6,1610.7,3236.4z"/>
			<g>
				<g>
					
						<linearGradient id="SVGID_1_" gradientUnits="userSpaceOnUse" x1="2577.3135" y1="3612.3457" x2="1768.7435" y2="-2647.5044" gradientTransform="matrix(1 0 0 -1 0 3710)">
						<stop  offset="0" style="stop-color:#FF9085"/>
						<stop  offset="1" style="stop-color:#FB6FBB"/>
					</linearGradient>
					<path class="st2" d="M2752.4,1375.5c-9.8,0.9-19.2,1.9-27.7,2.7c-26.5,2.6-84.7,18.7-104.7-7.7
						c-33.1-43.6,50.9-117.5,72.1-150.7c26.1-41.1,58.6-86.8,63.8-136.7c8-75.9-44-178.5-108.1-218.1
						c-88.5-54.7-212.1-17.5-291.6,36.2c-115.1,77.7-196,205.9-228.9,339.8c-35.4,144.3,13.4,293.7-0.6,440
						c-22,229.9-347.9-63-284.2,541.7c14.1,133.5,37,279.5,112,393.9c31.1,47.4,93.3,113.4,155.2,109.6
						c87.9-5.4,83.9-129.7,111.2-187.1c31.9-67.1,87.5-120.1,149.2-159.7c78.6-50.4,169.7-95.5,200.9-190.7
						c20.3-61.8-10.2-125.5-49.3-173.6c-21.5-26.5-67.4-56.8-60.5-95.8c5.7-32.4,51.2-56.2,75-73.3c73-52.5,143.9-109.1,208.9-171.4
						c58.3-55.9,156.8-140.7,148.8-231.6C2887.4,1369.9,2811.9,1370.3,2752.4,1375.5z"/>
					<g>
						<defs>
							<path id="SVGID_2_" d="M2752.4,1375.5c-9.8,0.9-19.2,1.9-27.7,2.7c-26.5,2.6-84.7,18.7-104.7-7.7
								c-33.1-43.6,50.9-117.5,72.1-150.7c26.1-41.1,58.6-86.8,63.8-136.7c8-75.9-44-178.5-108.1-218.1
								c-88.5-54.7-212.1-17.5-291.6,36.2c-115.1,77.7-196,205.9-228.9,339.8c-35.4,144.3,13.4,293.7-0.6,440
								c-22,229.9-347.9-63-284.2,541.7c14.1,133.5,37,279.5,112,393.9c31.1,47.4,93.3,113.4,155.2,109.6
								c87.9-5.4,83.9-129.7,111.2-187.1c31.9-67.1,87.5-120.1,149.2-159.7c78.6-50.4,169.7-95.5,200.9-190.7
								c20.3-61.8-10.2-125.5-49.3-173.6c-21.5-26.5-67.4-56.8-60.5-95.8c5.7-32.4,51.2-56.2,75-73.3
								c73-52.5,143.9-109.1,208.9-171.4c58.3-55.9,156.8-140.7,148.8-231.6C2887.4,1369.9,2811.9,1370.3,2752.4,1375.5z"/>
						</defs>
						<clipPath id="SVGID_3_">
							<use xlink:href="#SVGID_2_"  style="overflow:visible;"/>
						</clipPath>
						<g class="st3">
							<g class="st4">
								<path class="st5" d="M2284.1,2884.1c-0.9,0-1.8-0.3-2.6-0.8c-150-107.1-220.6-270.7-215.8-500
									c4.2-199.9,62.8-416.9,119.4-626.7c44.6-165.2,86.8-321.3,94.5-446.6c6.1-100.4,34.8-191.5,85.2-270.8
									c40.3-63.4,94.5-119.3,161.1-166.2c113.3-79.8,224.9-106.3,226-106.6c2.4-0.6,4.8,0.9,5.3,3.3c0.6,2.4-0.9,4.8-3.3,5.3
									c-1.1,0.3-111.2,26.5-223.1,105.4c-103,72.7-228.6,206.2-242.3,430c-7.7,126.3-50,282.7-94.8,448.4
									c-111.5,412.9-238,880.8,92.9,1117.1c2,1.4,2.5,4.2,1,6.2C2286.9,2883.5,2285.6,2884.1,2284.1,2884.1L2284.1,2884.1z"/>
								<path class="st5" d="M2287.6,1276.1c-0.5,0-0.9-0.1-1.4-0.2c-1.2-0.4-29.7-9.9-61-47c-28.5-33.9-64.7-98.3-75.6-213.1
									c-0.2-2.4,1.6-4.6,4-4.9c2.4-0.2,4.6,1.6,4.9,4c10.6,112,45.6,174.7,73,207.6c29.6,35.5,57.1,44.8,57.4,44.9
									c2.3,0.8,3.6,3.3,2.9,5.6C2291.2,1274.8,2289.5,1276.1,2287.6,1276.1L2287.6,1276.1z"/>
								<path class="st5" d="M2243,1556.3c-2.5,0-4.4-2.1-4.4-4.5c0-2.2,1.7-4.1,3.9-4.4c0.8-0.1,77.3-8.3,177.5-52.6
									c133.1-58.9,247.1-153.8,329.2-274c1.2-2.1,3.9-2.9,6.1-1.7s2.9,3.9,1.7,6.1c-0.1,0.2-0.3,0.4-0.4,0.6
									c-83.1,121.7-198.5,217.7-333.3,277.3c-101.5,44.7-179.1,53-179.9,53.1C2243.3,1556.3,2243.2,1556.3,2243,1556.3z"/>
								<path class="st5" d="M2082.1,2240.1c-0.5,0-1-0.1-1.5-0.3c-3.1-1.1-76.8-27.7-137.6-102.1c-35.7-43.7-59.4-94.9-70.3-152.1
									c-13.6-71.3-7.3-152.1,18.6-240.3c0.7-2.4,3.2-3.7,5.5-3s3.7,3.2,3,5.5l0,0c-57.7,196-4.8,317,49.8,383.9
									c59.2,72.6,133.2,99.4,133.9,99.7c2.3,0.8,3.5,3.4,2.7,5.7C2085.6,2238.9,2084,2240,2082.1,2240.1L2082.1,2240.1z"/>
								<path class="st5" d="M2108,2089.6c-2.5,0-4.5-2-4.4-4.5c0-2.2,1.7-4.1,3.9-4.4c3.6-0.5,357.5-48.6,444.3-182.5
									c1.3-2.1,4.1-2.7,6.2-1.3c2.1,1.3,2.7,4.1,1.3,6.2l0,0c-37.5,57.8-124.8,106.8-259.6,145.6c-62.7,17.8-126.5,31.5-191,40.9
									C2108.4,2089.6,2108.2,2089.6,2108,2089.6z"/>
							</g>
						</g>
					</g>
				</g>
				<g>
					
						<linearGradient id="SVGID_4_" gradientUnits="userSpaceOnUse" x1="2818.1392" y1="2926.3701" x2="2216.699" y2="-1729.9402" gradientTransform="matrix(1 0 0 -1 0 3710)">
						<stop  offset="0" style="stop-color:#E38DDD"/>
						<stop  offset="1" style="stop-color:#9571F6"/>
					</linearGradient>
					<path class="st6" d="M3239.6,1587.4c-30.7-110.8-128.1-194.7-239.4-223.7c-67.8-17.6-150.6-23.6-219.7-11.6
						c-97.3,16.9-177.6,80.4-240.1,153.9c-73.5,86.4-80.4,193.5-106.7,299.8c-5.1,20.8-39.1,135.7-64.9,68.4
						c-35.9-93.8-115.9-77.3-115.9-77.3c-62.6,13-110.8,58.9-133.9,116.8c-61.9,154.6-42.7,355.4-29.6,517.4
						c6.1,76.2,15.6,152,26.9,227.6c3.9,26.3,28.4,44.5,54.8,40.6c11.5-1.7,22-7.5,29.5-16.3c12.8-14.9,26.2-28.6,38.6-40.7
						c119.2-116,305.8-133.1,463.2-140.1c91.9-4.1,167.6-9.9,247.7-59.3c33.3-20.5,69.4-45.7,84.9-83.2c14-33.9,16.7-92-4.4-123.5
						c-26.2-39.3-84.3-36.8-118.9-65.7c-55.9-46.7,90.3-79.3,119.8-88.7c47-15.1,78.1-52.6,113.3-85c26.9-24.8,52.1-51.8,71.6-82.9
						C3275.9,1819.2,3268.5,1691.7,3239.6,1587.4z"/>
					<g>
						<defs>
							<path id="SVGID_5_" d="M3239.6,1587.4c-30.7-110.8-128.1-194.7-239.4-223.7c-67.8-17.6-150.6-23.6-219.7-11.6
								c-97.3,16.9-177.6,80.4-240.1,153.9c-73.5,86.4-80.4,193.5-106.7,299.8c-5.1,20.8-39.1,135.7-64.9,68.4
								c-35.9-93.8-115.9-77.3-115.9-77.3c-62.6,13-110.8,58.9-133.9,116.8c-61.9,154.6-42.7,355.4-29.6,517.4
								c6.1,76.2,15.6,152,26.9,227.6c3.9,26.3,28.4,44.5,54.8,40.6c11.5-1.7,22-7.5,29.5-16.3c12.8-14.9,26.2-28.6,38.6-40.7
								c119.2-116,305.8-133.1,463.2-140.1c91.9-4.1,167.6-9.9,247.7-59.3c33.3-20.5,69.4-45.7,84.9-83.2c14-33.9,16.7-92-4.4-123.5
								c-26.2-39.3-84.3-36.8-118.9-65.7c-55.9-46.7,90.3-79.3,119.8-88.7c47-15.1,78.1-52.6,113.3-85
								c26.9-24.8,52.1-51.8,71.6-82.9C3275.9,1819.2,3268.5,1691.7,3239.6,1587.4z"/>
						</defs>
						<clipPath id="SVGID_6_">
							<use xlink:href="#SVGID_5_"  style="overflow:visible;"/>
						</clipPath>
						<g class="st7">
							<g class="st4">
								<path class="st5" d="M2097.7,2737.9c-2.5,0-4.4-2-4.4-4.5c0-0.6,0.2-1.3,0.4-1.9c1.5-3.1,149-314.9,352.7-634.4
									c119.7-187.8,235-341.5,342.8-456.8c135.2-144.7,259.1-229.3,368.2-251.5c2.4-0.5,4.8,1,5.3,3.4c0.5,2.4-1,4.8-3.4,5.3
									c0,0-0.1,0-0.1,0c-107.3,21.8-229.6,105.6-363.5,248.8c-107.5,115-222.5,268.2-341.8,455.5
									c-203.3,319.1-350.6,630.3-352.1,633.4C2101,2736.9,2099.4,2737.9,2097.7,2737.9z"/>
								<path class="st5" d="M2628,1845.7c-0.2,0-0.5,0-0.7-0.1c-2.4-0.4-4.1-2.6-3.7-5.1c0,0,0,0,0,0c0.7-4.2,66.4-421.3,1.1-491.7
									c-1.6-1.9-1.4-4.7,0.4-6.3c1.8-1.6,4.5-1.5,6.1,0.2c68.2,73.5,3.9,481.8,1.1,499.1C2632.1,1844.1,2630.2,1845.7,2628,1845.7
									z"/>
								<path class="st5" d="M3407.6,1629.8c-0.8,0-1.7-0.2-2.4-0.7c-174.9-109.3-538.8-52.2-542.4-51.6c-2.4,0.4-4.7-1.3-5.1-3.7
									s1.3-4.7,3.7-5.1l0,0c0.9-0.1,93.4-14.9,206.6-15.7c104.6-0.8,249,10.4,342,68.6c2.1,1.3,2.7,4.1,1.4,6.1
									C3410.6,1629,3409.1,1629.8,3407.6,1629.8L3407.6,1629.8z"/>
								<path class="st5" d="M2244.5,2453.2c-0.3,0-0.7,0-1-0.1c-2.4-0.5-3.9-2.9-3.3-5.3c0,0,0,0,0,0
									c47.7-206.3-131.3-507-133.1-510.1c-1.2-2.1-0.5-4.9,1.7-6.1c2.1-1.2,4.7-0.5,6,1.5c0.5,0.8,46.2,77.2,85.4,178.5
									c36.3,93.7,74.1,228.4,48.7,338.2C2248.4,2451.7,2246.6,2453.2,2244.5,2453.2z"/>
								<path class="st5" d="M2392.5,2196.5c-2.5,0-4.5-2-4.5-4.5c0-1.9,1.2-3.6,3.1-4.2c1.6-0.5,162.2-53.2,356.6-91.3
									c179.8-35.3,426.3-65,579.3-6.3c2.3,0.9,3.4,3.5,2.6,5.8c-0.9,2.3-3.5,3.4-5.8,2.6l0,0c-151-58-395.7-28.4-574.4,6.7
									c-193.9,38-354,90.5-355.6,91.1C2393.4,2196.4,2392.9,2196.5,2392.5,2196.5z"/>
							</g>
						</g>
					</g>
				</g>
			</g>
			<g>
				<rect x="938.1" y="839" class="st5" width="191.6" height="28.9"/>
				<rect x="587.4" y="839" class="st5" width="148.3" height="28.9"/>
				<rect x="1502.2" y="839" class="st8" width="151.9" height="28.9"/>
				<rect x="2008.4" y="839" class="st5" width="151.9" height="28.9"/>
				<g>
					<rect x="985.1" y="914.9" class="st8" width="191.6" height="748.5"/>
					<rect x="883.9" y="914.9" class="st9" width="101.2" height="748.5"/>
					<rect x="927.3" y="802.8" class="st9" width="32.5" height="155.5"/>
					<rect x="1097.2" y="802.8" class="st8" width="32.5" height="155.5"/>
				</g>
				<g>
					<rect x="2033.7" y="914.9" class="st8" width="188" height="748.5"/>
					<rect x="1932.5" y="914.9" class="st9" width="101.2" height="748.5"/>
					<rect x="1972.2" y="802.8" class="st9" width="36.2" height="155.5"/>
					<rect x="2142.2" y="802.8" class="st8" width="36.2" height="155.5"/>
				</g>
				<g>
					<rect x="1534.7" y="914.9" class="st8" width="184.4" height="748.5"/>
					<rect x="1426.2" y="914.9" class="st9" width="108.5" height="748.5"/>
					<rect x="1469.6" y="802.8" class="st9" width="32.5" height="155.5"/>
					<rect x="1639.6" y="802.8" class="st8" width="32.5" height="155.5"/>
				</g>
				<g>
					<rect x="623.5" y="914.9" class="st8" width="159.1" height="748.5"/>
					<rect x="536.8" y="914.9" class="st9" width="86.8" height="748.5"/>
					<rect x="572.9" y="802.8" class="st9" width="28.9" height="155.5"/>
					<rect x="713.9" y="802.8" class="st8" width="36.2" height="155.5"/>
				</g>
				<polygon class="st8" points="1002.5,3062.9 539.8,3020.8 539.8,1633.5 1002.5,1609.2 				"/>
				<polygon class="st9" points="956.9,1661.4 522.3,1676.3 522.3,1596.3 956.9,1579.1 				"/>
				<polygon class="st9" points="956.9,2257.9 522.3,2256.5 522.3,2176.5 956.9,2175.7 				"/>
				<polygon class="st5" points="2253.8,3014.2 988.4,3063.7 988.4,1600.3 2253.8,1624.7 				"/>
				<polygon class="st8" points="2285.3,1661.1 956.9,1659.6 956.9,1573.5 2285.3,1579.5 				"/>
				<polygon class="st8" points="2285.3,2228.9 956.9,2259.2 956.9,2176.5 2285.3,2150.6 				"/>
				<polygon class="st8" points="2285.3,2992.5 956.9,3065.4 956.9,3051.7 2285.3,2979.4 				"/>
				<g>
					<polygon class="st8" points="1370.5,2107.4 1072.6,2112.5 1072.6,1745.5 1370.5,1744.8 					"/>
					<polygon class="st8" points="1780.6,2100.4 1493.2,2105.3 1493.2,1744.5 1780.6,1743.9 					"/>
					<polygon class="st8" points="2180.2,2093.6 1899.8,2098.4 1899.8,1743.5 2180.2,1742.9 					"/>
				</g>
				<g>
					<polygon class="st8" points="1370.5,2863.1 1072.6,2877.2 1072.6,2513.7 1370.5,2503.9 					"/>
					<polygon class="st8" points="2180.2,2824.5 1899.8,2837.8 1899.8,2486.3 2180.2,2477.1 					"/>
				</g>
				<path class="st10" d="M988.4,1663.1c0,0,254.8,34.3,364.5,203.8c108.8,168,354.2,97.7,568,141.7
					c210.1,43.2,335.2,145.8,335.2,145.8l-1267.8,28.3V1663.1z"/>
				<path class="st10" d="M988.4,2530.5c0,0,254.8,25.6,364.6,191.5c108.8,164.3,354.2,85.6,568,122.3
					c210.1,36,335.2,134.4,335.2,134.4l-1267.8,71.4V2530.5z"/>
				<polygon class="st11" points="1780.6,2940.2 1493.2,2955 1493.2,2432.4 1780.6,2423.7 				"/>
				<polygon class="st8" points="1826.2,2448.9 1451.1,2460.7 1451.1,2386.4 1826.2,2375.7 				"/>
				<g>
					
						<linearGradient id="SVGID_7_" gradientUnits="userSpaceOnUse" x1="1416.0601" y1="784.03" x2="1861.21" y2="784.03" gradientTransform="matrix(1 0 0 -1 0 3710)">
						<stop  offset="0.49" style="stop-color:#EBEFF2"/>
						<stop  offset="1" style="stop-color:#FFFFFF"/>
					</linearGradient>
					<polygon class="st12" points="1861.2,2936.1 1416.1,2959 1416.1,2915 1861.2,2892.9 					"/>
					<polygon class="st8" points="1903.3,2976.9 1367,3005.6 1367,2961.5 1903.3,2933.8 					"/>
					
						<linearGradient id="SVGID_8_" gradientUnits="userSpaceOnUse" x1="1342.45" y1="696.765" x2="1931.3199" y2="696.765" gradientTransform="matrix(1 0 0 -1 0 3710)">
						<stop  offset="0.49" style="stop-color:#EBEFF2"/>
						<stop  offset="1" style="stop-color:#FFFFFF"/>
					</linearGradient>
					<polygon class="st13" points="1931.3,3018.5 1342.4,3051 1342.4,3006.9 1931.3,2975.4 					"/>
				</g>
			</g>
			<g>
				
					<linearGradient id="SVGID_9_" gradientUnits="userSpaceOnUse" x1="428.73" y1="648.8943" x2="1569.4" y2="648.8943" gradientTransform="matrix(1 0 0 -1 0 3710)">
					<stop  offset="0" style="stop-color:#FFC444"/>
					<stop  offset="1" style="stop-color:#F36F56"/>
				</linearGradient>
				<path class="st14" d="M1569.4,3057v41.6c0,10.7-5.5,19.5-12.7,20.4l-649.1,58.8c-4.8,0.7-9.7,0.6-14.5-0.3
					c-1.2-0.2-2.5-0.5-3.8-0.8l-452.3-85.3c-4.8-1.3-8.4-7.5-8.4-14.9v-44l479.9-59.5l61.8-29.2l61.4,8.9l36.3-7l82.9,24.2
					L1569.4,3057z"/>
				
					<linearGradient id="SVGID_10_" gradientUnits="userSpaceOnUse" x1="1280.6649" y1="817.5383" x2="1087.8749" y2="286.1482" gradientTransform="matrix(1 0 0 -1 0 3710)">
					<stop  offset="0" style="stop-color:#FFC444"/>
					<stop  offset="0.59" style="stop-color:#F8924F"/>
					<stop  offset="1" style="stop-color:#F36F56"/>
				</linearGradient>
				<path class="st15" d="M1569.4,3057v41.6c0,10.7-5.5,19.5-12.7,20.4l-649.1,58.8c-4.8,0.7-9.7,0.6-14.4-0.3v-224.2l77.2-9.4
					l61.4,8.8l36.3-6.9l82.9,24.2L1569.4,3057z"/>
				
					<linearGradient id="SVGID_11_" gradientUnits="userSpaceOnUse" x1="1081.488" y1="893.3372" x2="877.2681" y2="330.447" gradientTransform="matrix(1 0 0 -1 0 3710)">
					<stop  offset="0" style="stop-color:#FFC444"/>
					<stop  offset="0.59" style="stop-color:#F8924F"/>
					<stop  offset="1" style="stop-color:#F36F56"/>
				</linearGradient>
				<path class="st16" d="M1068.1,2945.8l-639.3,84.9l461.2,86.9c5.6,1.4,11.4,1.8,17.2,1l662.4-61.6L1068.1,2945.8z"/>
				<g>
					
						<linearGradient id="SVGID_12_" gradientUnits="userSpaceOnUse" x1="1003.1932" y1="1738.7699" x2="961.6832" y2="387.0999" gradientTransform="matrix(1 0 0 -1 0 3710)">
						<stop  offset="0" style="stop-color:#FFC444"/>
						<stop  offset="1" style="stop-color:#F36F56"/>
					</linearGradient>
					<path class="st17" d="M1302.4,3022.5c0,30.4-95.8,54.1-228.1,60.3c-33.4,1.5-69.1,2-106.1,1.1c-182-4.2-328.3-38.1-328.3-75.6
						c0-0.9,0-1.8,0.3-2.7h-0.3l0.8-1.8c0.2-0.6,0.4-1.2,0.7-1.8l42-109.8l50.7-132.4l71-185.6l54.3-142.1l67.7-176.7
						c8.5-22.1,24.1-35.9,41.1-35.9c2.3,0,4.6,0.2,6.8,0.7c14.3,3.1,27.1,16,34.4,35.2l68.2,177.9l54.4,144l71.8,189.4l0,0l51.6,136
						l0,0l0.8,0.1l43,110.6C1300.9,3016.4,1302.4,3019.4,1302.4,3022.5z"/>
					<path class="st5" d="M1256.1,2902.9c-41.5,13.9-107.7,23.8-187,27.5c-32,1.5-65.8,2-101,1.3c-122.3-2.3-228.4-18.1-284.8-39.5
						l50.7-132.5c59.4,13.4,142.2,22.4,234.2,23.8c29.8,0.4,58.7,0.1,86.3-1c58.1-2.3,109.3-7.9,149.7-15.8l51.1,136l0,0
						L1256.1,2902.9z"/>
					<path class="st5" d="M1132.5,2577.4c-31.6,3.4-66.4,5.7-103.3,6.8c-19.8,0.6-40.1,0.8-60.9,0.6c-59.5-0.6-115.2-4.4-163.2-10.5
						l54.3-142.1c34,2.7,70.7,4.2,108.9,4.4c13.5,0.1,26.8,0,39.9-0.3c24-0.4,47.2-1.4,69.3-2.9L1132.5,2577.4z"/>
					
						<linearGradient id="SVGID_13_" gradientUnits="userSpaceOnUse" x1="639.8705" y1="1058.0651" x2="1075.5021" y2="1058.0651" gradientTransform="matrix(1 0 0 -1 0 3710)">
						<stop  offset="0" style="stop-color:#FFC444"/>
						<stop  offset="1" style="stop-color:#F36F56"/>
					</linearGradient>
					<path class="st18" d="M1074.3,3082.7c-33.4,1.5-69.1,2-106.1,1.1c-182-4.2-328.3-38.1-328.3-75.6c0-0.9,0-1.8,0.3-2.7h-0.3
						l0.8-1.8c0.2-0.6,0.4-1.2,0.7-1.8l42-109.8l50.7-132.4l71-185.6l54.3-142.1l67.7-176.7c8.5-22.1,24.1-35.9,41.1-35.9
						c2.3,0,4.6,0.2,6.8,0.7c7.2,45,19.6,123.5,33.3,216c6.8,46.6,14,96.7,21.1,147.9c9.1,66.1,17.9,134.1,25.3,198.4
						c6.1,52.7,11.3,103,15,147.9C1074.8,2995.5,1077.1,3049.3,1074.3,3082.7z"/>
				</g>
			</g>
			<g>
				<g>
					
						<linearGradient id="SVGID_14_" gradientUnits="userSpaceOnUse" x1="1559.7451" y1="3224.5742" x2="1290.8651" y2="2966.1443" gradientTransform="matrix(1 0 0 -1 0 3710)">
						<stop  offset="0" style="stop-color:#AA80F9"/>
						<stop  offset="1" style="stop-color:#6165D7"/>
					</linearGradient>
					<path class="st19" d="M1023.2,1693.8c-23.5,0.7-46.7-5.3-66.9-17.3c-61-36.6-151.3-97-232.4-176.2
						c-103-100.4-162.1-202.4-175.1-302.7l-0.2-1.6l-2.5-427.6c0-84.5,55.1-153.1,158.6-198.2c85.5-37.2,198.8-55.7,318.5-52.2
						c118.3,3.4,227.8,27.8,308.8,68.5C1428.4,635,1479,703,1479,783.5l-2.3,408.6l-0.2,1.5c-11.8,96-66.3,195.2-162.5,295.5
						c-77.2,80.4-164.4,144.2-224.3,183.7C1070,1685.8,1046.9,1693.1,1023.2,1693.8z"/>
					
						<linearGradient id="SVGID_15_" gradientUnits="userSpaceOnUse" x1="760.5974" y1="3165.6985" x2="1674.5574" y2="1670.8583" gradientTransform="matrix(1 0 0 -1 0 3710)">
						<stop  offset="0" style="stop-color:#AA80F9"/>
						<stop  offset="1" style="stop-color:#6165D7"/>
					</linearGradient>
					<path class="st20" d="M1046.7,1693.8c-23.2,0.7-46.1-5.3-66-17.3c-60.3-36.6-149.3-97-229.4-176.2
						c-101.6-100.4-160-202.4-172.8-302.7l-0.2-1.6l-2.5-427.6c0-84.5,54.4-153.1,156.5-198.2c84.4-37.2,196.2-55.7,314.3-52.2
						c116.8,3.4,224.8,27.8,304.8,68.5c95.1,48.4,144.9,116.4,144.9,196.9l-2.3,408.6l-0.2,1.5c-11.7,96-65.4,195.2-160.4,295.5
						c-76.2,80.4-162.2,144.2-221.3,183.7C1092.9,1685.8,1070.1,1693.1,1046.7,1693.8z"/>
					
						<linearGradient id="SVGID_16_" gradientUnits="userSpaceOnUse" x1="1245.2292" y1="2314.5996" x2="502.9691" y2="3807.1497" gradientTransform="matrix(1 0 0 -1 0 3710)">
						<stop  offset="0" style="stop-color:#AA80F9"/>
						<stop  offset="1" style="stop-color:#6165D7"/>
					</linearGradient>
					<path class="st21" d="M604.1,768.8l2.5,425.4c28,217.1,283.1,392.8,394.2,459.6c31.8,19.1,72.5,18,104.1-2.8
						c108.8-71.6,349.9-251.8,375.7-460.5l2.3-407.5C1482.9,480.8,604.1,453.2,604.1,768.8z"/>
					
						<linearGradient id="SVGID_17_" gradientUnits="userSpaceOnUse" x1="688.36" y1="2604.1616" x2="1405.0601" y2="2604.1616" gradientTransform="matrix(1 0 0 -1 0 3710)">
						<stop  offset="0" style="stop-color:#26264F"/>
						<stop  offset="1" style="stop-color:#444B8C"/>
					</linearGradient>
					<path class="st22" d="M1053,1588.3c-2.9,0.1-5.8-0.7-8.2-2.2c-45.8-27.7-134.4-85.7-211.6-161.5
						c-83.3-81.8-131.4-161.4-142.4-236.2L688.4,770c0.1-40.1,31.9-74.5,94.2-102c69.5-30.7,168.3-46.8,270.5-44.4
						c101.2,2.4,197.1,22.8,263.5,55.7c58.8,29.2,88.4,63.5,88.6,102.3l-2.3,403.9c-10.3,72.3-55.4,150.3-134.6,232.3
						c-74.5,77.1-161.5,138.2-206.9,167.9C1058.8,1587.3,1055.9,1588.2,1053,1588.3z"/>
					
						<linearGradient id="SVGID_18_" gradientUnits="userSpaceOnUse" x1="1161.8505" y1="2055.4656" x2="954.9206" y2="3183.2356" gradientTransform="matrix(1 0 0 -1 0 3710)">
						<stop  offset="0" style="stop-color:#AA80F9"/>
						<stop  offset="1" style="stop-color:#6165D7"/>
					</linearGradient>
					<path class="st23" d="M1042.6,1559.7c-46.2-28.5-128.3-83.4-200-153.9c-78.3-77.1-123.6-151-134.3-219.5l-2.4-416
						c0.1-28.7,26.5-55,78.2-78c65.9-29.2,160.3-44.5,258.5-42.3c97.3,2.2,189.1,21.4,252.1,52.6c49,24.2,73.8,50.7,73.8,78.7
						l-2.3,402.4c-10,66.4-52.7,139-127.5,216.2C1169.3,1471.7,1088.6,1529.3,1042.6,1559.7z"/>
				</g>
				<path class="st5" d="M1014.6,1247.2c-14.7,0-28.1-7-35.5-18.5l-114.8-178.6c-10-15.5-4.6-38,12.1-50.7c17.1-13,39.9-11,50.6,4.7
					l84.5,124l126.1-237.3c12.2-23,42.3-37.5,67.6-32c26,5.7,36.6,30.2,23.1,54.2l-175.2,312.4c-7.3,12.9-21.5,21.2-37,21.7
					C1015.5,1247.2,1015.1,1247.2,1014.6,1247.2z"/>
			</g>
			<g>
				<g>
					
						<linearGradient id="SVGID_19_" gradientUnits="userSpaceOnUse" x1="1030.8011" y1="1085.9773" x2="2701.7834" y2="1085.9773" gradientTransform="matrix(1 0 0 -1 0 3710)">
						<stop  offset="0" style="stop-color:#AA80F9"/>
						<stop  offset="1" style="stop-color:#6165D7"/>
					</linearGradient>
					<path class="st24" d="M1053.1,3052.5c-64.8-168.6,26.6-444.9,84.2-570.2c167.8-365,476.1-377.4,728.8-387.5
						c248.3-9.9,487.9-19.5,663.3,260.5c114.6,182.9,220,518.5,149.7,697.2c-73.9,188-279.1,42.3-767.2,39.7
						C1375.2,3089.4,1133.9,3263.1,1053.1,3052.5z"/>
					
						<linearGradient id="SVGID_20_" gradientUnits="userSpaceOnUse" x1="1851.7787" y1="1455.8401" x2="1845.3987" y2="1844.73" gradientTransform="matrix(1 0 0 -1 0 3710)">
						<stop  offset="0" style="stop-color:#AA80F9"/>
						<stop  offset="1" style="stop-color:#6165D7"/>
					</linearGradient>
					<path class="st25" d="M2100.4,2133.2c0,46-112.2,101.1-250.6,101.1s-250.7-55.2-250.7-101.1s112.2-25.4,250.7-25.4
						S2100.4,2087.3,2100.4,2133.2z"/>
					
						<linearGradient id="SVGID_21_" gradientUnits="userSpaceOnUse" x1="1854.7963" y1="1415.5901" x2="1852.6763" y2="1755.76" gradientTransform="matrix(1 0 0 -1 0 3710)">
						<stop  offset="0" style="stop-color:#AB316D"/>
						<stop  offset="1" style="stop-color:#792D3D"/>
					</linearGradient>
					<path class="st26" d="M1757.6,1812.6c-38.1,0,49.9,267.8-88.7,304.6c-13.4,3.6-15.6,21.6-3.4,28.2
						c37.2,20.1,106.9,45.7,221.1,45.7c55.7,0.2,110.3-16.2,156.7-46.9c7-4.7,8.8-14.2,4.1-21.2c-1.4-2.1-3.4-3.9-5.7-5
						c-42.7-22-102-92-84.3-298.4L1757.6,1812.6z"/>
					
						<linearGradient id="SVGID_22_" gradientUnits="userSpaceOnUse" x1="1826.5919" y1="1902.3506" x2="1881.8419" y2="2567.5107" gradientTransform="matrix(1 0 0 -1 0 3710)">
						<stop  offset="0" style="stop-color:#AB316D"/>
						<stop  offset="1" style="stop-color:#792D3D"/>
					</linearGradient>
					<path class="st27" d="M1641.8,1491.6c0.6,3.4,12.1,247.8,68,369.8c16,35,95.6,30.8,147,26.6c44.7-3.7,114.8,12.7,134.5-18.2
						c79.4-124.1,65.9-431.5,65.9-431.5s-40.7-102.3-207.4-99.5S1641.8,1491.6,1641.8,1491.6z"/>
					
						<linearGradient id="SVGID_23_" gradientUnits="userSpaceOnUse" x1="1629.7689" y1="1918.7001" x2="1685.0189" y2="2583.8601" gradientTransform="matrix(1 0 0 -1 0 3710)">
						<stop  offset="0" style="stop-color:#AB316D"/>
						<stop  offset="1" style="stop-color:#792D3D"/>
					</linearGradient>
					<path class="st28" d="M1680.9,1622.8c0,0-34.9-40.5-67.7-45.9s-54.3,79.7-9.4,135.1s96.7,9.5,96.7,9.5L1680.9,1622.8z"/>
					
						<linearGradient id="SVGID_24_" gradientUnits="userSpaceOnUse" x1="2050.3906" y1="1883.7599" x2="2105.6406" y2="2548.9199" gradientTransform="matrix(1 0 0 -1 0 3710)">
						<stop  offset="0" style="stop-color:#AB316D"/>
						<stop  offset="1" style="stop-color:#792D3D"/>
					</linearGradient>
					<path class="st29" d="M2020.8,1622.8c0,0,34.9-40.5,67.7-45.9s54.3,79.7,9.4,135.1s-96.7,9.5-96.7,9.5L2020.8,1622.8z"/>
					
						<linearGradient id="SVGID_25_" gradientUnits="userSpaceOnUse" x1="1812.0138" y1="2223.0525" x2="1958.6438" y2="2677.8223" gradientTransform="matrix(1 0 0 -1 0 3710)">
						<stop  offset="0" style="stop-color:#311944"/>
						<stop  offset="1" style="stop-color:#6B3976"/>
					</linearGradient>
					<path class="st30" d="M1653.6,1619.8c4.4,8,9.4,15.6,12.8,14.7c14.1-3.7-40.3-141,9.8-189.1c25.9-24.9,55-2.2,161.1-7
						c106.8-4.8,134.1-30.4,166.4-10.8c29.4,17.8,55.7,68.8,33.9,219.6l18.2-4.2c-8.2-49.4,0.8-80.6,11-100.2
						c7.4-14.3,20.9-32.8,19.9-59.5c-0.6-16.5-6.1-17.3-7-30.8c-2.6-39.7,42.7-50.4,44.9-89.7c1.7-30.2-24.4-37.1-19.6-68.7
						c4-26.8,24.4-31.9,21.2-51.3c-3.5-20.9-30.7-36.5-49.9-42c-19.5-5.5-26.6,0.6-38-7.3c-18.5-12.8-9.6-35.4-23-43.8
						c-23.8-15-71.1,44.8-101.7,29.9c-18.5-9-11.4-35.9-27.8-42.4c-31.7-12.6-87.6,76.1-110.1,64.3c-10.8-5.6-0.4-27.3-15.5-43.2
						c-17.8-18.7-60.3-18.6-79.8,1.1c-18.1,18.4-2.7,40.4-21.9,63.8c-17.2,21-37.1,12.3-56.5,29.2c-33,28.5-21.5,93.1-17.4,116.2
						c14.1,79.3,58,95.4,48.2,149.5c-2.5,13.8-8.4,29.2-4.2,51.8C1632.7,1592.2,1644.2,1608.9,1653.6,1619.8z"/>
					<g class="st31">
						
							<linearGradient id="SVGID_26_" gradientUnits="userSpaceOnUse" x1="1812.0107" y1="2223.0566" x2="1958.6407" y2="2677.8264" gradientTransform="matrix(1 0 0 -1 0 3710)">
							<stop  offset="0" style="stop-color:#311944"/>
							<stop  offset="1" style="stop-color:#6B3976"/>
						</linearGradient>
						<path class="st32" d="M2059.4,1448.4c-3.9-39,26.3-57.2,21.3-85c-4.1-22.4-29.4-42.5-53.1-46.8
							c-50.7-9.2-83.5,65.5-133.9,57.4c-39-6.3-34.7-53.3-78.6-72.3c-69.7-30-142.8,61.5-189.1,36.1c-13.9-7.6-28-27.2-29-80.3
							c-26.6,30.5-16.2,89.3-12.3,111c14.1,79.3,58,95.4,48.2,149.5c-2.5,13.8-8.4,29.2-4.2,51.8c4.1,22.2,15.6,38.9,25,49.8
							c4.4,8,9.4,15.6,12.8,14.7c14.1-3.7-40.3-141,9.8-189.1c25.9-24.9,55-2.2,161.1-7c106.8-4.8,134.1-30.4,166.4-10.8
							c29.4,17.8,55.7,68.8,33.9,219.6l18.2-4.2c-8.2-49.4,0.8-80.6,11-100.2c3.1-5.9,7.1-12.5,10.8-20.1
							c-0.8-14.3-3.4-28.5-7.6-42.3C2064.6,1462.7,2060.6,1461,2059.4,1448.4z"/>
					</g>
				</g>
				<g>
					<g>
						
							<linearGradient id="SVGID_27_" gradientUnits="userSpaceOnUse" x1="1324.6986" y1="1086.54" x2="1871" y2="1086.54" gradientTransform="matrix(1 0 0 -1 0 3710)">
							<stop  offset="0" style="stop-color:#FFC444"/>
							<stop  offset="1" style="stop-color:#F36F56"/>
						</linearGradient>
						<path class="st33" d="M1871,2636.3v520.4h-495c-21.5,0-39-17.3-39.3-38.8l-4.1-310.7l-7.9-599.8c-0.1-7.6,4.1-14.7,10.9-18.2
							l26.5-13.6l28.3-14.6l186.4-69.1c14.1-5.2,29.9,1.1,36.5,14.5l253.6,512.4C1869.6,2624.3,1871,2630.3,1871,2636.3z"/>
						
							<linearGradient id="SVGID_28_" gradientUnits="userSpaceOnUse" x1="1324.6586" y1="1218.5549" x2="1372.1582" y2="1218.5549" gradientTransform="matrix(1 0 0 -1 0 3710)">
							<stop  offset="0" style="stop-color:#FFC444"/>
							<stop  offset="1" style="stop-color:#F36F56"/>
						</linearGradient>
						<path class="st34" d="M1372.2,2735c0.2,12.5-3.7,24.6-11.2,34.6l-28.3,37.7l-7.9-599.8c-0.1-7.7,4.1-14.7,10.9-18.2l26.5-13.6
							L1372.2,2735z"/>
						<rect x="1335.8" y="2816.9" class="st5" width="535.1" height="137.4"/>
						<path class="st11" d="M1866.9,2618.9l-253.5-512.4c-6.7-13.5-22.4-19.7-36.5-14.5l-16.4,6.1c2.6,2.4,4.7,5.3,6.3,8.4
							l253.3,512.4c2.6,5.4,3.9,11.4,3.8,17.4v520.4h47v-520.4C1871,2630.3,1869.6,2624.3,1866.9,2618.9z"/>
					</g>
					<g>
						
							<linearGradient id="SVGID_29_" gradientUnits="userSpaceOnUse" x1="6179.4688" y1="1086.54" x2="6726.04" y2="1086.54" gradientTransform="matrix(-1 0 0 -1 8597.04 3710)">
							<stop  offset="0" style="stop-color:#FFC444"/>
							<stop  offset="1" style="stop-color:#F36F56"/>
						</linearGradient>
						<path class="st35" d="M1871,2636.3v520.4h495.3c21.5,0,39-17.3,39.3-38.8l4.1-310.7l7.9-599.8c0.1-7.6-4.1-14.7-10.9-18.2
							l-26.5-13.6l-28.3-14.6l-186.5-69.1c-14.1-5.2-29.9,1.1-36.5,14.5l-253.7,512.4C1872.5,2624.3,1871,2630.3,1871,2636.3z"/>
						
							<linearGradient id="SVGID_30_" gradientUnits="userSpaceOnUse" x1="6179.4785" y1="1218.5549" x2="6226.9785" y2="1218.5549" gradientTransform="matrix(-1 0 0 -1 8597.04 3710)">
							<stop  offset="0" style="stop-color:#FFC444"/>
							<stop  offset="1" style="stop-color:#F36F56"/>
						</linearGradient>
						<path class="st36" d="M2370.1,2735c-0.2,12.5,3.7,24.6,11.2,34.6l28.4,37.7l7.9-599.8c0.1-7.7-4.1-14.7-10.9-18.2l-26.5-13.6
							L2370.1,2735z"/>
						<rect x="1871" y="2816.9" class="st5" width="538.8" height="137.4"/>
						<path class="st37" d="M1875.2,2618.9l253.6-512.4c6.7-13.5,22.5-19.7,36.6-14.5l16.4,6.1c-2.6,2.4-4.7,5.3-6.3,8.4
							L1922,2618.9c-2.7,5.4-4,11.4-4,17.4v520.4h-47v-520.4C1871,2630.3,1872.5,2624.3,1875.2,2618.9z"/>
					</g>
				</g>
				<g>
					<path class="st5" d="M1675.3,1740.8c-0.7-1.3-2.4-1.8-3.7-1.1l-1.6,0.8c-1.3,0.7-1.8,2.3-1.1,3.7c0,0,0,0,0,0l46.9,87.7
						c0.7,1.3,2.3,1.8,3.7,1.1c0,0,0,0,0,0l1.6-0.8c1.3-0.7,1.8-2.3,1.1-3.7L1675.3,1740.8z"/>
					<path class="st5" d="M2039.3,1740.6l-1.6-0.8c-1.3-0.7-3-0.2-3.7,1.1l-46.9,87.7c-0.7,1.3-0.2,3,1.1,3.7l1.6,0.8
						c1.3,0.7,3,0.2,3.7-1.1c0,0,0,0,0,0l46.9-87.7C2041.2,1742.9,2040.7,1741.3,2039.3,1740.6
						C2039.4,1740.6,2039.4,1740.6,2039.3,1740.6z"/>
				</g>
				<g>
					<g>
						<path class="st5" d="M2018.5,1737c0,1.9-0.1,3.8-0.1,5.7c0.8,24.9-4.9,49.5-16.4,71.6c-13.6,31.2-33.9,55.5-54.3,65.3
							c-0.3,0.1-0.6,0.3-0.9,0.4c-1.6,0.8-3.3,1.4-5,2c-1.3,0.9-2,1.3-2,1.3l-4.1,0.3c-18.8,4-50.9,4.6-82.1,4
							c-31.2,0.6-63.3,0-82.1-4l-4.1-0.3c0,0-0.8-0.5-2-1.3c-1.2-0.4-2.3-0.8-3.5-1.3c-0.8-0.3-1.6-0.7-2.4-1
							c-20.5-9.8-40-34.1-53.6-65.3c-10.3-19.9-19.3-43.9-15.7-71.6v-0.8c-0.1-1-0.3-2-0.6-2.9c-0.2-0.7-0.3-1.4-0.4-2.1
							c-0.2-7.6,0.2-15.2,1-22.7c0.5-4.3,3.4-8,7.4-9.6c52.2-20.4,106.9-26,156-24.7c49-1.2,103.8,4.3,156,24.7
							c4.1,1.6,7,5.3,7.6,9.6c0.8,7,1.3,14,1.3,21C2018.5,1735.8,2018.5,1736.4,2018.5,1737z"/>
						
							<linearGradient id="SVGID_31_" gradientUnits="userSpaceOnUse" x1="1894.0348" y1="1335.2897" x2="1858.2047" y2="1896.2596" gradientTransform="matrix(1 0 0 -1 0 3710)">
							<stop  offset="0" style="stop-color:#6165D7"/>
							<stop  offset="1" style="stop-color:#AA80F9"/>
						</linearGradient>
						<path class="st38" d="M2018.5,1737c0,1.9-0.1,3.8-0.1,5.7c0.8,24.9-4.9,49.5-16.4,71.6c-13.6,31.2-33.9,55.5-54.3,65.3
							c-0.3,0.1-0.6,0.3-0.9,0.4c-40.2,3.3-134.2,1.9-184.9,0.7c-0.8-0.3-1.6-0.7-2.4-1c-20.5-9.8-40-34.1-53.6-65.3
							c-10.3-19.9-19.3-43.9-15.7-71.6v-0.8c0-0.8-0.8-1.6-0.7-2.4c0,0-0.3-0.1-0.3-0.1l0.4-0.4c5.3-5.6,11.9-9.6,19.3-11.6
							c35-9.7,169.7-41.4,296.7,2.5l12.8,5.2C2018.5,1735.8,2018.5,1736.4,2018.5,1737z"/>
						<g>
							<path class="st5" d="M1837.3,1782.7c-90.5,0-135.6-9.9-136.2-10.1c-1.1-0.4-1.6-1.6-1.2-2.7c0.3-0.9,1.2-1.4,2.1-1.3
								c1,0.2,101.8,22.4,305.8,0c1.1-0.1,2.1,0.7,2.3,1.8c0.1,1.1-0.7,2.2-1.8,2.3C1939.8,1780.2,1882.8,1782.7,1837.3,1782.7z"/>
						</g>
						<g>
							<path class="st5" d="M1846.1,1836.4c-72.8,0-109.1-10-109.7-10.1c-1.1-0.3-1.7-1.5-1.4-2.6c0.3-1.1,1.5-1.7,2.6-1.4l0,0
								c0.8,0.2,81.7,22.3,245.4-0.1c1.1-0.1,2.1,0.7,2.3,1.9c0.1,1.1-0.6,2-1.7,2.2C1928.5,1833.9,1882.7,1836.4,1846.1,1836.4z"/>
						</g>
					</g>
					<g>
						<path class="st5" d="M1702.6,1711.4c-1.5,0-2.9-0.8-3.6-2.1l-55.8-98.8c-1.1-2-0.4-4.5,1.6-5.6s4.5-0.4,5.6,1.6l0,0l55.8,98.8
							c1.1,2,0.4,4.5-1.6,5.6C1704,1711.3,1703.3,1711.4,1702.6,1711.4z"/>
						<path class="st5" d="M2010.8,1721.8c-0.3,0-0.5,0-0.8-0.1c-2.2-0.4-3.7-2.6-3.3-4.8c0,0,0,0,0,0l22-111.4
							c0.4-2.2,2.6-3.7,4.9-3.3s3.7,2.6,3.3,4.9l-22,111.4C2014.4,1720.4,2012.7,1721.8,2010.8,1721.8z"/>
					</g>
				</g>
				<g>
					<g>
						
							<linearGradient id="SVGID_32_" gradientUnits="userSpaceOnUse" x1="1617.88" y1="2118.925" x2="1643.1899" y2="2118.925" gradientTransform="matrix(1 0 0 -1 0 3710)">
							<stop  offset="0" style="stop-color:#26264F"/>
							<stop  offset="1" style="stop-color:#444B8C"/>
						</linearGradient>
						<path class="st39" d="M1625.6,1573c-6.1,0-7.7,4.8-7.7,10.9v16.8c0,6.1,1.6,8.5,7.7,8.5h17.6V1573H1625.6z"/>
						
							<linearGradient id="SVGID_33_" gradientUnits="userSpaceOnUse" x1="3875.9102" y1="2118.9255" x2="3904.8401" y2="2118.9255" gradientTransform="matrix(-1 0 0 -1 5953 3710)">
							<stop  offset="0" style="stop-color:#26264F"/>
							<stop  offset="1" style="stop-color:#444B8C"/>
						</linearGradient>
						<path class="st40" d="M2065.9,1573c6.1-0.1,11.1,4.8,11.1,10.8c0,0,0,0,0,0.1v16.8c0,6.1-5,8.5-11.1,8.5h-17.8V1573H2065.9z"
							/>
					</g>
					<g>
						<g>
							
								<linearGradient id="SVGID_34_" gradientUnits="userSpaceOnUse" x1="2002.8356" y1="2377.1226" x2="832.5155" y2="409.2527" gradientTransform="matrix(1 0 0 -1 0 3710)">
								<stop  offset="0" style="stop-color:#AA80F9"/>
								<stop  offset="1" style="stop-color:#6165D7"/>
							</linearGradient>
							<path class="st41" d="M2051.8,1562.4v51.3c-0.2,31-23.6,56.9-54.4,60.3l-48.2,5.4c-24.6,2.8-49.1-5.3-65.7-23.6l-26.9-28.5
								h-17.3l-26.8,28.5c-16.6,18.4-41.1,27-65.7,24.3l-48.9-5.7c-30.7-3.4-54.7-29.7-54.7-60.6v-51.3c0-5.2,2.9-10.2,6.7-13.7
								c3.9-3.6,9.1-5.5,14.4-5.2l183.5,7.8l183.4-7.8c5.3-0.3,10.5,1.6,14.3,5.2C2049.4,1552.3,2051.6,1557.2,2051.8,1562.4z"/>
							<path class="st42" d="M2027.2,1662c-8.7,6.6-19.1,10.8-30,12l-48.1,5.4c-24.6,2.8-49.1-5.3-65.7-23.6l-26.8-28.5h-17.3
								l-26.8,28.5c-16.6,18.4-41.1,27-65.7,24.3l-48.9-5.7c-30.7-3.4-54.7-29.7-54.7-60.6v-49.1c18.1,12.9,46.1,23.9,88.7,25.6
								C1836.3,1594.3,1977,1546.7,2027.2,1662z"/>
						</g>
						
							<linearGradient id="SVGID_35_" gradientUnits="userSpaceOnUse" x1="1639.62" y1="2097.7756" x2="2055.4001" y2="2097.7756" gradientTransform="matrix(1 0 0 -1 0 3710)">
							<stop  offset="0" style="stop-color:#26264F"/>
							<stop  offset="1" style="stop-color:#444B8C"/>
						</linearGradient>
						<path class="st43" d="M1944.1,1685.3c-23.4,0-44.6-8.6-59.6-25.2l-25.5-25.6h-13.7l-26.1,25.8c-14.3,15.8-35.3,24.3-59,24.3
							c-3.6,0-7.2-0.3-10.7-0.8l-49.6-5.5c-33.6-3.8-60.3-32.2-60.3-64.6v-51.3c0-5.4,3.5-10.9,9.7-16.8c5-4.8,13.6-6.7,19.4-6.5
							l183.2,7.8l183.5-7.8c5.7,0,10.5,2.1,15.1,6.5c5,4.8,5,11.1,5,16.7v51.5c0,34.1-23.4,61.5-55.6,65.1l-45.8,5.9
							C1950.7,1685.1,1947.4,1685.3,1944.1,1685.3z M1841.8,1627.3h20.9l28.1,27.7c13.4,14.9,32.3,22.4,53.2,22.4
							c3-0.1,5.9-0.4,8.8-0.8l46.6-6.1c27.8-3.1,48.6-27.1,48.6-56.7v-51.3c0-5.2-0.8-8.4-3.1-10.6c-2.5-2.6-5.9-4.1-9.4-4.1h-0.8
							l-182.9,7.8l-184.1-7.8c-4.5,0-9.1,1.8-11.5,4.1c-5.4,5.2-5.9,8.6-5.9,10.6v51.3c0,28.1,22.3,52.7,51.6,56l48.8,5.4
							c3.2,0.4,6.4,0.6,9.6,0.6c21.3,0,39.9-6.5,52.7-20.6L1841.8,1627.3z"/>
					</g>
				</g>
				<g>
					
						<linearGradient id="SVGID_36_" gradientUnits="userSpaceOnUse" x1="1658.1519" y1="2970.9807" x2="2032.6519" y2="1961.4706" gradientTransform="matrix(1 0 0 -1 0 3710)">
						<stop  offset="0" style="stop-color:#FFC444"/>
						<stop  offset="1" style="stop-color:#F36F56"/>
					</linearGradient>
					<path class="st44" d="M1645.8,1053.6h416.1c43.9,0,79.5,35.6,79.5,79.5c0,0,0,0,0,0V1414l0,0h-575.1l0,0v-280.9
						C1566.2,1089.2,1601.8,1053.6,1645.8,1053.6C1645.8,1053.6,1645.8,1053.6,1645.8,1053.6z"/>
					
						<linearGradient id="SVGID_37_" gradientUnits="userSpaceOnUse" x1="1798.2159" y1="2651.5117" x2="2084.7561" y2="1810.2518" gradientTransform="matrix(1 0 0 -1 0 3710)">
						<stop  offset="0" style="stop-color:#FFC444"/>
						<stop  offset="1" style="stop-color:#F36F56"/>
					</linearGradient>
					<path class="st45" d="M1788.1,1017.2h131.4c7.9,0,14.3,6.4,14.3,14.3l0,0V1414l0,0h-160l0,0v-382.5
						C1773.8,1023.6,1780.2,1017.2,1788.1,1017.2C1788.1,1017.2,1788.1,1017.2,1788.1,1017.2z"/>
					
						<linearGradient id="SVGID_38_" gradientUnits="userSpaceOnUse" x1="1533.5699" y1="2265.3701" x2="2174" y2="2265.3701" gradientTransform="matrix(1 0 0 -1 0 3710)">
						<stop  offset="0" style="stop-color:#FFC444"/>
						<stop  offset="1" style="stop-color:#F36F56"/>
					</linearGradient>
					<path class="st46" d="M1543.2,1409.8h621.2c5.3,0,9.6,4.3,9.6,9.6v50.4c0,5.3-4.3,9.6-9.6,9.6h-621.2c-5.3,0-9.6-4.3-9.6-9.6
						v-50.4C1533.6,1414.1,1537.9,1409.8,1543.2,1409.8z"/>
					
						<linearGradient id="SVGID_39_" gradientUnits="userSpaceOnUse" x1="1775.8214" y1="2444.2104" x2="1941.8015" y2="1996.7705" gradientTransform="matrix(1 0 0 -1 0 3710)">
						<stop  offset="0" style="stop-color:#FFC444"/>
						<stop  offset="1" style="stop-color:#F36F56"/>
					</linearGradient>
					<path class="st47" d="M1574.9,1475.3c12.1,55,132.3,98.1,278.9,98.1s266.8-43.2,278.9-98.1H1574.9z"/>
				</g>
			</g>
			<g>
				<g>
					
						<linearGradient id="SVGID_40_" gradientUnits="userSpaceOnUse" x1="2020.2075" y1="1091.884" x2="3289.823" y2="1091.884" gradientTransform="matrix(1 0 0 -1 0 3710)">
						<stop  offset="0" style="stop-color:#26264F"/>
						<stop  offset="1" style="stop-color:#444B8C"/>
					</linearGradient>
					<path class="st48" d="M2102.3,3178.4c-29.3,0-56.5-15.2-71.2-40.6c-14.6-25.3-14.6-56.6,0-81.9l552.7-957.2
						c22.7-39.3,73-52.7,112.3-30c12.5,7.2,22.8,17.6,30,30.1l552.7,957.3c14.6,25.3,14.6,56.4,0,81.7
						c-14.6,25.3-41.9,40.6-71.1,40.6H2102.3z"/>
					
						<linearGradient id="SVGID_41_" gradientUnits="userSpaceOnUse" x1="2055.8132" y1="1090.2849" x2="3254.2319" y2="1090.2849" gradientTransform="matrix(1 0 0 -1 0 3710)">
						<stop  offset="0" style="stop-color:#FCB148"/>
						<stop  offset="5.000000e-02" style="stop-color:#FDBA46"/>
						<stop  offset="0.14" style="stop-color:#FFC244"/>
						<stop  offset="0.32" style="stop-color:#FFC444"/>
						<stop  offset="0.48" style="stop-color:#FDB946"/>
						<stop  offset="0.78" style="stop-color:#F99C4D"/>
						<stop  offset="0.87" style="stop-color:#F8924F"/>
						<stop  offset="1" style="stop-color:#F8924F"/>
					</linearGradient>
					<path class="st49" d="M3248,3121.6c-8.3,14.4-23.7,24.3-40.3,24.3H2102.3c-16.6,0-32-9.9-40.3-24.3c-8.3-14.6-8.3-32.5,0-47.1
						l552.7-957.6c6.7-11.7,18.2-19.9,31.4-22.5c2.9-0.6,5.9-0.9,8.9-0.9c16.6,0,32,8.8,40.3,23.2l552.7,957.8
						C3256.3,3089.1,3256.3,3107,3248,3121.6z"/>
					
						<linearGradient id="SVGID_42_" gradientUnits="userSpaceOnUse" x1="2055.8132" y1="1089.8199" x2="2849.7664" y2="1089.8199" gradientTransform="matrix(1 0 0 -1 0 3710)">
						<stop  offset="0" style="stop-color:#FCB148"/>
						<stop  offset="5.000000e-02" style="stop-color:#FDBA46"/>
						<stop  offset="0.14" style="stop-color:#FFC244"/>
						<stop  offset="0.32" style="stop-color:#FFC444"/>
						<stop  offset="0.48" style="stop-color:#FDB946"/>
						<stop  offset="0.78" style="stop-color:#F99C4D"/>
						<stop  offset="0.87" style="stop-color:#F8924F"/>
						<stop  offset="1" style="stop-color:#F8924F"/>
					</linearGradient>
					<path class="st50" d="M2629.2,3034.1c-118.3,49.1-197.9,75.7-247.6,111.8h-279.2c-16.6,0-32-9.9-40.3-24.3
						c-8.3-14.6-8.3-32.5,0-47.1l552.7-957.6c6.7-11.7,18.2-19.9,31.4-22.5c-48.5,95.6-115.2,293.7,50.3,452.6
						C2923.6,2765.2,2896.1,2923.3,2629.2,3034.1z"/>
				</g>
				<g>
					<path class="st5" d="M2678.8,2789.1l-48.2-1.1c-13.4-0.3-24.5-11.8-25.2-25.3l-17.6-339.3c-0.4-6.6,2.1-13,6.9-17.5
						c4.8-4.7,11.4-6.3,18.4-5.8l82.9,5.8c6.8,0.5,13.3,2.7,18,8c4.6,5,7,11.7,6.8,18.5l-17.2,333.1
						C2702.9,2778.9,2692,2789.4,2678.8,2789.1z"/>
					<path class="st5" d="M2604.5,2872c12-11.5,28.9-17.1,50.7-16.7c22.4,0.4,39.5,6.3,51.1,17.7s17.4,28.1,17.4,50
						c0,21.2-5.9,37.6-17.8,49.2c-11.9,11.6-28.8,17.4-50.7,17.5c-21.5,0-38.3-6-50.5-18.1c-12.2-12.1-18.3-28.6-18.3-49.7
						C2586.4,2900.2,2592.4,2883.5,2604.5,2872z"/>
				</g>
			</g>
		</g>
	</g>
</g>
</svg>
